G04 ================== begin FILE IDENTIFICATION RECORD ==================*
G04 Layout Name:  C:/Users/user/Desktop/work/avrusb500/allegro/AVRUSB500_2.brd*
G04 Film Name:    Deign*
G04 File Format:  Gerber RS274X*
G04 File Origin:  Cadence Allegro 17.2-P019*
G04 Origin Date:  Mon Jul 29 15:50:18 2019*
G04 *
G04 Layer:  BOARD GEOMETRY/DESIGN_OUTLINE*
G04 Layer:  VIA CLASS/BOTTOM*
G04 Layer:  VIA CLASS/TOP*
G04 Layer:  ROUTE KEEPOUT/ALL*
G04 Layer:  ROUTE KEEPIN/ALL*
G04 Layer:  REF DES/SILKSCREEN_TOP*
G04 Layer:  REF DES/SILKSCREEN_BOTTOM*
G04 Layer:  PIN/BOTTOM*
G04 Layer:  PIN/TOP*
G04 Layer:  PACKAGE KEEPIN/ALL*
G04 Layer:  PACKAGE GEOMETRY/PIN_NUMBER*
G04 Layer:  PACKAGE GEOMETRY/SILKSCREEN_TOP*
G04 Layer:  PACKAGE GEOMETRY/SILKSCREEN_BOTTOM*
G04 Layer:  PACKAGE GEOMETRY/SOLDERMASK_TOP*
G04 Layer:  PACKAGE GEOMETRY/SOLDERMASK_BOTTOM*
G04 Layer:  PACKAGE GEOMETRY/PASTEMASK_TOP*
G04 Layer:  PACKAGE GEOMETRY/PASTEMASK_BOTTOM*
G04 Layer:  ETCH/BOTTOM*
G04 Layer:  ETCH/TOP*
G04 Layer:  BOARD GEOMETRY/SILKSCREEN_TOP*
G04 Layer:  BOARD GEOMETRY/SILKSCREEN_BOTTOM*
G04 Layer:  BOARD GEOMETRY/SOLDERMASK_TOP*
G04 Layer:  BOARD GEOMETRY/SOLDERMASK_BOTTOM*
G04 *
G04 Offset:    (0.0000 0.0000)*
G04 Mirror:    No*
G04 Mode:      Positive*
G04 Rotation:  0*
G04 FullContactRelief:  No*
G04 UndefLineWidth:     0.0000*
G04 ================== end FILE IDENTIFICATION RECORD ====================*
%FSLAX55Y55*MOMM*%
%IR0*IPPOS*OFA0.00000B0.00000*MIA0B0*SFA1.00000B1.00000*%
%ADD10O,1.8999X1.1999*%
%ADD12R,1.7201X.4*%
%ADD15C,.61*%
%ADD20O,.4569X1.778*%
%ADD17O,1.778X.4569*%
%ADD21R,.4569X1.778*%
%ADD16R,1.778X.4569*%
%ADD11R,1.7201X1.1001*%
%ADD18C,1.3211*%
%ADD19R,1.3211X1.3211*%
%ADD22C,1.5751*%
%ADD23R,1.5751X1.5751*%
%ADD14R,1.4986X2.8448*%
%ADD13R,2.8448X1.4986*%
%ADD24C,.2*%
%ADD25C,.203*%
%ADD26C,.254*%
%ADD27C,.381*%
%ADD28C,.1524*%
%ADD29C,.382*%
%ADD34R,8.1794X.7624*%
%ADD32C,1.1184*%
%ADD31C,2.0836*%
%ADD38C,1.5756*%
%ADD30C,1.8296*%
%ADD36R,.7624X.4544*%
%ADD33R,.7624X.7624*%
%ADD35R,.7624X.8904*%
%ADD37R,.8894X.7624*%
G75*
%LPD*%
G75*
G36*
G01X35352010Y18842010D02*
Y22741990D01*
X45751990D01*
Y18842010D01*
X35352010D01*
G37*
%LPC*%
G75*
G36*
G01X45024060Y22260520D02*
X44891940D01*
G02X44866520Y22285940I5J25425D01*
G01Y22418060D01*
G02X44891940Y22443480I25425J-5D01*
G01X45024060D01*
G02X45049480Y22418060I-5J-25425D01*
G01Y22285940D01*
G02X45024060Y22260520I-25425J5D01*
G37*
G36*
G01X44717280Y22401730D02*
G02X44672810Y22437580I-76778J-49733D01*
G02X44717280Y22401730I-32308J-85583D01*
G37*
G36*
G01X43449260Y22247820D02*
X43291740D01*
G02X43266320Y22273240I5J25425D01*
G01Y22430760D01*
G02X43291740Y22456180I25425J-5D01*
G01X43449260D01*
G02X43474680Y22430760I-5J-25425D01*
G01Y22273240D01*
G02X43449260Y22247820I-25425J5D01*
G37*
G36*
G01X38090390Y21805880D02*
X37880970D01*
X37957210Y21882120D01*
X38138120D01*
Y21853610D01*
X38090390Y21805880D01*
G37*
G36*
G01X38567090Y21882120D02*
G02Y21805880I40910J-38120D01*
G01X38463180D01*
Y21882120D01*
X38567090D01*
G37*
G36*
G01X42954530Y21615380D02*
X42846710D01*
X42824380Y21637710D01*
Y21691620D01*
X42900620D01*
Y21669290D01*
X42954530Y21615380D01*
G37*
G36*
G01X42646620Y21694410D02*
G02X42570380I-38120J-40910D01*
G01Y21825020D01*
X42646620D01*
Y21735980D01*
X42601640D01*
X42591720Y21726060D01*
G03X42600380Y21708830I7189J-7178D01*
G02X42646620Y21694410I8114J-55328D01*
G37*
G36*
G01X38409780Y21550140D02*
X38397440Y21537800D01*
G02X38376590Y21551880I20068J52194D01*
G01X38347250D01*
X38377640Y21582280D01*
X38377320Y21584760D01*
G02X38445900Y21618900I40180J5239D01*
G03X38462670Y21622960I7122J7248D01*
G02Y21557040I-45170J-32960D01*
G03X38445900Y21561100I-9648J-3188D01*
G02X38412260Y21549820I-28402J28900D01*
G01X38409780Y21550140D01*
G37*
G36*
G01X37759910Y21551880D02*
G02Y21628120I-40910J38120D01*
G01X37811030D01*
X37774920Y21592010D01*
Y21589910D01*
G02X37759910Y21551880I-55919J93D01*
G37*
G36*
G01X43599120Y21488380D02*
X43522880D01*
Y21510710D01*
X43468970Y21564620D01*
X43576790D01*
X43599120Y21542290D01*
Y21488380D01*
G37*
G36*
G01X41250770Y21607110D02*
G02X41088050Y21675200I-102766J-17111D01*
G02X41250770Y21607110I59953J-85204D01*
G37*
G36*
G01X43157410Y21361380D02*
G02X43114640Y21343610I-40914J38119D01*
G02X43157410Y21361380I1856J55888D01*
G37*
G36*
G01X39344620Y21391920D02*
Y21307900D01*
G03X39334750Y21315680I-9877J-2380D01*
G01X39268380D01*
Y21391920D01*
X39344620D01*
G37*
G36*
G01X40932120Y21295090D02*
G02X40855880I-38120J40910D01*
G02X40932120I38120J40910D01*
G37*
G36*
G01X42964120Y21234380D02*
X42629980D01*
Y21310620D01*
X42799880D01*
G03X42805680I2900J9737D01*
G01X43018030D01*
X42964120Y21256710D01*
Y21234380D01*
G37*
G36*
G01X42472620D02*
X42374760D01*
X42316380Y21292760D01*
Y21438160D01*
X42392620Y21361920D01*
Y21324340D01*
X42472620Y21244340D01*
Y21234380D01*
G37*
G36*
G01X40620190D02*
X40538380D01*
Y21260390D01*
X40629780Y21351790D01*
Y21353890D01*
G02X40644790Y21391920I55919J-93D01*
G02X40735680Y21328720I40909J-38124D01*
G02X40685790Y21297880I-49980J25080D01*
G01X40683690D01*
X40620190Y21234380D01*
G37*
G36*
G01X41225910Y21405160D02*
G02X41052490Y21294400I-77906J-69164D01*
G02X41225910Y21405160I95515J41594D01*
G37*
G36*
G01X42052790Y21234380D02*
X41998880Y21180470D01*
Y21224790D01*
X42084710Y21310620D01*
X42104190D01*
G03X42114350Y21320780I0J10160D01*
G02X42117320Y21327960I10159J2D01*
G01X42208520Y21419160D01*
Y21878930D01*
X42309980Y21980390D01*
Y21872570D01*
X42265620Y21828210D01*
Y21383710D01*
X42116290Y21234380D01*
X42052790D01*
G37*
G36*
G01X40858990Y21183580D02*
X40855880Y21180470D01*
Y21259820D01*
X40932120D01*
Y21183580D01*
X40858990D01*
G37*
G36*
G01X39322290Y21170880D02*
X39268380D01*
Y21247120D01*
X39290710D01*
X39341930Y21298340D01*
G03X39344620Y21303140I-7187J7181D01*
G01Y21193210D01*
X39322290Y21170880D01*
G37*
G36*
G01X43472390Y21221970D02*
G02X43395610I-38390J-12970D01*
G01X43395880Y21222760D01*
Y21249910D01*
G02X43472120I38120J-40910D01*
G01Y21222760D01*
X43472390Y21221970D01*
G37*
G36*
G01X41927970Y21181820D02*
G02X41873680Y21127530I-17970J-36320D01*
G01X41873310Y21128280D01*
X41854110Y21147480D01*
G02X41908020Y21201390I55890J-1980D01*
G01X41927220Y21182190D01*
X41927970Y21181820D01*
G37*
G36*
G01X43767290Y21107380D02*
X43713380Y21053470D01*
Y21161290D01*
X43735710Y21183620D01*
X43789620D01*
Y21107380D01*
X43767290D01*
G37*
G36*
G01X40871690Y21043880D02*
X40855880Y21028070D01*
Y21120120D01*
X40932120D01*
Y21043880D01*
X40871690D01*
G37*
G36*
G01X43583090Y20923180D02*
X43522880D01*
Y20999420D01*
X43551510D01*
X43599120Y21047030D01*
Y20939210D01*
X43583090Y20923180D01*
G37*
G36*
G01X39075820Y20927360D02*
G02X38987410Y20991720I-37317J41642D01*
G01X39004950D01*
G02X39070100Y20943640I33557J-22709D01*
G03X39075820Y20927360I7924J-6361D01*
G37*
G36*
G01X39217910Y20850880D02*
G02X39127940Y20915840I-40911J38122D01*
G03X39126920Y20927120I-8910J4880D01*
G01X39136090D01*
G02X39226060Y20862160I40911J-38122D01*
G03X39227080Y20850880I8910J-4880D01*
G01X39217910D01*
G37*
G36*
G01X36028500Y20825980D02*
X35958500D01*
G02Y20966020I0J70020D01*
G01X36028500D01*
G02Y20825980I0J-70020D01*
G37*
G36*
G01X35658500D02*
X35588500D01*
G02Y20966020I0J70020D01*
G01X35658500D01*
G02Y20825980I0J-70020D01*
G37*
G36*
G01X45544760Y20787320D02*
X45387240D01*
G02X45361820Y20812740I5J25425D01*
G01Y20970260D01*
G02X45387240Y20995680I25425J-5D01*
G01X45544760D01*
G02X45570180Y20970260I-5J-25425D01*
G01Y20812740D01*
G02X45544760Y20787320I-25425J5D01*
G37*
G36*
G01X41226760Y20723820D02*
X41069240D01*
G02X41044250Y20744590I5J25425D01*
G01Y20744620D01*
X41044180Y20745040D01*
G02X41043820Y20749240I25060J4263D01*
G01Y20906760D01*
G02X41069240Y20932180I25425J-5D01*
G01X41226760D01*
G02X41252180Y20906760I-5J-25425D01*
G01Y20749240D01*
G02X41251820Y20745040I-25420J63D01*
G01X41251750Y20744620D01*
Y20744590D01*
G02X41226760Y20723820I-24995J4655D01*
G37*
G36*
G01X40932120Y20662880D02*
X40903610D01*
X40855880Y20710610D01*
Y20818390D01*
X40903610Y20866120D01*
X40932120D01*
Y20662880D01*
G37*
G36*
G01X43446970Y20599110D02*
G02Y20675890I-12970J38390D01*
G01X43447760Y20675620D01*
X43474910D01*
G02Y20599380I-40910J-38120D01*
G01X43447760D01*
X43446970Y20599110D01*
G37*
G36*
G01X40805120Y20621710D02*
X40767000Y20583590D01*
X40713090Y20637500D01*
X40728880Y20653290D01*
Y20729530D01*
X40805120Y20653290D01*
Y20621710D01*
G37*
G36*
G01X37693620Y20558210D02*
X37674480Y20539070D01*
Y20973440D01*
X37727060Y21026030D01*
X37727330Y21027630D01*
G02X37791630Y20963330I55170J-9130D01*
G01X37790030Y20963060D01*
X37763520Y20936560D01*
Y20690780D01*
X37724590D01*
X37693620Y20659810D01*
Y20558210D01*
G37*
G36*
G01X37566620Y20472380D02*
X37490380D01*
Y20787090D01*
G02X37566620I38120J40910D01*
G01Y20472380D01*
G37*
G36*
G01X43400450Y20533220D02*
G02Y20487780I33550J-22720D01*
G01X43382910D01*
G02Y20533220I51090J22720D01*
G01X43400450D01*
G37*
G36*
G01X43345120Y20342590D02*
G02X43268880I-38120J40910D01*
G01Y20360780D01*
X43255910D01*
G02Y20406220I51090J22720D01*
G01X43273450D01*
G02X43345390Y20370530I33552J-22720D01*
G01X43345120Y20369740D01*
Y20342590D01*
G37*
G36*
G01X37812160Y20237520D02*
X37739590D01*
X37744380Y20242310D01*
Y20589790D01*
X37763520Y20608930D01*
Y20401940D01*
X37777530Y20387930D01*
X37778260Y20387560D01*
G02X37780860Y20385680I-4578J-9070D01*
G01X37802020Y20364520D01*
X37820620D01*
Y20242830D01*
G03X37812160Y20237520I25380J-49830D01*
G37*
G36*
G01X43789620Y20233910D02*
G02X43713380I-38120J-40910D01*
G02X43789620I38120J-40910D01*
G37*
G36*
G01X38536460Y20185840D02*
G02X38436480Y20159160I-55461J7160D01*
G02X38425830Y20183870I44520J33838D01*
G01X38425800Y20184040D01*
G02X38436480Y20226840I55199J8958D01*
G01Y20300490D01*
X38488530Y20248440D01*
X38490130Y20248170D01*
G02X38536460Y20185840I-9130J-55170D01*
G37*
G36*
G01X42599460Y20109980D02*
G02X42564520Y20075040I5240J-40180D01*
G01X42564840Y20077520D01*
X42552500Y20089860D01*
G02X42584640Y20122000I52200J-20060D01*
G01X42596980Y20109660D01*
X42599460Y20109980D01*
G37*
G36*
G01X42440720Y20099550D02*
G02X42395280I-22720J-33550D01*
G01Y20117100D01*
G02X42443830Y20115600I22719J-51099D01*
G01X42440720Y20112490D01*
Y20099550D01*
G37*
G36*
G01X42839440Y20063460D02*
G02X42796460Y20106440I-40440J2540D01*
G01X42798380Y20106560D01*
X42805480Y20113660D01*
Y20121540D01*
G02X42832840Y20110520I-6472J-55543D01*
G01X42863720D01*
Y20089540D01*
X42839560Y20065380D01*
X42839440Y20063460D01*
G37*
G36*
G01X43220910Y19964380D02*
G02Y20040620I-40910J38120D01*
G02Y19964380I-40910J-38120D01*
G37*
G36*
G01X43345120Y20018290D02*
Y19910470D01*
X43291210Y19964380D01*
X43268880D01*
Y20040620D01*
X43322790D01*
X43345120Y20018290D01*
G37*
G36*
G01X43079680Y19911780D02*
X43016720Y19848820D01*
X42962820Y19902720D01*
X43025780Y19965680D01*
X43079680Y19911780D01*
G37*
G36*
G01X42633240Y19837280D02*
X42579870D01*
X42592710Y19850120D01*
X42646080D01*
X42633240Y19837280D01*
G37*
G36*
G01X36028500Y19800980D02*
X35958500D01*
G02Y19941020I0J70020D01*
G01X36028500D01*
G02Y19800980I0J-70020D01*
G37*
G36*
G01X35658500D02*
X35588500D01*
G02Y19941020I0J70020D01*
G01X35658500D01*
G02Y19800980I0J-70020D01*
G37*
G36*
G01X42903410Y19773880D02*
G02X42821590Y19850120I-40910J38120D01*
G02X42901980Y19851600I40910J-38121D01*
G01X42902240Y19851340D01*
G02X42903410Y19773880I-39741J-39339D01*
G37*
G36*
G01X41700520Y19646880D02*
X41665610D01*
X41363880Y19948610D01*
Y20183390D01*
X41410870Y20230380D01*
Y20335240D01*
G02X41436290Y20360660I25420J0D01*
G01X41586150D01*
G02X41611570Y20335240I0J-25420D01*
G01Y20050760D01*
G02X41586150Y20025340I-25420J0D01*
G01X41440120D01*
Y19980190D01*
X41697190Y19723120D01*
X41700520D01*
Y19646880D01*
G37*
G36*
G01X38451400Y19729470D02*
G02X38383600Y19640530I-33900J-44470D01*
G01X38362860D01*
G03X38369790Y19655840I-1740J10011D01*
G02X38451400Y19729470I47715J29156D01*
G37*
G36*
G01X38197400Y19640530D02*
G02Y19729470I-33900J44470D01*
G01X38197410D01*
G02Y19640530I-33910J-44470D01*
G01X38197400D01*
G37*
G36*
G01X43414970Y19397090D02*
G02X43326030I-44470J33910D01*
G01Y19397100D01*
G02X43414970I44470J33900D01*
G01Y19397090D01*
G37*
G36*
G01X40706060Y19212520D02*
X40573940D01*
G02X40548520Y19237940I5J25425D01*
G01Y19370060D01*
G02X40573940Y19395480I25425J-5D01*
G01X40706060D01*
G02X40731480Y19370060I-5J-25425D01*
G01Y19237940D01*
G02X40706060Y19212520I-25425J5D01*
G37*
G36*
G01X39690060D02*
X39557940D01*
G02X39532520Y19237940I5J25425D01*
G01Y19370060D01*
G02X39557940Y19395480I25425J-5D01*
G01X39690060D01*
G02X39715480Y19370060I-5J-25425D01*
G01Y19237940D01*
G02X39690060Y19212520I-25425J5D01*
G37*
G36*
G01X38674060D02*
X38541940D01*
G02X38516520Y19237940I5J25425D01*
G01Y19370060D01*
G02X38541940Y19395480I25425J-5D01*
G01X38674060D01*
G02X38699480Y19370060I-5J-25425D01*
G01Y19237940D01*
G02X38674060Y19212520I-25425J5D01*
G37*
G36*
G01X43997240Y19185670D02*
G02X43933330Y19121760I-55240J-8670D01*
G01X43932940Y19121820D01*
G02X43997180Y19186060I9060J55180D01*
G01X43997240Y19185670D01*
G37*
G36*
G01X43414970Y19147400D02*
G02X43326030I-44470J-33900D01*
G01Y19147410D01*
G02X43404340Y19158020I44468J-33910D01*
G01X43414970D01*
Y19147400D01*
G37*
G54D34*
X38872150Y21971000D03*
G54D32*
X43116500Y22161500D03*
X42862500D03*
X42608500D03*
X37909500Y21971000D03*
X40195500D03*
X37528500Y21844000D03*
X43434000Y21653500D03*
X39306500Y21590000D03*
X42989500Y21526500D03*
X43751500Y21399500D03*
X39494500Y20889000D03*
X37528500Y19939000D03*
X37209720Y19685000D03*
X43751500Y19621500D03*
X43624500Y19431000D03*
G54D31*
X43116500Y22352000D03*
X42862500D03*
X42608500D03*
X41148000Y21082000D03*
X45466000Y20637500D03*
Y20383500D03*
Y20129500D03*
G54D38*
X40640000Y19050000D03*
X39624000D03*
X38608000D03*
G54D30*
X42354500Y22352000D03*
X40386000D03*
X39624000D03*
X41148000Y21844000D03*
X45466000Y19875500D03*
X43053000Y19304000D03*
X42291000D03*
G54D36*
X43307000Y20510500D03*
G54D33*
X43116500Y22034500D03*
X42862500D03*
X42608500D03*
X38100000Y21971000D03*
X43116500Y21907500D03*
X42862500D03*
X42608500D03*
X43116500Y21653500D03*
Y21526500D03*
X40576500Y21082000D03*
X43434000Y20961300D03*
X43307000D03*
X43751500Y20637500D03*
X43561000D03*
X40894000Y20574000D03*
X37528500Y20129500D03*
G54D35*
X43116500Y21780500D03*
X42862500D03*
X37592000Y19685000D03*
G54D37*
X43370500Y19304000D03*
%LPD*%
G75*
G54D10*
X35623500Y19871000D03*
D03*
Y20896000D03*
D03*
X35993500Y19871000D03*
D03*
Y20896000D03*
D03*
G54D11*
Y20613500D03*
Y20153500D03*
G54D20*
X38181300Y20504200D03*
X38341300D03*
X38421300D03*
X38501300D03*
X38581300D03*
X38661300D03*
X38741300D03*
Y21353800D03*
X38661300D03*
X38581300D03*
X38501300D03*
X38421300D03*
X38261300D03*
X38181300D03*
X42434500Y20256500D03*
X42514500D03*
X42594500D03*
X42674500D03*
X42594500Y21106100D03*
X42514500D03*
X42434500D03*
X42354500D03*
X42754500Y20256500D03*
X42834600D03*
X42914600D03*
Y21106100D03*
X42834600D03*
X42754500D03*
G54D21*
X38261300Y20504200D03*
X38341300Y21353800D03*
X42354500Y20256500D03*
X42674500Y21106100D03*
G54D12*
X35993500Y20253500D03*
Y20513500D03*
Y20318500D03*
Y20448500D03*
Y20383500D03*
G54D13*
X36068000Y21907500D03*
Y22334220D03*
G54D22*
X41148000Y21336000D03*
D03*
Y21082000D03*
D03*
Y21844000D03*
D03*
Y21590000D03*
D03*
X42354500Y22352000D03*
D03*
X42608500D03*
D03*
X42862500D03*
D03*
X43116500D03*
D03*
X45466000Y19875500D03*
D03*
Y20129500D03*
D03*
Y20383500D03*
D03*
Y20637500D03*
D03*
G54D14*
X37129720Y19431000D03*
X36703000D03*
X37129720Y19939000D03*
X36703000D03*
X37129720Y20447000D03*
X36703000D03*
X37129720Y21018500D03*
X36703000D03*
X36720780Y21590000D03*
X37147500D03*
X36703000Y22352000D03*
X37129720D03*
X37955220Y19240500D03*
X37528500D03*
X37800280Y22415500D03*
X38608000Y22479000D03*
X38227000Y22415500D03*
X39034720Y22479000D03*
X40177720Y19939000D03*
X39751000D03*
X40177720Y20447000D03*
X39751000D03*
X40177720Y20955000D03*
X39751000D03*
X40177720Y21653500D03*
X39751000D03*
X41084500Y20193000D03*
X41511220D03*
X41955720Y22161500D03*
X41529000D03*
X44196000Y19113500D03*
Y19621500D03*
Y20129500D03*
Y20637500D03*
Y21209000D03*
X44213780Y21780500D03*
X44622720Y19113500D03*
Y19621500D03*
Y20129500D03*
Y20637500D03*
Y21209000D03*
X44640500Y21780500D03*
G54D23*
X41148000Y20828000D03*
D03*
X43370500Y22352000D03*
D03*
X45466000Y20891500D03*
D03*
G54D24*
G01X38116100Y21844330D02*
X38030100D01*
X38012100Y21839000D01*
X38000100Y21828330D01*
X37996100Y21815000D01*
X38000100Y21801670D01*
X38012100Y21791000D01*
X38030100Y21785670D01*
X38116100D01*
G01X37996100Y21719800D02*
X38116100D01*
X38092100Y21735800D01*
G01X37996100D02*
Y21703800D01*
G01X39014900Y19366870D02*
X39020900Y19374870D01*
X39024900Y19384200D01*
Y19394870D01*
X39018900Y19406870D01*
X39008900Y19416200D01*
X38996900Y19422870D01*
X38976900Y19428200D01*
X38958900Y19429530D01*
X38940900Y19426870D01*
X38928900Y19422870D01*
X38916900Y19414870D01*
X38908900Y19405530D01*
X38904900Y19396200D01*
Y19386870D01*
X38908900Y19377530D01*
X38914900Y19369530D01*
X38922900Y19362870D01*
G01X38954900Y19326330D02*
X38968900Y19317000D01*
X38976900Y19309000D01*
X38980900Y19298330D01*
X38976900Y19289000D01*
X38968900Y19282330D01*
X38956900Y19277000D01*
X38942900Y19275670D01*
X38930900Y19277000D01*
X38918900Y19282330D01*
X38908900Y19290330D01*
X38904900Y19299670D01*
X38908900Y19310330D01*
X38920900Y19319670D01*
X38938900Y19325000D01*
X38958900Y19326330D01*
X38984900Y19323670D01*
X38998900Y19319670D01*
X39012900Y19313000D01*
X39022900Y19303670D01*
X39024900Y19294330D01*
X39020900Y19285000D01*
X39010900Y19278330D01*
G01X40030900Y19366870D02*
X40036900Y19374870D01*
X40040900Y19384200D01*
Y19394870D01*
X40034900Y19406870D01*
X40024900Y19416200D01*
X40012900Y19422870D01*
X39992900Y19428200D01*
X39974900Y19429530D01*
X39956900Y19426870D01*
X39944900Y19422870D01*
X39932900Y19414870D01*
X39924900Y19405530D01*
X39920900Y19396200D01*
Y19386870D01*
X39924900Y19377530D01*
X39930900Y19369530D01*
X39938900Y19362870D01*
G01Y19330330D02*
X39928900Y19322330D01*
X39922900Y19313000D01*
X39920900Y19301000D01*
X39924900Y19289000D01*
X39932900Y19279670D01*
X39946900Y19273000D01*
X39962900Y19271670D01*
X39978900Y19274330D01*
X39988900Y19281000D01*
X39996900Y19290330D01*
X39998900Y19299670D01*
X39996900Y19309000D01*
X39988900Y19321000D01*
X40040900Y19317000D01*
Y19281000D01*
G01X40940500Y19361670D02*
X40946500Y19369670D01*
X40950500Y19379000D01*
Y19389670D01*
X40944500Y19401670D01*
X40934500Y19411000D01*
X40922500Y19417670D01*
X40902500Y19423000D01*
X40884500Y19424330D01*
X40866500Y19421670D01*
X40854500Y19417670D01*
X40842500Y19409670D01*
X40834500Y19400330D01*
X40830500Y19391000D01*
Y19381670D01*
X40834500Y19372330D01*
X40840500Y19364330D01*
X40848500Y19357670D01*
G01X40844500Y19318470D02*
X40834500Y19309130D01*
X40830500Y19298470D01*
X40834500Y19287800D01*
X40846500Y19278470D01*
X40864500Y19271800D01*
X40882500Y19269130D01*
X40904500D01*
X40922500Y19271800D01*
X40938500Y19278470D01*
X40946500Y19286470D01*
X40950500Y19295800D01*
X40946500Y19306470D01*
X40938500Y19314470D01*
X40926500Y19319800D01*
X40910500Y19322470D01*
X40896500Y19319800D01*
X40882500Y19313130D01*
X40874500Y19305130D01*
X40872500Y19295800D01*
X40876500Y19285130D01*
X40886500Y19277130D01*
X40904500Y19269130D01*
G01X41237870Y20640300D02*
X41231200Y20652300D01*
X41223200Y20660300D01*
X41213870Y20664300D01*
X41203200Y20660300D01*
X41195200Y20652300D01*
X41187200Y20640300D01*
X41184530Y20624300D01*
Y20544300D01*
G01X41116000Y20664300D02*
Y20544300D01*
X41132000Y20568300D01*
G01Y20664300D02*
X41100000D01*
G01X40680000Y22352000D02*
Y22406000D01*
X40653330Y22472000D01*
G01X40706670D02*
X40680000Y22406000D01*
G01X40749870Y22452000D02*
X40757870Y22464000D01*
X40767200Y22470000D01*
X40777870Y22472000D01*
X40791200Y22468000D01*
X40800530Y22458000D01*
X40803200Y22446000D01*
X40801870Y22434000D01*
X40796530Y22424000D01*
X40769870Y22404000D01*
X40757870Y22390000D01*
X40749870Y22370000D01*
X40747200Y22352000D01*
X40803200D01*
G01X41732500Y20336100D02*
X41764500D01*
G01X41748500D02*
Y20216100D01*
G01X41732500D02*
X41764500D01*
G01X41873030Y20326100D02*
X41865030Y20332100D01*
X41855700Y20336100D01*
X41845030D01*
X41833030Y20330100D01*
X41823700Y20320100D01*
X41817030Y20308100D01*
X41811700Y20288100D01*
X41810370Y20270100D01*
X41813030Y20252100D01*
X41817030Y20240100D01*
X41825030Y20228100D01*
X41834370Y20220100D01*
X41843700Y20216100D01*
X41853030D01*
X41862370Y20220100D01*
X41870370Y20226100D01*
X41877030Y20234100D01*
G01X41938900Y20216100D02*
Y20336100D01*
X41922900Y20312100D01*
G01Y20216100D02*
X41954900D01*
G01X42452800Y19569100D02*
Y19623100D01*
X42426130Y19689100D01*
G01X42479470D02*
X42452800Y19623100D01*
G01X42548000Y19569100D02*
Y19689100D01*
X42532000Y19665100D01*
G01Y19569100D02*
X42564000D01*
G01X43193330Y22630000D02*
X43200000Y22618000D01*
X43208000Y22610000D01*
X43217330Y22606000D01*
X43228000Y22610000D01*
X43236000Y22618000D01*
X43244000Y22630000D01*
X43246670Y22646000D01*
Y22726000D01*
G01X43331200Y22606000D02*
Y22726000D01*
X43281870Y22640000D01*
X43348530D01*
G01X44984330Y22055100D02*
Y21935100D01*
X44957670D01*
X44947000Y21941100D01*
X44939000Y21949100D01*
X44932330Y21961100D01*
X44927000Y21975100D01*
X44925670Y21995100D01*
X44927000Y22015100D01*
X44932330Y22029100D01*
X44939000Y22041100D01*
X44947000Y22049100D01*
X44957670Y22055100D01*
X44984330D01*
G01X44859800D02*
Y21935100D01*
X44875800Y21959100D01*
G01Y22055100D02*
X44843800D01*
G01X45376130Y21079200D02*
X45382800Y21067200D01*
X45390800Y21059200D01*
X45400130Y21055200D01*
X45410800Y21059200D01*
X45418800Y21067200D01*
X45426800Y21079200D01*
X45429470Y21095200D01*
Y21175200D01*
G01X45468670Y21079200D02*
X45476670Y21065200D01*
X45487330Y21057200D01*
X45499330Y21055200D01*
X45510000Y21057200D01*
X45520670Y21067200D01*
X45527330Y21079200D01*
X45528670Y21091200D01*
X45526000Y21105200D01*
X45516670Y21115200D01*
X45507330Y21119200D01*
X45495330D01*
G01X45507330D02*
X45515330Y21125200D01*
X45522000Y21135200D01*
X45524670Y21147200D01*
X45522000Y21159200D01*
X45515330Y21169200D01*
X45503330Y21175200D01*
X45491330Y21173200D01*
X45479330Y21165200D01*
G54D15*
X37209720Y19685000D03*
D03*
X37528500Y19939000D03*
D03*
X37782500Y21018500D03*
D03*
X37528500Y20828000D03*
D03*
Y21844000D03*
D03*
X37719000Y21590000D03*
D03*
X37909500Y21971000D03*
D03*
X38163500Y19685000D03*
D03*
X38417500D03*
D03*
X38581300Y19785300D03*
D03*
X38481000Y20193000D03*
D03*
X38608000Y21844000D03*
D03*
X38417500Y21590000D03*
D03*
X39038500Y20969000D03*
D03*
X39494500Y20889000D03*
D03*
X39177000D03*
D03*
X39306500Y21590000D03*
D03*
X40195500Y21971000D03*
D03*
X40685700Y21353800D03*
D03*
X40894000Y21336000D03*
D03*
X41910000Y21145500D03*
D03*
X42604700Y20069800D03*
D03*
X42418000Y20066000D03*
D03*
X42514500Y20828000D03*
D03*
X42608500Y21653500D03*
D03*
Y22161500D03*
D03*
X43370500Y19113500D03*
D03*
Y19431000D03*
D03*
X42862500Y19812000D03*
D03*
X42799000Y20066000D03*
D03*
X43307000Y20383500D03*
D03*
X43434000Y20510500D03*
D03*
X43180000Y20002500D03*
D03*
X42799000Y20637500D03*
D03*
X43434000D03*
D03*
Y21209000D03*
D03*
X43116500Y21399500D03*
D03*
X42989500Y21526500D03*
D03*
X43434000Y21653500D03*
D03*
X43116500Y22161500D03*
D03*
X42862500D03*
D03*
X43942000Y19177000D03*
D03*
X43751500Y19621500D03*
D03*
X43624500Y19431000D03*
D03*
X43751500Y20193000D03*
D03*
Y21399500D03*
D03*
G54D25*
G01X38893700Y19177000D02*
G02I-285700J0D01*
G01X39909700D02*
G02I-285700J0D01*
G01X40576500Y22098000D02*
X39433500D01*
G01D02*
Y22606000D01*
G01D02*
X40576500D01*
G01X40925700Y19177000D02*
G02I-285700J0D01*
G01X41021000Y20688300D02*
Y21983700D01*
G01X41275000Y20688300D02*
X41021000D01*
G01Y21983700D02*
X41275000D01*
G01X40576500Y22606000D02*
Y22098000D01*
G01X41275000Y20828000D02*
Y20688300D01*
G01Y21082000D02*
Y20828000D01*
G01Y21336000D02*
Y21082000D01*
G01Y21590000D02*
Y21336000D01*
G01Y21844000D02*
Y21590000D01*
G01Y21983700D02*
Y21844000D01*
G01X43243500Y19050000D02*
X42100500D01*
G01D02*
Y19558000D01*
G01D02*
X43243500D01*
G01X42214800Y22225000D02*
Y22479000D01*
G01X43510200Y22225000D02*
X42214800D01*
G01X42608500Y22479000D02*
X42862500D01*
G01X42354500D02*
X42608500D01*
G01X42214800D02*
X42354500D01*
G01X43243500Y19558000D02*
Y19050000D01*
G01X43370500Y22479000D02*
X43510200D01*
G01X43116500D02*
X43370500D01*
G01X42862500D02*
X43116500D01*
G01X43510200D02*
Y22225000D01*
G01X45116700Y22352000D02*
G02X44799300Y22034500I-317400J-100D01*
G02Y22669500I0J317500D01*
G02X45116700Y22352000I0J-317400D01*
G01X45593000Y19735800D02*
X45339000D01*
G01X45593000Y21031200D02*
Y19735800D01*
G01X45339000D02*
Y19875500D01*
G01Y20383500D02*
Y20637500D01*
G01Y20129500D02*
Y20383500D01*
G01Y19875500D02*
Y20129500D01*
G01Y21031200D02*
X45593000D01*
G01X45339000Y20891500D02*
Y21031200D01*
G01Y20637500D02*
Y20891500D01*
G54D16*
X38036500Y21209000D03*
X38886100Y20889000D03*
X42209700Y20561300D03*
X43059300Y20481300D03*
G54D26*
G01X36703000Y19431000D02*
X36258500D01*
G01D02*
X36195000Y19494500D01*
Y19939000D01*
X36131500Y20002500D01*
Y20291910D01*
X36104910Y20318500D01*
G01D02*
X35993500D01*
G01X36258500Y21082000D02*
Y20574000D01*
X36198000Y20513500D01*
X35993500D01*
G01X36703000Y19939000D02*
X36512500D01*
X36449000Y20002500D01*
Y20320000D01*
X36385500Y20383500D01*
X35993500D01*
G01Y20448500D02*
X36701500D01*
X36703000Y20447000D01*
G01Y21018500D02*
X36410900D01*
X36385500Y20993100D01*
Y20828000D01*
X36449000Y20764500D01*
X37084000D01*
G01X36068000Y22334220D02*
X36403280D01*
X36449000Y22288500D01*
Y22034500D01*
X36639500Y21844000D01*
X37528500D01*
G01X37129720Y19939000D02*
X37338000D01*
X37401500Y20002500D01*
Y20104100D01*
X37426900Y20129500D01*
X37719000D01*
X37777400Y20187900D01*
Y20221420D01*
X37782500Y20226520D01*
Y20574000D01*
X37846000Y20637500D01*
X37847300D01*
X37858700Y20648900D01*
X38036500D01*
G01X37129720Y20447000D02*
Y20718780D01*
X37084000Y20764500D01*
G01X37129720Y21018500D02*
X37401500D01*
X37466180Y20953820D01*
X37735380D01*
X37800200Y20889000D01*
X38036500D01*
G01X37084000Y20764500D02*
X37338000D01*
X37401500Y20701000D01*
Y20510500D01*
X37592000D01*
X37655500Y20574000D01*
Y20675600D01*
X37708800Y20728900D01*
X38036500D01*
G01X37147500Y21590000D02*
X37249100D01*
X37274500Y21564600D01*
Y21488400D01*
X37299900Y21463000D01*
X37592000D01*
X37719000Y21590000D01*
G01X37129720Y22352000D02*
X37528500D01*
X37909500Y21971000D01*
G01X37528500Y19240500D02*
Y19494500D01*
X37592000Y19558000D01*
Y19875500D01*
X37528500Y19939000D01*
G01Y19177000D02*
Y19240500D01*
G01Y19939000D02*
Y20828000D01*
G01X37969200Y21278300D02*
X38111900D01*
G01X37528500Y20828000D02*
X37839700D01*
X37858700Y20809000D01*
X38036500D01*
G01X40195500Y21971000D02*
X37909500D01*
G01X37800280Y22415500D02*
X37909500D01*
X38100000Y22225000D01*
Y21869400D01*
X38074600Y21844000D01*
X37973000D01*
X37719000Y21590000D01*
G01X37528500Y21844000D02*
X38608000D01*
G01X37719000Y21590000D02*
X38417500D01*
G01X38261300Y21238200D02*
Y21353800D01*
G01X38421300D02*
Y21239500D01*
G01D02*
X38417500Y21235700D01*
Y21234400D01*
X38392100Y21209000D01*
X38290500D01*
X38261300Y21238200D01*
G01X39034720Y22479000D02*
Y22186900D01*
X39009320Y22161500D01*
X38544500D01*
X38501300Y22118300D01*
Y21353800D01*
G01X38741300D02*
X40685700D01*
G01X38608000Y21844000D02*
X39217600D01*
X39243000Y21869400D01*
Y22288500D01*
X39306500Y22352000D01*
X39624000D01*
G01X38581300Y21353800D02*
Y21761400D01*
X38608000Y21788100D01*
Y21844000D01*
G01X38417500Y21590000D02*
X38341300Y21513800D01*
Y21353800D01*
G01X39751000Y19939000D02*
X39560500D01*
X39497000Y20002500D01*
Y20040600D01*
X39471600Y20066000D01*
X39306500D01*
X39243000Y20129500D01*
Y20637500D01*
X39151600Y20728900D01*
X38886100D01*
G01X39751000Y20447000D02*
X39458900D01*
X39370000Y20535900D01*
Y20701000D01*
X39262000Y20809000D01*
X38886100D01*
G01Y20648900D02*
X38992800D01*
G01X38886100Y20608250D02*
Y20648900D01*
G01X39751000Y20955000D02*
X39560500D01*
X39494500Y20889000D01*
G01X40894000Y21336000D02*
X40830500D01*
X40767000Y21272500D01*
X39370000D01*
X39306500Y21209000D01*
X38886100D01*
G01X39306500Y21590000D02*
Y21018500D01*
X39257000Y20969000D01*
X39038500D01*
G01X38886100D02*
X39038500D01*
G01X38886100Y20889000D02*
X39177000D01*
G01D02*
X39494500D01*
G01X39751000Y21653500D02*
X39560500D01*
X39497000Y21590000D01*
X39306500D01*
G01X39034720Y22479000D02*
Y22546310D01*
X39157910Y22669500D01*
X40360600D01*
X40386000Y22644100D01*
Y22352000D01*
G01X41148000Y20828000D02*
X40919400D01*
X40894000Y20802600D01*
Y20193000D01*
X40767000Y20066000D01*
X40538400D01*
X40513000Y20040600D01*
Y20002500D01*
X40449500Y19939000D01*
X40177720D01*
G01X41148000Y21082000D02*
X40855900D01*
X40767000Y20993100D01*
Y20637500D01*
X40703500Y20574000D01*
X40513000D01*
X40386000Y20447000D01*
X40177720D01*
G01Y20955000D02*
X40322500D01*
X40449500Y21082000D01*
X40703500D01*
X40843200Y21221700D01*
X41033700D01*
X41148000Y21336000D01*
G01X40177720Y21653500D02*
X40980340D01*
X41043840Y21590000D01*
X41148000D01*
G01X40195500Y21971000D02*
Y21838920D01*
X40177720Y21821140D01*
Y21653500D01*
G01X40259000Y22415500D02*
Y22288500D01*
G01X40685700Y21353800D02*
X40576500Y21244600D01*
Y20828000D01*
X40830500Y20574000D01*
X41694100D01*
X41719500Y20548600D01*
Y20066000D01*
X41910000Y19875500D01*
X42410400D01*
X42604700Y20069800D01*
G01X42418000Y20066000D02*
X42354500Y20002500D01*
X41935400D01*
X41846500Y20091400D01*
Y20637500D01*
X41783000Y20701000D01*
X40919400D01*
X40894000Y20726400D01*
Y21336000D01*
G01X41511220Y20193000D02*
X41427400D01*
X41402000Y20167600D01*
Y19964400D01*
X41681400Y19685000D01*
X42291000D01*
G01X41910000Y21145500D02*
X41783000Y21272500D01*
Y21921470D01*
X41955720Y22094190D01*
Y22161500D01*
G01X41910000Y21145500D02*
X42037000Y21272500D01*
X43243500D01*
X43307000Y21209000D01*
Y20383500D01*
G01X42862500Y19812000D02*
X42608500D01*
X42481500Y19685000D01*
X42291000D01*
G01D02*
Y19304000D01*
G01X42285200Y20189200D02*
Y20331900D01*
G01X42604700Y20069800D02*
X42545000Y20129500D01*
Y20153750D01*
X42514500Y20184250D01*
Y20256500D01*
G01X42418000Y20066000D02*
Y20121900D01*
X42434500Y20138400D01*
Y20256500D01*
G01X43370500Y22352000D02*
Y22098000D01*
X43307000Y22034500D01*
X42418000D01*
X42227500Y21844000D01*
Y21399500D01*
X42037000Y21209000D01*
Y20154900D01*
X42062400Y20129500D01*
X42329100D01*
X42354500Y20154900D01*
Y20256500D01*
G01X42434500Y21106100D02*
Y21228550D01*
X42354500Y21308550D01*
Y21844000D01*
X42418000Y21907500D01*
X43370500D01*
X43561000Y22098000D01*
Y22352000D01*
X43624500Y22415500D01*
X44485540D01*
X44549040Y22352000D01*
X44640500D01*
G01X42608500Y21653500D02*
Y22161500D01*
G01X42735500Y21653500D02*
X42608500D01*
G01Y22352000D02*
Y22161500D01*
G01X43624500Y19431000D02*
X43497500Y19304000D01*
X43053000D01*
G01X43624500Y19431000D02*
Y19558000D01*
X43307000Y19875500D01*
Y20383500D01*
G01X43180000Y20002500D02*
X43116500D01*
X42926000Y19812000D01*
X42862500D01*
G01X42914600Y20256500D02*
X42955250D01*
G01X42914600Y20149800D02*
Y20256500D01*
G01X43307000Y20383500D02*
X43191400D01*
X43173600Y20401300D01*
X43059300D01*
G01X43180000Y20002500D02*
X43307000D01*
X43370500Y19939000D01*
X43434000Y20002500D01*
Y20510500D01*
G01D02*
X43202800D01*
X43173600Y20481300D01*
X43059300D01*
G01X43434000Y20637500D02*
X44196000D01*
G01X43434000Y21209000D02*
Y21374100D01*
X43408600Y21399500D01*
X43116500D01*
G01X43434000Y21209000D02*
Y20637500D01*
G01X43116500Y21399500D02*
X43053000D01*
X42926000Y21272500D01*
Y21231800D01*
X42914600Y21220400D01*
Y21106100D01*
G01X42989500Y21526500D02*
Y21438800D01*
X42834600Y21283900D01*
Y21106100D01*
G01X42735500Y21653500D02*
X42754500Y21634500D01*
Y21106100D01*
G01X44196000Y21209000D02*
X44005500D01*
X43942000Y21145500D01*
X43751500D01*
X43567300Y20961300D01*
X43059300D01*
G01X43116500Y22161500D02*
Y21399500D01*
G01X42862500Y22161500D02*
Y21653500D01*
X42989500Y21526500D01*
G01D02*
X43726100D01*
X43751500Y21501100D01*
Y21399500D01*
G01X43434000Y21653500D02*
X42735500D01*
G01X43434000D02*
X43561000Y21526500D01*
Y19812000D01*
X43751500Y19621500D01*
G01X45021500Y21209000D02*
X45123100D01*
X45148500Y21234400D01*
Y22580600D01*
X45123100Y22606000D01*
X43434000D01*
X43370500Y22542500D01*
Y22352000D01*
G01X43116500D02*
Y22161500D01*
G01X42862500Y22352000D02*
Y22161500D01*
G01X43751500Y19621500D02*
X44196000D01*
G01Y20129500D02*
X43942000D01*
X43878500Y20066000D01*
X43815000D01*
X43751500Y20129500D01*
Y20193000D01*
G01Y21399500D02*
Y20193000D01*
G01X44622720Y19113500D02*
X44894500D01*
X45212000Y19431000D01*
X45631100D01*
X45656500Y19456400D01*
Y20866100D01*
X45631100Y20891500D01*
X45466000D01*
G01Y20129500D02*
X45339000Y20002500D01*
Y19646900D01*
X45313600Y19621500D01*
X44622720D01*
G01X45466000Y20383500D02*
X45212000Y20129500D01*
X44622720D01*
G01X45466000Y20637500D02*
X44622720D01*
G01Y21209000D02*
X45021500D01*
G01X44640500Y21780500D02*
X44805600D01*
X44831000Y21755100D01*
Y21678900D01*
X44856400Y21653500D01*
X44932600D01*
X44958000Y21678900D01*
Y22352000D01*
G01X45021500Y21209000D02*
Y21018500D01*
X45148500Y20891500D01*
X45466000D01*
G54D17*
X38036500Y21129000D03*
Y21049000D03*
Y20969000D03*
Y20889000D03*
Y20809000D03*
Y20728900D03*
Y20648900D03*
X38886100D03*
Y20728900D03*
Y20809000D03*
Y20969000D03*
Y21049000D03*
Y21129000D03*
Y21209000D03*
X42209700Y20481300D03*
Y20401300D03*
Y20961300D03*
Y20881300D03*
Y20801300D03*
Y20721300D03*
Y20641300D03*
X43059300Y20401300D03*
Y20561300D03*
Y20641300D03*
Y20721300D03*
Y20801300D03*
Y20881300D03*
Y20961300D03*
G54D27*
G01X36258500Y21784310D02*
Y21082000D01*
G01Y21784310D02*
X36135310Y21907500D01*
X36068000D01*
G01X35907960D02*
X36068000D01*
G01D02*
Y22000230D01*
G01Y21814770D02*
Y21907500D01*
G01X37129720Y19431000D02*
Y19605000D01*
X37209720Y19685000D01*
G01D02*
X37401500D01*
G01X36703000Y22352000D02*
X36795730D01*
G01X36610270D02*
X36703000D01*
G01D02*
Y22512040D01*
G01Y22191960D02*
Y22352000D01*
G01X37955220Y19240500D02*
X38047950D01*
G01X37862490D02*
X37955220D01*
G01D02*
Y19400540D01*
G01Y19080460D02*
Y19240500D01*
G01X38608000Y19050000D02*
Y19133860D01*
G01Y18966140D02*
Y19050000D01*
G01D02*
X38691860D01*
G01X38524140D02*
X38608000D01*
G01D02*
Y19133860D01*
G01Y18966140D02*
Y19050000D01*
G01X38544600Y19684900D02*
X38544500Y19685000D01*
X38417500D01*
G01X38163500D02*
X38417500D01*
G01X39624000Y19304000D02*
X38608000D01*
G01X38227000Y22415500D02*
X38319730D01*
G01X38134270D02*
X38227000D01*
G01D02*
Y22575540D01*
G01Y22255460D02*
Y22415500D01*
G01X38608000Y22479000D02*
X38700730D01*
G01X38515270D02*
X38608000D01*
G01D02*
Y22639040D01*
G01Y22318960D02*
Y22479000D01*
G01X39624000Y19050000D02*
Y19133860D01*
G01Y18966140D02*
Y19050000D01*
G01D02*
X39707860D01*
G01X39540140D02*
X39624000D01*
G01D02*
Y19133860D01*
G01X40640000Y19050000D02*
Y19133860D01*
G01Y18966140D02*
Y19050000D01*
G01D02*
X40723860D01*
G01X40556140D02*
X40640000D01*
G01D02*
Y19133860D01*
G01Y18966140D02*
Y19050000D01*
G01X41084500Y20193000D02*
X41177230D01*
G01X40991770D02*
X41084500D01*
G01D02*
Y20353040D01*
G01Y20032960D02*
Y20193000D01*
G01X41148000Y21844000D02*
X41244560D01*
G01X41051440D02*
X41148000D01*
G01D02*
Y21940560D01*
G01Y21747440D02*
Y21844000D01*
G01X41051440D02*
X41148000D01*
G01D02*
Y21940560D01*
G01Y21747440D02*
Y21844000D01*
G01X41529000Y22001460D02*
Y22161500D01*
G01D02*
X41621730D01*
G01X41436270D02*
X41529000D01*
G01D02*
Y22321540D01*
G01X42354500Y22352000D02*
X42451060D01*
G01X42257940D02*
X42354500D01*
G01D02*
Y22448560D01*
G01Y22255440D02*
Y22352000D01*
G01X43370500Y19431000D02*
Y19113500D01*
G01X44196000D02*
X44005500D01*
X43942000Y19177000D01*
G01X45466000Y19778940D02*
Y19875500D01*
G01D02*
X45562560D01*
G01X45466000D02*
Y19972060D01*
G01Y19875500D02*
X45562560D01*
G01X45369440D02*
X45466000D01*
G01D02*
Y19972060D01*
G54D18*
X38608000Y19050000D03*
D03*
X39624000D03*
D03*
Y22352000D03*
D03*
X40386000D03*
D03*
X40640000Y19050000D03*
D03*
X42291000Y19304000D03*
D03*
X43053000D03*
D03*
X44640500Y22352000D03*
D03*
G54D28*
G01X37264340Y19227800D02*
X36568380D01*
G01Y19634200D02*
X37264340D01*
G01X36568380Y19227800D02*
Y19634200D01*
G01X37264340Y19735800D02*
X36568380D01*
G01D02*
Y20142200D01*
G01D02*
X37264340D01*
G01Y20243800D02*
X36568380D01*
G01D02*
Y20650200D01*
G01D02*
X37264340D01*
G01Y20815300D02*
X36568380D01*
G01Y21221700D02*
X37264340D01*
G01X36568380Y20815300D02*
Y21221700D01*
G01X36271200Y21772880D02*
X35864800D01*
G01D02*
Y22468840D01*
G01X36271200D02*
Y21772880D01*
G01X35864800Y22468840D02*
X36271200D01*
G01X36568380Y22148800D02*
Y22555200D01*
G01D02*
X37264340D01*
G01Y22148800D02*
X36568380D01*
G01X37264340Y19634200D02*
Y19227800D01*
G01Y20142200D02*
Y19735800D01*
G01Y20650200D02*
Y20243800D01*
G01Y21221700D02*
Y20815300D01*
G01X36586160Y21793200D02*
X37282120D01*
G01X36586160Y21386800D02*
Y21793200D01*
G01X37282120Y21386800D02*
X36586160D01*
G01X37282120Y21793200D02*
Y21386800D01*
G01X37264340Y22555200D02*
Y22148800D01*
G01X38089840Y19037300D02*
X37393880D01*
G01X38089840Y19443700D02*
Y19037300D01*
G01X37393880D02*
Y19443700D01*
G01D02*
X38089840D01*
G01X37665660Y22618700D02*
X38361620D01*
G01X37665660Y22212300D02*
Y22618700D01*
G01X38361620Y22212300D02*
X37665660D01*
G01X39169340Y22275800D02*
X38473380D01*
G01Y22682200D02*
X39169340D01*
G01X38473380Y22275800D02*
Y22682200D01*
G01X38361620Y22618700D02*
Y22212300D01*
G01X40312340Y19735800D02*
X39616380D01*
G01D02*
Y20142200D01*
G01D02*
X40312340D01*
G01Y20243800D02*
X39616380D01*
G01D02*
Y20650200D01*
G01D02*
X40312340D01*
G01Y20751800D02*
X39616380D01*
G01Y21158200D02*
X40312340D01*
G01X39616380Y20751800D02*
Y21158200D01*
G01X40312340Y21450300D02*
X39616380D01*
G01Y21856700D02*
X40312340D01*
G01X39616380Y21450300D02*
Y21856700D01*
G01X39169340Y22682200D02*
Y22275800D01*
G01X40312340Y20142200D02*
Y19735800D01*
G01Y20650200D02*
Y20243800D01*
G01Y21158200D02*
Y20751800D01*
G01Y21856700D02*
Y21450300D01*
G01X40949880Y19989800D02*
Y20396200D01*
G01D02*
X41645840D01*
G01Y19989800D02*
X40949880D01*
G01X41645840Y20396200D02*
Y19989800D01*
G01X42090340Y21958300D02*
X41394380D01*
G01D02*
Y22364700D01*
G01D02*
X42090340D01*
G01D02*
Y21958300D01*
G01X44757340Y18910300D02*
X44061380D01*
G01D02*
Y19316700D01*
G01D02*
X44757340D01*
G01Y19418300D02*
X44061380D01*
G01D02*
Y19824700D01*
G01D02*
X44757340D01*
G01Y19926300D02*
X44061380D01*
G01Y20332700D02*
X44757340D01*
G01X44061380Y19926300D02*
Y20332700D01*
G01X44757340Y20434300D02*
X44061380D01*
G01D02*
Y20840700D01*
G01D02*
X44757340D01*
G01X44061380Y21005800D02*
Y21412200D01*
G01X44757340Y21005800D02*
X44061380D01*
G01Y21412200D02*
X44757340D01*
G01X44079160Y21983700D02*
X44775120D01*
G01X44079160Y21577300D02*
Y21983700D01*
G01X44775120Y21577300D02*
X44079160D01*
G01X44757340Y19316700D02*
Y18910300D01*
G01Y19824700D02*
Y19418300D01*
G01Y20332700D02*
Y19926300D01*
G01Y20840700D02*
Y20434300D01*
G01Y21412200D02*
Y21005800D01*
G01X44775120Y21983700D02*
Y21577300D01*
G54D19*
X38608000Y19304000D03*
D03*
X39624000D03*
D03*
X40640000D03*
D03*
X44958000Y22352000D03*
D03*
G54D29*
G01X36720780Y21590000D02*
X36449000D01*
X36385500Y21526500D01*
Y21234400D01*
X36410900Y21209000D01*
X37755800D01*
X37915800Y21049000D01*
X38036500D01*
G01X37401500Y19685000D02*
X38163500D01*
G01X38481000Y20193000D02*
X38354000Y20320000D01*
X37782500D01*
X37719000Y20383500D01*
Y20955000D01*
X37782500Y21018500D01*
G01D02*
X37846000D01*
X37895500Y20969000D01*
X38036500D01*
G01Y21049000D02*
Y20969000D01*
G01X38661300Y21353800D02*
Y21239500D01*
X38671500Y21229300D01*
Y21082000D01*
X38638500Y21049000D01*
X38036500D01*
G01X38581300Y19785300D02*
X38327300D01*
X38279000Y19737000D01*
Y19653930D01*
X38290500Y19642430D01*
Y18948400D01*
X38315900Y18923000D01*
X39598600D01*
X39624000Y18948400D01*
G01X38608000Y19304000D02*
X38696550Y19392550D01*
Y19964300D01*
X38658350Y20002500D01*
X38481000D01*
Y20193000D01*
G01X38608000Y19304000D02*
Y19621500D01*
X38544600Y19684900D01*
G01X38581300Y20504200D02*
Y19785300D01*
G01X38238080Y20657940D02*
X38181300Y20601160D01*
Y20504200D01*
G01X38581300D02*
Y20632460D01*
G01X38481000Y20193000D02*
Y20363200D01*
X38501300Y20383500D01*
Y20504200D01*
G01X38238080Y20657940D02*
X38574400D01*
G01X38581300Y20632460D02*
X38574400Y20639360D01*
G01X38767940Y20701010D02*
X38617470D01*
X38574400Y20657940D01*
Y20639360D01*
G01X38886100Y20648900D02*
X38820050D01*
X38767940Y20701010D01*
G01X39624000Y18948400D02*
Y19050000D01*
G01Y19304000D02*
X40640000D01*
G01X42799000Y20066000D02*
X42614800Y19881800D01*
X42497600D01*
X42434100Y19818300D01*
X42432660D01*
X42426360Y19812000D01*
X41719520D01*
X41656000Y19748480D01*
Y19367500D01*
X41592500Y19304000D01*
X40640000D01*
G01X42674500Y21106100D02*
Y20487700D01*
X42712700Y20449500D01*
X42773600D01*
X42834600Y20388500D01*
Y20256500D01*
G01X42514500Y20828000D02*
Y20731500D01*
X42608500Y20637500D01*
X42799000D01*
G01X42514500Y20828000D02*
Y21106100D01*
G01X44213780Y21780500D02*
X44069000D01*
X43942000Y21653500D01*
X43624500D01*
X43497500Y21780500D01*
X42583200D01*
X42481500Y21678800D01*
Y21564700D01*
X42509920Y21536280D01*
X42514280D01*
X42524060Y21526500D01*
X42636300D01*
X42674500Y21488300D01*
Y21106100D01*
G01X43370500Y19431000D02*
Y19558000D01*
X42862500Y20066000D01*
X42799000D01*
G01X43942000Y19177000D02*
X43844140D01*
X43780640Y19113500D01*
X43370500D01*
G01X42799000Y20637500D02*
X42914600Y20521900D01*
G01D02*
Y20256500D01*
G01X42799000Y20066000D02*
X42834600Y20101600D01*
Y20256500D01*
M02*
