G04 ================== begin FILE IDENTIFICATION RECORD ==================*
G04 Layout Name:  C:/Users/user/Desktop/work/avrusb500/allegro/AVRUSB500_2.brd*
G04 Film Name:    DrillDraw*
G04 File Format:  Gerber RS274X*
G04 File Origin:  Cadence Allegro 17.2-P019*
G04 Origin Date:  Mon Jul 29 16:02:11 2019*
G04 *
G04 Layer:  BOARD GEOMETRY/DESIGN_OUTLINE*
G04 Layer:  MANUFACTURING/NCLEGEND-1-2*
G04 *
G04 Offset:    (0.0000 0.0000)*
G04 Mirror:    No*
G04 Mode:      Positive*
G04 Rotation:  0*
G04 FullContactRelief:  No*
G04 UndefLineWidth:     0.0000*
G04 ================== end FILE IDENTIFICATION RECORD ====================*
%FSLAX55Y55*MOMM*%
%IR0*IPPOS*OFA0.00000B0.00000*MIA0B0*SFA1.00000B1.00000*%
%AMMACRO10*
1,1,0.0,-.44995,.25005*
20,1,0.0,-.44995,.25005,.44995,.25005,0.0*
1,1,0.0,.44995,.25005*
20,1,0.0,.44995,.25005,.493371,.246251,0.0*
1,1,0.0,.493371,.246251*
20,1,0.0,.493371,.246251,.535472,.23497,0.0*
1,1,0.0,.535472,.23497*
20,1,0.0,.535472,.23497,.574975,.21655,0.0*
1,1,0.0,.574975,.21655*
20,1,0.0,.574975,.21655,.610679,.191549,0.0*
1,1,0.0,.610679,.191549*
20,1,0.0,.610679,.191549,.641499,.160729,0.0*
1,1,0.0,.641499,.160729*
20,1,0.0,.641499,.160729,.6665,.125025,0.0*
1,1,0.0,.6665,.125025*
20,1,0.0,.6665,.125025,.68492,.085522,0.0*
1,1,0.0,.68492,.085522*
20,1,0.0,.68492,.085522,.696201,.043421,0.0*
1,1,0.0,.696201,.043421*
20,1,0.0,.696201,.043421,.7,0.0,0.0*
1,1,0.0,.7,0.0*
20,1,0.0,.7,0.0,.696201,-.043421,0.0*
1,1,0.0,.696201,-.043421*
20,1,0.0,.696201,-.043421,.68492,-.085522,0.0*
1,1,0.0,.68492,-.085522*
20,1,0.0,.68492,-.085522,.6665,-.125025,0.0*
1,1,0.0,.6665,-.125025*
20,1,0.0,.6665,-.125025,.641499,-.160729,0.0*
1,1,0.0,.641499,-.160729*
20,1,0.0,.641499,-.160729,.610679,-.191549,0.0*
1,1,0.0,.610679,-.191549*
20,1,0.0,.610679,-.191549,.574975,-.21655,0.0*
1,1,0.0,.574975,-.21655*
20,1,0.0,.574975,-.21655,.535472,-.23497,0.0*
1,1,0.0,.535472,-.23497*
20,1,0.0,.535472,-.23497,.493371,-.246251,0.0*
1,1,0.0,.493371,-.246251*
20,1,0.0,.493371,-.246251,.44995,-.25005,0.0*
1,1,0.0,.44995,-.25005*
20,1,0.0,.44995,-.25005,-.44995,-.25005,0.0*
1,1,0.0,-.44995,-.25005*
20,1,0.0,-.44995,-.25005,-.493371,-.246251,0.0*
1,1,0.0,-.493371,-.246251*
20,1,0.0,-.493371,-.246251,-.535472,-.23497,0.0*
1,1,0.0,-.535472,-.23497*
20,1,0.0,-.535472,-.23497,-.574975,-.21655,0.0*
1,1,0.0,-.574975,-.21655*
20,1,0.0,-.574975,-.21655,-.610679,-.191549,0.0*
1,1,0.0,-.610679,-.191549*
20,1,0.0,-.610679,-.191549,-.641499,-.160729,0.0*
1,1,0.0,-.641499,-.160729*
20,1,0.0,-.641499,-.160729,-.6665,-.125025,0.0*
1,1,0.0,-.6665,-.125025*
20,1,0.0,-.6665,-.125025,-.68492,-.085522,0.0*
1,1,0.0,-.68492,-.085522*
20,1,0.0,-.68492,-.085522,-.696201,-.043421,0.0*
1,1,0.0,-.696201,-.043421*
20,1,0.0,-.696201,-.043421,-.7,0.0,0.0*
1,1,0.0,-.7,0.0*
20,1,0.0,-.7,0.0,-.696201,.043421,0.0*
1,1,0.0,-.696201,.043421*
20,1,0.0,-.696201,.043421,-.68492,.085522,0.0*
1,1,0.0,-.68492,.085522*
20,1,0.0,-.68492,.085522,-.6665,.125025,0.0*
1,1,0.0,-.6665,.125025*
20,1,0.0,-.6665,.125025,-.641499,.160729,0.0*
1,1,0.0,-.641499,.160729*
20,1,0.0,-.641499,.160729,-.610679,.191549,0.0*
1,1,0.0,-.610679,.191549*
20,1,0.0,-.610679,.191549,-.574975,.21655,0.0*
1,1,0.0,-.574975,.21655*
20,1,0.0,-.574975,.21655,-.535472,.23497,0.0*
1,1,0.0,-.535472,.23497*
20,1,0.0,-.535472,.23497,-.493371,.246251,0.0*
1,1,0.0,-.493371,.246251*
20,1,0.0,-.493371,.246251,-.44995,.25005,0.0*
1,1,0.0,-.44995,.25005*
%
%ADD10MACRO10*%
%AMMACRO13*
1,1,0.0,.635,0.0*
20,1,0.0,.635,0.0,.625353,-.110267,0.0*
1,1,0.0,.625353,-.110267*
20,1,0.0,.625353,-.110267,.596705,-.217183,0.0*
1,1,0.0,.596705,-.217183*
20,1,0.0,.596705,-.217183,.549926,-.3175,0.0*
1,1,0.0,.549926,-.3175*
20,1,0.0,.549926,-.3175,.486438,-.40817,0.0*
1,1,0.0,.486438,-.40817*
20,1,0.0,.486438,-.40817,.40817,-.486438,0.0*
1,1,0.0,.40817,-.486438*
20,1,0.0,.40817,-.486438,.3175,-.549926,0.0*
1,1,0.0,.3175,-.549926*
20,1,0.0,.3175,-.549926,.217183,-.596705,0.0*
1,1,0.0,.217183,-.596705*
20,1,0.0,.217183,-.596705,.110267,-.625353,0.0*
1,1,0.0,.110267,-.625353*
20,1,0.0,.110267,-.625353,0.0,-.635,0.0*
1,1,0.0,0.0,-.635*
20,1,0.0,0.0,-.635,-.110267,-.625353,0.0*
1,1,0.0,-.110267,-.625353*
20,1,0.0,-.110267,-.625353,-.217183,-.596705,0.0*
1,1,0.0,-.217183,-.596705*
20,1,0.0,-.217183,-.596705,-.3175,-.549926,0.0*
1,1,0.0,-.3175,-.549926*
20,1,0.0,-.3175,-.549926,-.40817,-.486438,0.0*
1,1,0.0,-.40817,-.486438*
20,1,0.0,-.40817,-.486438,-.486438,-.40817,0.0*
1,1,0.0,-.486438,-.40817*
20,1,0.0,-.486438,-.40817,-.549926,-.3175,0.0*
1,1,0.0,-.549926,-.3175*
20,1,0.0,-.549926,-.3175,-.596705,-.217183,0.0*
1,1,0.0,-.596705,-.217183*
20,1,0.0,-.596705,-.217183,-.625353,-.110267,0.0*
1,1,0.0,-.625353,-.110267*
20,1,0.0,-.625353,-.110267,-.635,0.0,0.0*
1,1,0.0,-.635,0.0*
20,1,0.0,-.635,0.0,-.625353,.110267,0.0*
1,1,0.0,-.625353,.110267*
20,1,0.0,-.625353,.110267,-.596705,.217183,0.0*
1,1,0.0,-.596705,.217183*
20,1,0.0,-.596705,.217183,-.549926,.3175,0.0*
1,1,0.0,-.549926,.3175*
20,1,0.0,-.549926,.3175,-.486438,.40817,0.0*
1,1,0.0,-.486438,.40817*
20,1,0.0,-.486438,.40817,-.40817,.486438,0.0*
1,1,0.0,-.40817,.486438*
20,1,0.0,-.40817,.486438,-.3175,.549926,0.0*
1,1,0.0,-.3175,.549926*
20,1,0.0,-.3175,.549926,-.217183,.596705,0.0*
1,1,0.0,-.217183,.596705*
20,1,0.0,-.217183,.596705,-.110267,.625353,0.0*
1,1,0.0,-.110267,.625353*
20,1,0.0,-.110267,.625353,0.0,.635,0.0*
1,1,0.0,0.0,.635*
20,1,0.0,0.0,.635,.110267,.625353,0.0*
1,1,0.0,.110267,.625353*
20,1,0.0,.110267,.625353,.217183,.596705,0.0*
1,1,0.0,.217183,.596705*
20,1,0.0,.217183,.596705,.3175,.549926,0.0*
1,1,0.0,.3175,.549926*
20,1,0.0,.3175,.549926,.40817,.486438,0.0*
1,1,0.0,.40817,.486438*
20,1,0.0,.40817,.486438,.486438,.40817,0.0*
1,1,0.0,.486438,.40817*
20,1,0.0,.486438,.40817,.549926,.3175,0.0*
1,1,0.0,.549926,.3175*
20,1,0.0,.549926,.3175,.596705,.217183,0.0*
1,1,0.0,.596705,.217183*
20,1,0.0,.596705,.217183,.625353,.110267,0.0*
1,1,0.0,.625353,.110267*
20,1,0.0,.625353,.110267,.635,0.0,0.0*
1,1,0.0,.635,0.0*
1,1,0.0,.3175,0.0*
20,1,0.0,.3175,0.0,-.3175,0.0,0.0*
1,1,0.0,-.3175,0.0*
1,1,0.0,0.0,.3175*
20,1,0.0,0.0,.3175,0.0,-.3175,0.0*
1,1,0.0,0.0,-.3175*
%
%ADD13MACRO13*%
%AMMACRO11*
1,1,0.0,.533,0.0*
20,1,0.0,.533,0.0,.524903,-.092554,0.0*
1,1,0.0,.524903,-.092554*
20,1,0.0,.524903,-.092554,.500856,-.182297,0.0*
1,1,0.0,.500856,-.182297*
20,1,0.0,.500856,-.182297,.461592,-.2665,0.0*
1,1,0.0,.461592,-.2665*
20,1,0.0,.461592,-.2665,.408302,-.342606,0.0*
1,1,0.0,.408302,-.342606*
20,1,0.0,.408302,-.342606,.342606,-.408302,0.0*
1,1,0.0,.342606,-.408302*
20,1,0.0,.342606,-.408302,.2665,-.461592,0.0*
1,1,0.0,.2665,-.461592*
20,1,0.0,.2665,-.461592,.182297,-.500856,0.0*
1,1,0.0,.182297,-.500856*
20,1,0.0,.182297,-.500856,.092554,-.524903,0.0*
1,1,0.0,.092554,-.524903*
20,1,0.0,.092554,-.524903,0.0,-.533,0.0*
1,1,0.0,0.0,-.533*
20,1,0.0,0.0,-.533,-.092554,-.524903,0.0*
1,1,0.0,-.092554,-.524903*
20,1,0.0,-.092554,-.524903,-.182297,-.500856,0.0*
1,1,0.0,-.182297,-.500856*
20,1,0.0,-.182297,-.500856,-.2665,-.461592,0.0*
1,1,0.0,-.2665,-.461592*
20,1,0.0,-.2665,-.461592,-.342606,-.408302,0.0*
1,1,0.0,-.342606,-.408302*
20,1,0.0,-.342606,-.408302,-.408302,-.342606,0.0*
1,1,0.0,-.408302,-.342606*
20,1,0.0,-.408302,-.342606,-.461592,-.2665,0.0*
1,1,0.0,-.461592,-.2665*
20,1,0.0,-.461592,-.2665,-.500856,-.182297,0.0*
1,1,0.0,-.500856,-.182297*
20,1,0.0,-.500856,-.182297,-.524903,-.092554,0.0*
1,1,0.0,-.524903,-.092554*
20,1,0.0,-.524903,-.092554,-.533,0.0,0.0*
1,1,0.0,-.533,0.0*
20,1,0.0,-.533,0.0,-.524903,.092554,0.0*
1,1,0.0,-.524903,.092554*
20,1,0.0,-.524903,.092554,-.500856,.182297,0.0*
1,1,0.0,-.500856,.182297*
20,1,0.0,-.500856,.182297,-.461592,.2665,0.0*
1,1,0.0,-.461592,.2665*
20,1,0.0,-.461592,.2665,-.408302,.342606,0.0*
1,1,0.0,-.408302,.342606*
20,1,0.0,-.408302,.342606,-.342606,.408302,0.0*
1,1,0.0,-.342606,.408302*
20,1,0.0,-.342606,.408302,-.2665,.461592,0.0*
1,1,0.0,-.2665,.461592*
20,1,0.0,-.2665,.461592,-.182297,.500856,0.0*
1,1,0.0,-.182297,.500856*
20,1,0.0,-.182297,.500856,-.092554,.524903,0.0*
1,1,0.0,-.092554,.524903*
20,1,0.0,-.092554,.524903,0.0,.533,0.0*
1,1,0.0,0.0,.533*
20,1,0.0,0.0,.533,.092554,.524903,0.0*
1,1,0.0,.092554,.524903*
20,1,0.0,.092554,.524903,.182297,.500856,0.0*
1,1,0.0,.182297,.500856*
20,1,0.0,.182297,.500856,.2665,.461592,0.0*
1,1,0.0,.2665,.461592*
20,1,0.0,.2665,.461592,.342606,.408302,0.0*
1,1,0.0,.342606,.408302*
20,1,0.0,.342606,.408302,.408302,.342606,0.0*
1,1,0.0,.408302,.342606*
20,1,0.0,.408302,.342606,.461592,.2665,0.0*
1,1,0.0,.461592,.2665*
20,1,0.0,.461592,.2665,.500856,.182297,0.0*
1,1,0.0,.500856,.182297*
20,1,0.0,.500856,.182297,.524903,.092554,0.0*
1,1,0.0,.524903,.092554*
20,1,0.0,.524903,.092554,.533,0.0,0.0*
1,1,0.0,.533,0.0*
1,1,0.0,-.2221,-.2665*
20,1,0.0,-.2221,-.2665,0.0,.2665,0.0*
1,1,0.0,0.0,.2665*
20,1,0.0,0.0,.2665,.2221,-.2665,0.0*
1,1,0.0,.2221,-.2665*
1,1,0.0,.1421,-.08*
20,1,0.0,.1421,-.08,-.1421,-.08,0.0*
1,1,0.0,-.1421,-.08*
%
%ADD11MACRO11*%
%AMMACRO12*
1,1,0.0,.39345,0.0*
20,1,0.0,.39345,0.0,.387473,-.068322,0.0*
1,1,0.0,.387473,-.068322*
20,1,0.0,.387473,-.068322,.369722,-.134568,0.0*
1,1,0.0,.369722,-.134568*
20,1,0.0,.369722,-.134568,.340738,-.196725,0.0*
1,1,0.0,.340738,-.196725*
20,1,0.0,.340738,-.196725,.3014,-.252905,0.0*
1,1,0.0,.3014,-.252905*
20,1,0.0,.3014,-.252905,.252905,-.3014,0.0*
1,1,0.0,.252905,-.3014*
20,1,0.0,.252905,-.3014,.196725,-.340738,0.0*
1,1,0.0,.196725,-.340738*
20,1,0.0,.196725,-.340738,.134568,-.369722,0.0*
1,1,0.0,.134568,-.369722*
20,1,0.0,.134568,-.369722,.068322,-.387473,0.0*
1,1,0.0,.068322,-.387473*
20,1,0.0,.068322,-.387473,0.0,-.39345,0.0*
1,1,0.0,0.0,-.39345*
20,1,0.0,0.0,-.39345,-.068322,-.387473,0.0*
1,1,0.0,-.068322,-.387473*
20,1,0.0,-.068322,-.387473,-.134568,-.369722,0.0*
1,1,0.0,-.134568,-.369722*
20,1,0.0,-.134568,-.369722,-.196725,-.340738,0.0*
1,1,0.0,-.196725,-.340738*
20,1,0.0,-.196725,-.340738,-.252905,-.3014,0.0*
1,1,0.0,-.252905,-.3014*
20,1,0.0,-.252905,-.3014,-.3014,-.252905,0.0*
1,1,0.0,-.3014,-.252905*
20,1,0.0,-.3014,-.252905,-.340738,-.196725,0.0*
1,1,0.0,-.340738,-.196725*
20,1,0.0,-.340738,-.196725,-.369722,-.134568,0.0*
1,1,0.0,-.369722,-.134568*
20,1,0.0,-.369722,-.134568,-.387473,-.068322,0.0*
1,1,0.0,-.387473,-.068322*
20,1,0.0,-.387473,-.068322,-.39345,0.0,0.0*
1,1,0.0,-.39345,0.0*
20,1,0.0,-.39345,0.0,-.387473,.068322,0.0*
1,1,0.0,-.387473,.068322*
20,1,0.0,-.387473,.068322,-.369722,.134568,0.0*
1,1,0.0,-.369722,.134568*
20,1,0.0,-.369722,.134568,-.340738,.196725,0.0*
1,1,0.0,-.340738,.196725*
20,1,0.0,-.340738,.196725,-.3014,.252905,0.0*
1,1,0.0,-.3014,.252905*
20,1,0.0,-.3014,.252905,-.252905,.3014,0.0*
1,1,0.0,-.252905,.3014*
20,1,0.0,-.252905,.3014,-.196725,.340738,0.0*
1,1,0.0,-.196725,.340738*
20,1,0.0,-.196725,.340738,-.134568,.369722,0.0*
1,1,0.0,-.134568,.369722*
20,1,0.0,-.134568,.369722,-.068322,.387473,0.0*
1,1,0.0,-.068322,.387473*
20,1,0.0,-.068322,.387473,0.0,.39345,0.0*
1,1,0.0,0.0,.39345*
20,1,0.0,0.0,.39345,.068322,.387473,0.0*
1,1,0.0,.068322,.387473*
20,1,0.0,.068322,.387473,.134568,.369722,0.0*
1,1,0.0,.134568,.369722*
20,1,0.0,.134568,.369722,.196725,.340738,0.0*
1,1,0.0,.196725,.340738*
20,1,0.0,.196725,.340738,.252905,.3014,0.0*
1,1,0.0,.252905,.3014*
20,1,0.0,.252905,.3014,.3014,.252905,0.0*
1,1,0.0,.3014,.252905*
20,1,0.0,.3014,.252905,.340738,.196725,0.0*
1,1,0.0,.340738,.196725*
20,1,0.0,.340738,.196725,.369722,.134568,0.0*
1,1,0.0,.369722,.134568*
20,1,0.0,.369722,.134568,.387473,.068322,0.0*
1,1,0.0,.387473,.068322*
20,1,0.0,.387473,.068322,.39345,0.0,0.0*
1,1,0.0,.39345,0.0*
1,1,0.0,-.1639,-.1967*
20,1,0.0,-.1639,-.1967,0.0,.1967,0.0*
1,1,0.0,0.0,.1967*
20,1,0.0,0.0,.1967,.1639,-.1967,0.0*
1,1,0.0,.1639,-.1967*
1,1,0.0,.1049,-.059*
20,1,0.0,.1049,-.059,-.1049,-.059,0.0*
1,1,0.0,-.1049,-.059*
%
%ADD12MACRO12*%
%LPD*%
G75*
G54D10*
X35623500Y19871000D03*
Y20896000D03*
X35648750Y23607000D03*
X35993500Y19871000D03*
Y20896000D03*
G54D11*
X35648750Y23861000D03*
X41148000Y21336000D03*
Y21082000D03*
Y20828000D03*
Y21844000D03*
Y21590000D03*
X42354500Y22352000D03*
X42608500D03*
X42862500D03*
X43116500D03*
X43370500D03*
X45466000Y19875500D03*
Y20129500D03*
Y20383500D03*
Y20637500D03*
Y20891500D03*
G54D12*
X35648750Y24115000D03*
X38608000Y19050000D03*
Y19304000D03*
X39624000Y19050000D03*
Y19304000D03*
Y22352000D03*
X40386000D03*
X40640000Y19050000D03*
Y19304000D03*
X42291000D03*
X43053000D03*
X44640500Y22352000D03*
X44958000D03*
G54D13*
X35648750Y24369000D03*
X37209720Y19685000D03*
X37528500Y19939000D03*
X37782500Y21018500D03*
X37528500Y20828000D03*
Y21844000D03*
X37719000Y21590000D03*
X37909500Y21971000D03*
X38163500Y19685000D03*
X38417500D03*
X38581300Y19785300D03*
X38481000Y20193000D03*
X38608000Y21844000D03*
X38417500Y21590000D03*
X39038500Y20969000D03*
X39494500Y20889000D03*
X39177000D03*
X39306500Y21590000D03*
X40195500Y21971000D03*
X40685700Y21353800D03*
X40894000Y21336000D03*
X41910000Y21145500D03*
X42604700Y20069800D03*
X42418000Y20066000D03*
X42514500Y20828000D03*
X42608500Y21653500D03*
Y22161500D03*
X43370500Y19113500D03*
Y19431000D03*
X42862500Y19812000D03*
X42799000Y20066000D03*
X43307000Y20383500D03*
X43434000Y20510500D03*
X43180000Y20002500D03*
X42799000Y20637500D03*
X43434000D03*
Y21209000D03*
X43116500Y21399500D03*
X42989500Y21526500D03*
X43434000Y21653500D03*
X43116500Y22161500D03*
X42862500D03*
X43942000Y19177000D03*
X43751500Y19621500D03*
X43624500Y19431000D03*
X43751500Y20193000D03*
Y21399500D03*
M02*
