G04 ================== begin FILE IDENTIFICATION RECORD ==================*
G04 Layout Name:  C:/Users/user/Desktop/work/avrusb500/allegro/AVRUSB500_2.brd*
G04 Film Name:    metalT*
G04 File Format:  Gerber RS274X*
G04 File Origin:  Cadence Allegro 17.2-P019*
G04 Origin Date:  Mon Jul 29 15:50:18 2019*
G04 *
G04 Layer:  PIN/PASTEMASK_TOP*
G04 Layer:  PACKAGE GEOMETRY/PASTEMASK_TOP*
G04 *
G04 Offset:    (0.0000 0.0000)*
G04 Mirror:    No*
G04 Mode:      Positive*
G04 Rotation:  0*
G04 FullContactRelief:  No*
G04 UndefLineWidth:     0.0000*
G04 ================== end FILE IDENTIFICATION RECORD ====================*
%FSLAX55Y55*MOMM*%
%IR0*IPPOS*OFA0.00000B0.00000*MIA0B0*SFA1.00000B1.00000*%
%ADD11R,1.7201X.4*%
%ADD16O,.4569X1.778*%
%ADD15O,1.778X.4569*%
%ADD17R,.4569X1.778*%
%ADD14R,1.778X.4569*%
%ADD10R,1.7201X1.1001*%
%ADD13R,1.4986X2.8448*%
%ADD12R,2.8448X1.4986*%
%LPD*%
G75*
G54D10*
X35993500Y20613500D03*
Y20153500D03*
G54D11*
Y20253500D03*
Y20513500D03*
Y20318500D03*
Y20448500D03*
Y20383500D03*
G54D12*
X36068000Y21907500D03*
Y22334220D03*
G54D13*
X37129720Y19431000D03*
X36703000D03*
X37129720Y19939000D03*
X36703000D03*
X37129720Y20447000D03*
X36703000D03*
X37129720Y21018500D03*
X36703000D03*
X36720780Y21590000D03*
X37147500D03*
X36703000Y22352000D03*
X37129720D03*
X37955220Y19240500D03*
X37528500D03*
X37800280Y22415500D03*
X38608000Y22479000D03*
X38227000Y22415500D03*
X39034720Y22479000D03*
X40177720Y19939000D03*
X39751000D03*
X40177720Y20447000D03*
X39751000D03*
X40177720Y20955000D03*
X39751000D03*
X40177720Y21653500D03*
X39751000D03*
X41084500Y20193000D03*
X41511220D03*
X41955720Y22161500D03*
X41529000D03*
X44196000Y19113500D03*
Y19621500D03*
Y20129500D03*
Y20637500D03*
Y21209000D03*
X44213780Y21780500D03*
X44622720Y19113500D03*
Y19621500D03*
Y20129500D03*
Y20637500D03*
Y21209000D03*
X44640500Y21780500D03*
G54D14*
X38036500Y21209000D03*
X38886100Y20889000D03*
X42209700Y20561300D03*
X43059300Y20481300D03*
G54D15*
X38036500Y21129000D03*
Y21049000D03*
Y20969000D03*
Y20889000D03*
Y20809000D03*
Y20728900D03*
Y20648900D03*
X38886100D03*
Y20728900D03*
Y20809000D03*
Y20969000D03*
Y21049000D03*
Y21129000D03*
Y21209000D03*
X42209700Y20481300D03*
Y20401300D03*
Y20961300D03*
Y20881300D03*
Y20801300D03*
Y20721300D03*
Y20641300D03*
X43059300Y20401300D03*
Y20561300D03*
Y20641300D03*
Y20721300D03*
Y20801300D03*
Y20881300D03*
Y20961300D03*
G54D16*
X38181300Y20504200D03*
X38341300D03*
X38421300D03*
X38501300D03*
X38581300D03*
X38661300D03*
X38741300D03*
Y21353800D03*
X38661300D03*
X38581300D03*
X38501300D03*
X38421300D03*
X38261300D03*
X38181300D03*
X42434500Y20256500D03*
X42514500D03*
X42594500D03*
X42674500D03*
X42594500Y21106100D03*
X42514500D03*
X42434500D03*
X42354500D03*
X42754500Y20256500D03*
X42834600D03*
X42914600D03*
Y21106100D03*
X42834600D03*
X42754500D03*
G54D17*
X38261300Y20504200D03*
X38341300Y21353800D03*
X42354500Y20256500D03*
X42674500Y21106100D03*
M02*
