G04 ================== begin FILE IDENTIFICATION RECORD ==================*
G04 Layout Name:  C:/Users/user/Desktop/work/avrusb500/allegro/AVRUSB500_2.brd*
G04 Film Name:    Silkbottom*
G04 File Format:  Gerber RS274X*
G04 File Origin:  Cadence Allegro 17.2-P019*
G04 Origin Date:  Mon Jul 29 15:50:18 2019*
G04 *
G04 Layer:  MANUFACTURING/AUTOSILK_BOTTOM*
G04 *
G04 Offset:    (0.0000 0.0000)*
G04 Mirror:    No*
G04 Mode:      Positive*
G04 Rotation:  0*
G04 FullContactRelief:  No*
G04 UndefLineWidth:     0.0000*
G04 ================== end FILE IDENTIFICATION RECORD ====================*
%FSLAX55Y55*MOMM*%
%IR0*IPPOS*OFA0.00000B0.00000*MIA0B0*SFA1.00000B1.00000*%
%ADD10C,.2*%
G75*
%LPD*%
G75*
G54D10*
G01X36373500Y19129500D02*
X36362830Y19119500D01*
X36350830Y19113500D01*
X36340170D01*
X36329500Y19119500D01*
X36321500Y19129500D01*
X36317500Y19143500D01*
X36320170Y19157500D01*
X36326830Y19169500D01*
X36338830Y19177500D01*
X36354830Y19181500D01*
X36364170Y19189500D01*
X36368170Y19203500D01*
X36365500Y19217500D01*
X36358830Y19227500D01*
X36349500Y19233500D01*
X36340170D01*
X36330830Y19229500D01*
X36322830Y19219500D01*
G01X36250300Y19113500D02*
Y19167500D01*
X36276970Y19233500D01*
G01X36223630D02*
X36250300Y19167500D01*
G01X36181770Y19137500D02*
X36175100Y19125500D01*
X36167100Y19117500D01*
X36157770Y19113500D01*
X36147100Y19117500D01*
X36139100Y19125500D01*
X36131100Y19137500D01*
X36128430Y19153500D01*
Y19233500D01*
G01X35964700Y19113500D02*
Y19233500D01*
X35980700Y19209500D01*
G01Y19113500D02*
X35948700D01*
G01X35892170Y19127500D02*
X35882830Y19117500D01*
X35872170Y19113500D01*
X35861500Y19117500D01*
X35852170Y19129500D01*
X35845500Y19147500D01*
X35842830Y19165500D01*
Y19187500D01*
X35845500Y19205500D01*
X35852170Y19221500D01*
X35860170Y19229500D01*
X35869500Y19233500D01*
X35880170Y19229500D01*
X35888170Y19221500D01*
X35893500Y19209500D01*
X35896170Y19193500D01*
X35893500Y19179500D01*
X35886830Y19165500D01*
X35878830Y19157500D01*
X35869500Y19155500D01*
X35858830Y19159500D01*
X35850830Y19169500D01*
X35842830Y19187500D01*
G01X35774300Y19233500D02*
X35784970Y19229500D01*
X35792970Y19219500D01*
X35798300Y19207500D01*
X35802300Y19191500D01*
X35803630Y19173500D01*
X35802300Y19155500D01*
X35798300Y19139500D01*
X35792970Y19127500D01*
X35784970Y19117500D01*
X35774300Y19113500D01*
X35763630Y19117500D01*
X35755630Y19127500D01*
X35750300Y19139500D01*
X35746300Y19155500D01*
X35744970Y19173500D01*
X35746300Y19191500D01*
X35750300Y19207500D01*
X35755630Y19219500D01*
X35763630Y19229500D01*
X35774300Y19233500D01*
G01X35681770Y19113500D02*
X35679100Y19139500D01*
X35675100Y19161500D01*
X35669770Y19181500D01*
X35663100Y19203500D01*
X35652430Y19233500D01*
X35705770D01*
G01X35583900Y19113500D02*
Y19233500D01*
X35599900Y19209500D01*
G01Y19113500D02*
X35567900D01*
G01X35511370Y19127500D02*
X35502030Y19117500D01*
X35491370Y19113500D01*
X35480700Y19117500D01*
X35471370Y19129500D01*
X35464700Y19147500D01*
X35462030Y19165500D01*
Y19187500D01*
X35464700Y19205500D01*
X35471370Y19221500D01*
X35479370Y19229500D01*
X35488700Y19233500D01*
X35499370Y19229500D01*
X35507370Y19221500D01*
X35512700Y19209500D01*
X35515370Y19193500D01*
X35512700Y19179500D01*
X35506030Y19165500D01*
X35498030Y19157500D01*
X35488700Y19155500D01*
X35478030Y19159500D01*
X35470030Y19169500D01*
X35462030Y19187500D01*
M02*
