G04 ================== begin FILE IDENTIFICATION RECORD ==================*
G04 Layout Name:  C:/Users/user/Desktop/work/avrusb500/allegro/AVRUSB500_1.brd*
G04 Film Name:    SilkT*
G04 File Format:  Gerber RS274X*
G04 File Origin:  Cadence Allegro 16.6-S034*
G04 Origin Date:  Fri Jul 19 14:12:42 2019*
G04 *
G04 Layer:  REF DES/SILKSCREEN_TOP*
G04 Layer:  PACKAGE GEOMETRY/SILKSCREEN_TOP*
G04 Layer:  BOARD GEOMETRY/SILKSCREEN_TOP*
G04 *
G04 Offset:    (0.0000 0.0000)*
G04 Mirror:    No*
G04 Mode:      Positive*
G04 Rotation:  0*
G04 FullContactRelief:  No*
G04 UndefLineWidth:     0.2000*
G04 ================== end FILE IDENTIFICATION RECORD ====================*
%FSLAX55Y55*MOMM*%
%IR0*IPPOS*OFA0.00000B0.00000*MIA0B0*SFA1.00000B1.00000*%
%ADD10C,.2*%
%ADD11C,.203*%
%ADD12C,.254*%
G75*
%LPD*%
G75*
G54D10*
G01X35946830Y22525500D02*
X35938830Y22531500D01*
X35929500Y22535500D01*
X35918830D01*
X35906830Y22529500D01*
X35897500Y22519500D01*
X35890830Y22507500D01*
X35885500Y22487500D01*
X35884170Y22469500D01*
X35886830Y22451500D01*
X35890830Y22439500D01*
X35898830Y22427500D01*
X35908170Y22419500D01*
X35917500Y22415500D01*
X35926830D01*
X35936170Y22419500D01*
X35944170Y22425500D01*
X35950830Y22433500D01*
G01X35983370Y22439500D02*
X35991370Y22425500D01*
X36002030Y22417500D01*
X36014030Y22415500D01*
X36024700Y22417500D01*
X36035370Y22427500D01*
X36042030Y22439500D01*
X36043370Y22451500D01*
X36040700Y22465500D01*
X36031370Y22475500D01*
X36022030Y22479500D01*
X36010030D01*
G01X36022030D02*
X36030030Y22485500D01*
X36036700Y22495500D01*
X36039370Y22507500D01*
X36036700Y22519500D01*
X36030030Y22529500D01*
X36018030Y22535500D01*
X36006030Y22533500D01*
X35994030Y22525500D01*
G01X36679330Y19823100D02*
Y19943100D01*
X36712670D01*
X36723330Y19937100D01*
X36730000Y19929100D01*
X36732670Y19913100D01*
X36730000Y19897100D01*
X36722000Y19887100D01*
X36712670Y19881100D01*
X36679330D01*
G01X36712670D02*
X36732670Y19823100D01*
G01X36801200D02*
X36810530Y19825100D01*
X36821200Y19831100D01*
X36827870Y19841100D01*
X36830530Y19855100D01*
X36827870Y19869100D01*
X36819870Y19881100D01*
X36807870Y19887100D01*
X36794530D01*
X36786530Y19891100D01*
X36779870Y19901100D01*
X36777200Y19915100D01*
X36781200Y19929100D01*
X36790530Y19939100D01*
X36801200Y19943100D01*
X36811870Y19939100D01*
X36821200Y19929100D01*
X36825200Y19915100D01*
X36822530Y19901100D01*
X36815870Y19891100D01*
X36807870Y19887100D01*
X36794530D01*
X36782530Y19881100D01*
X36774530Y19869100D01*
X36771870Y19855100D01*
X36774530Y19841100D01*
X36781200Y19831100D01*
X36791870Y19825100D01*
X36801200Y19823100D01*
G01X36679330Y20267600D02*
Y20387600D01*
X36712670D01*
X36723330Y20381600D01*
X36730000Y20373600D01*
X36732670Y20357600D01*
X36730000Y20341600D01*
X36722000Y20331600D01*
X36712670Y20325600D01*
X36679330D01*
G01X36712670D02*
X36732670Y20267600D01*
G01X36771870Y20285600D02*
X36779870Y20275600D01*
X36789200Y20269600D01*
X36801200Y20267600D01*
X36813200Y20271600D01*
X36822530Y20279600D01*
X36829200Y20293600D01*
X36830530Y20309600D01*
X36827870Y20325600D01*
X36821200Y20335600D01*
X36811870Y20343600D01*
X36802530Y20345600D01*
X36793200Y20343600D01*
X36781200Y20335600D01*
X36785200Y20387600D01*
X36821200D01*
G01X37107670Y21324900D02*
Y21204900D01*
X37074330D01*
X37063670Y21210900D01*
X37057000Y21218900D01*
X37054330Y21234900D01*
X37057000Y21250900D01*
X37065000Y21260900D01*
X37074330Y21266900D01*
X37107670D01*
G01X37074330D02*
X37054330Y21324900D01*
G01X36985800D02*
Y21204900D01*
X37001800Y21228900D01*
G01Y21324900D02*
X36969800D01*
G01X36679330Y20648600D02*
Y20768600D01*
X36712670D01*
X36723330Y20762600D01*
X36730000Y20754600D01*
X36732670Y20738600D01*
X36730000Y20722600D01*
X36722000Y20712600D01*
X36712670Y20706600D01*
X36679330D01*
G01X36712670D02*
X36732670Y20648600D01*
G01X36775870Y20698600D02*
X36785200Y20712600D01*
X36793200Y20720600D01*
X36803870Y20724600D01*
X36813200Y20720600D01*
X36819870Y20712600D01*
X36825200Y20700600D01*
X36826530Y20686600D01*
X36825200Y20674600D01*
X36819870Y20662600D01*
X36811870Y20652600D01*
X36802530Y20648600D01*
X36791870Y20652600D01*
X36782530Y20664600D01*
X36777200Y20682600D01*
X36775870Y20702600D01*
X36778530Y20728600D01*
X36782530Y20742600D01*
X36789200Y20756600D01*
X36798530Y20766600D01*
X36807870Y20768600D01*
X36817200Y20764600D01*
X36823870Y20754600D01*
G01X36679330Y21156600D02*
Y21276600D01*
X36712670D01*
X36723330Y21270600D01*
X36730000Y21262600D01*
X36732670Y21246600D01*
X36730000Y21230600D01*
X36722000Y21220600D01*
X36712670Y21214600D01*
X36679330D01*
G01X36712670D02*
X36732670Y21156600D01*
G01X36798530D02*
X36801200Y21182600D01*
X36805200Y21204600D01*
X36810530Y21224600D01*
X36817200Y21246600D01*
X36827870Y21276600D01*
X36774530D01*
G01X36962830Y22589000D02*
X36954830Y22595000D01*
X36945500Y22599000D01*
X36934830D01*
X36922830Y22593000D01*
X36913500Y22583000D01*
X36906830Y22571000D01*
X36901500Y22551000D01*
X36900170Y22533000D01*
X36902830Y22515000D01*
X36906830Y22503000D01*
X36914830Y22491000D01*
X36924170Y22483000D01*
X36933500Y22479000D01*
X36942830D01*
X36952170Y22483000D01*
X36960170Y22489000D01*
X36966830Y22497000D01*
G01X37028700Y22479000D02*
Y22599000D01*
X37012700Y22575000D01*
G01Y22479000D02*
X37044700D01*
G01X37123900Y22599000D02*
X37113230Y22595000D01*
X37105230Y22585000D01*
X37099900Y22573000D01*
X37095900Y22557000D01*
X37094570Y22539000D01*
X37095900Y22521000D01*
X37099900Y22505000D01*
X37105230Y22493000D01*
X37113230Y22483000D01*
X37123900Y22479000D01*
X37134570Y22483000D01*
X37142570Y22493000D01*
X37147900Y22505000D01*
X37151900Y22521000D01*
X37153230Y22539000D01*
X37151900Y22557000D01*
X37147900Y22573000D01*
X37142570Y22585000D01*
X37134570Y22595000D01*
X37123900Y22599000D01*
G01X37465630Y19583900D02*
X37457630Y19589900D01*
X37448300Y19593900D01*
X37437630D01*
X37425630Y19587900D01*
X37416300Y19577900D01*
X37409630Y19565900D01*
X37404300Y19545900D01*
X37402970Y19527900D01*
X37405630Y19509900D01*
X37409630Y19497900D01*
X37417630Y19485900D01*
X37426970Y19477900D01*
X37436300Y19473900D01*
X37445630D01*
X37454970Y19477900D01*
X37462970Y19483900D01*
X37469630Y19491900D01*
G01X37547500Y19473900D02*
Y19593900D01*
X37498170Y19507900D01*
X37564830D01*
G01X38116100Y21844330D02*
X38030100D01*
X38012100Y21839000D01*
X38000100Y21828330D01*
X37996100Y21815000D01*
X38000100Y21801670D01*
X38012100Y21791000D01*
X38030100Y21785670D01*
X38116100D01*
G01X37996100Y21719800D02*
X38116100D01*
X38092100Y21735800D01*
G01X37996100D02*
Y21703800D01*
G01X39014900Y19366870D02*
X39020900Y19374870D01*
X39024900Y19384200D01*
Y19394870D01*
X39018900Y19406870D01*
X39008900Y19416200D01*
X38996900Y19422870D01*
X38976900Y19428200D01*
X38958900Y19429530D01*
X38940900Y19426870D01*
X38928900Y19422870D01*
X38916900Y19414870D01*
X38908900Y19405530D01*
X38904900Y19396200D01*
Y19386870D01*
X38908900Y19377530D01*
X38914900Y19369530D01*
X38922900Y19362870D01*
G01X38954900Y19326330D02*
X38968900Y19317000D01*
X38976900Y19309000D01*
X38980900Y19298330D01*
X38976900Y19289000D01*
X38968900Y19282330D01*
X38956900Y19277000D01*
X38942900Y19275670D01*
X38930900Y19277000D01*
X38918900Y19282330D01*
X38908900Y19290330D01*
X38904900Y19299670D01*
X38908900Y19310330D01*
X38920900Y19319670D01*
X38938900Y19325000D01*
X38958900Y19326330D01*
X38984900Y19323670D01*
X38998900Y19319670D01*
X39012900Y19313000D01*
X39022900Y19303670D01*
X39024900Y19294330D01*
X39020900Y19285000D01*
X39010900Y19278330D01*
G01X38289870Y21945100D02*
X38297870Y21939100D01*
X38307200Y21935100D01*
X38317870D01*
X38329870Y21941100D01*
X38339200Y21951100D01*
X38345870Y21963100D01*
X38351200Y21983100D01*
X38352530Y22001100D01*
X38349870Y22019100D01*
X38345870Y22031100D01*
X38337870Y22043100D01*
X38328530Y22051100D01*
X38319200Y22055100D01*
X38309870D01*
X38300530Y22051100D01*
X38292530Y22045100D01*
X38285870Y22037100D01*
G01X38224000Y22055100D02*
Y21935100D01*
X38240000Y21959100D01*
G01Y22055100D02*
X38208000D01*
G01X38804330Y22589000D02*
X38796330Y22595000D01*
X38787000Y22599000D01*
X38776330D01*
X38764330Y22593000D01*
X38755000Y22583000D01*
X38748330Y22571000D01*
X38743000Y22551000D01*
X38741670Y22533000D01*
X38744330Y22515000D01*
X38748330Y22503000D01*
X38756330Y22491000D01*
X38765670Y22483000D01*
X38775000Y22479000D01*
X38784330D01*
X38793670Y22483000D01*
X38801670Y22489000D01*
X38808330Y22497000D01*
G01X38844870Y22579000D02*
X38852870Y22591000D01*
X38862200Y22597000D01*
X38872870Y22599000D01*
X38886200Y22595000D01*
X38895530Y22585000D01*
X38898200Y22573000D01*
X38896870Y22561000D01*
X38891530Y22551000D01*
X38864870Y22531000D01*
X38852870Y22517000D01*
X38844870Y22497000D01*
X38842200Y22479000D01*
X38898200D01*
G01X40030900Y19366870D02*
X40036900Y19374870D01*
X40040900Y19384200D01*
Y19394870D01*
X40034900Y19406870D01*
X40024900Y19416200D01*
X40012900Y19422870D01*
X39992900Y19428200D01*
X39974900Y19429530D01*
X39956900Y19426870D01*
X39944900Y19422870D01*
X39932900Y19414870D01*
X39924900Y19405530D01*
X39920900Y19396200D01*
Y19386870D01*
X39924900Y19377530D01*
X39930900Y19369530D01*
X39938900Y19362870D01*
G01Y19330330D02*
X39928900Y19322330D01*
X39922900Y19313000D01*
X39920900Y19301000D01*
X39924900Y19289000D01*
X39932900Y19279670D01*
X39946900Y19273000D01*
X39962900Y19271670D01*
X39978900Y19274330D01*
X39988900Y19281000D01*
X39996900Y19290330D01*
X39998900Y19299670D01*
X39996900Y19309000D01*
X39988900Y19321000D01*
X40040900Y19317000D01*
Y19281000D01*
G01X39790830Y20204100D02*
Y20324100D01*
X39824170D01*
X39834830Y20318100D01*
X39841500Y20310100D01*
X39844170Y20294100D01*
X39841500Y20278100D01*
X39833500Y20268100D01*
X39824170Y20262100D01*
X39790830D01*
G01X39824170D02*
X39844170Y20204100D01*
G01X39912700D02*
Y20324100D01*
X39896700Y20300100D01*
G01Y20204100D02*
X39928700D01*
G01X40023900D02*
Y20324100D01*
X39974570Y20238100D01*
X40041230D01*
G01X39790830Y21220100D02*
Y21340100D01*
X39824170D01*
X39834830Y21334100D01*
X39841500Y21326100D01*
X39844170Y21310100D01*
X39841500Y21294100D01*
X39833500Y21284100D01*
X39824170Y21278100D01*
X39790830D01*
G01X39824170D02*
X39844170Y21220100D01*
G01X39883370Y21244100D02*
X39891370Y21230100D01*
X39902030Y21222100D01*
X39914030Y21220100D01*
X39924700Y21222100D01*
X39935370Y21232100D01*
X39942030Y21244100D01*
X39943370Y21256100D01*
X39940700Y21270100D01*
X39931370Y21280100D01*
X39922030Y21284100D01*
X39910030D01*
G01X39922030D02*
X39930030Y21290100D01*
X39936700Y21300100D01*
X39939370Y21312100D01*
X39936700Y21324100D01*
X39930030Y21334100D01*
X39918030Y21340100D01*
X39906030Y21338100D01*
X39894030Y21330100D01*
G01X39790830Y20712100D02*
Y20832100D01*
X39824170D01*
X39834830Y20826100D01*
X39841500Y20818100D01*
X39844170Y20802100D01*
X39841500Y20786100D01*
X39833500Y20776100D01*
X39824170Y20770100D01*
X39790830D01*
G01X39824170D02*
X39844170Y20712100D01*
G01X39928700D02*
Y20832100D01*
X39879370Y20746100D01*
X39946030D01*
G01X39790830Y21728100D02*
Y21848100D01*
X39824170D01*
X39834830Y21842100D01*
X39841500Y21834100D01*
X39844170Y21818100D01*
X39841500Y21802100D01*
X39833500Y21792100D01*
X39824170Y21786100D01*
X39790830D01*
G01X39824170D02*
X39844170Y21728100D01*
G01X39887370Y21828100D02*
X39895370Y21840100D01*
X39904700Y21846100D01*
X39915370Y21848100D01*
X39928700Y21844100D01*
X39938030Y21834100D01*
X39940700Y21822100D01*
X39939370Y21810100D01*
X39934030Y21800100D01*
X39907370Y21780100D01*
X39895370Y21766100D01*
X39887370Y21746100D01*
X39884700Y21728100D01*
X39940700D01*
G01X40940500Y19361670D02*
X40946500Y19369670D01*
X40950500Y19379000D01*
Y19389670D01*
X40944500Y19401670D01*
X40934500Y19411000D01*
X40922500Y19417670D01*
X40902500Y19423000D01*
X40884500Y19424330D01*
X40866500Y19421670D01*
X40854500Y19417670D01*
X40842500Y19409670D01*
X40834500Y19400330D01*
X40830500Y19391000D01*
Y19381670D01*
X40834500Y19372330D01*
X40840500Y19364330D01*
X40848500Y19357670D01*
G01X40844500Y19318470D02*
X40834500Y19309130D01*
X40830500Y19298470D01*
X40834500Y19287800D01*
X40846500Y19278470D01*
X40864500Y19271800D01*
X40882500Y19269130D01*
X40904500D01*
X40922500Y19271800D01*
X40938500Y19278470D01*
X40946500Y19286470D01*
X40950500Y19295800D01*
X40946500Y19306470D01*
X40938500Y19314470D01*
X40926500Y19319800D01*
X40910500Y19322470D01*
X40896500Y19319800D01*
X40882500Y19313130D01*
X40874500Y19305130D01*
X40872500Y19295800D01*
X40876500Y19285130D01*
X40886500Y19277130D01*
X40904500Y19269130D01*
G01X41237870Y20640300D02*
X41231200Y20652300D01*
X41223200Y20660300D01*
X41213870Y20664300D01*
X41203200Y20660300D01*
X41195200Y20652300D01*
X41187200Y20640300D01*
X41184530Y20624300D01*
Y20544300D01*
G01X41116000Y20664300D02*
Y20544300D01*
X41132000Y20568300D01*
G01Y20664300D02*
X41100000D01*
G01X41085130Y20472900D02*
X41077130Y20478900D01*
X41067800Y20482900D01*
X41057130D01*
X41045130Y20476900D01*
X41035800Y20466900D01*
X41029130Y20454900D01*
X41023800Y20434900D01*
X41022470Y20416900D01*
X41025130Y20398900D01*
X41029130Y20386900D01*
X41037130Y20374900D01*
X41046470Y20366900D01*
X41055800Y20362900D01*
X41065130D01*
X41074470Y20366900D01*
X41082470Y20372900D01*
X41089130Y20380900D01*
G01X41151000Y20362900D02*
X41160330Y20364900D01*
X41171000Y20370900D01*
X41177670Y20380900D01*
X41180330Y20394900D01*
X41177670Y20408900D01*
X41169670Y20420900D01*
X41157670Y20426900D01*
X41144330D01*
X41136330Y20430900D01*
X41129670Y20440900D01*
X41127000Y20454900D01*
X41131000Y20468900D01*
X41140330Y20478900D01*
X41151000Y20482900D01*
X41161670Y20478900D01*
X41171000Y20468900D01*
X41175000Y20454900D01*
X41172330Y20440900D01*
X41165670Y20430900D01*
X41157670Y20426900D01*
X41144330D01*
X41132330Y20420900D01*
X41124330Y20408900D01*
X41121670Y20394900D01*
X41124330Y20380900D01*
X41131000Y20370900D01*
X41141670Y20364900D01*
X41151000Y20362900D01*
G01X40680000Y22352000D02*
Y22406000D01*
X40653330Y22472000D01*
G01X40706670D02*
X40680000Y22406000D01*
G01X40749870Y22452000D02*
X40757870Y22464000D01*
X40767200Y22470000D01*
X40777870Y22472000D01*
X40791200Y22468000D01*
X40800530Y22458000D01*
X40803200Y22446000D01*
X40801870Y22434000D01*
X40796530Y22424000D01*
X40769870Y22404000D01*
X40757870Y22390000D01*
X40749870Y22370000D01*
X40747200Y22352000D01*
X40803200D01*
G01X41732500Y20336100D02*
X41764500D01*
G01X41748500D02*
Y20216100D01*
G01X41732500D02*
X41764500D01*
G01X41873030Y20326100D02*
X41865030Y20332100D01*
X41855700Y20336100D01*
X41845030D01*
X41833030Y20330100D01*
X41823700Y20320100D01*
X41817030Y20308100D01*
X41811700Y20288100D01*
X41810370Y20270100D01*
X41813030Y20252100D01*
X41817030Y20240100D01*
X41825030Y20228100D01*
X41834370Y20220100D01*
X41843700Y20216100D01*
X41853030D01*
X41862370Y20220100D01*
X41870370Y20226100D01*
X41877030Y20234100D01*
G01X41938900Y20216100D02*
Y20336100D01*
X41922900Y20312100D01*
G01Y20216100D02*
X41954900D01*
G01X41593130Y22314400D02*
X41585130Y22320400D01*
X41575800Y22324400D01*
X41565130D01*
X41553130Y22318400D01*
X41543800Y22308400D01*
X41537130Y22296400D01*
X41531800Y22276400D01*
X41530470Y22258400D01*
X41533130Y22240400D01*
X41537130Y22228400D01*
X41545130Y22216400D01*
X41554470Y22208400D01*
X41563800Y22204400D01*
X41573130D01*
X41582470Y22208400D01*
X41590470Y22214400D01*
X41597130Y22222400D01*
G01X41656330Y22204400D02*
X41659000Y22230400D01*
X41663000Y22252400D01*
X41668330Y22272400D01*
X41675000Y22294400D01*
X41685670Y22324400D01*
X41632330D01*
G01X42452800Y19569100D02*
Y19623100D01*
X42426130Y19689100D01*
G01X42479470D02*
X42452800Y19623100D01*
G01X42548000Y19569100D02*
Y19689100D01*
X42532000Y19665100D01*
G01Y19569100D02*
X42564000D01*
G01X43193330Y22630000D02*
X43200000Y22618000D01*
X43208000Y22610000D01*
X43217330Y22606000D01*
X43228000Y22610000D01*
X43236000Y22618000D01*
X43244000Y22630000D01*
X43246670Y22646000D01*
Y22726000D01*
G01X43331200Y22606000D02*
Y22726000D01*
X43281870Y22640000D01*
X43348530D01*
G01X44235830Y19759600D02*
Y19879600D01*
X44269170D01*
X44279830Y19873600D01*
X44286500Y19865600D01*
X44289170Y19849600D01*
X44286500Y19833600D01*
X44278500Y19823600D01*
X44269170Y19817600D01*
X44235830D01*
G01X44269170D02*
X44289170Y19759600D01*
G01X44357700D02*
Y19879600D01*
X44341700Y19855600D01*
G01Y19759600D02*
X44373700D01*
G01X44452900D02*
Y19879600D01*
X44436900Y19855600D01*
G01Y19759600D02*
X44468900D01*
G01X44235830Y19315100D02*
Y19435100D01*
X44269170D01*
X44279830Y19429100D01*
X44286500Y19421100D01*
X44289170Y19405100D01*
X44286500Y19389100D01*
X44278500Y19379100D01*
X44269170Y19373100D01*
X44235830D01*
G01X44269170D02*
X44289170Y19315100D01*
G01X44335030Y19329100D02*
X44344370Y19319100D01*
X44355030Y19315100D01*
X44365700Y19319100D01*
X44375030Y19331100D01*
X44381700Y19349100D01*
X44384370Y19367100D01*
Y19389100D01*
X44381700Y19407100D01*
X44375030Y19423100D01*
X44367030Y19431100D01*
X44357700Y19435100D01*
X44347030Y19431100D01*
X44339030Y19423100D01*
X44333700Y19411100D01*
X44331030Y19395100D01*
X44333700Y19381100D01*
X44340370Y19367100D01*
X44348370Y19359100D01*
X44357700Y19357100D01*
X44368370Y19361100D01*
X44376370Y19371100D01*
X44384370Y19389100D01*
G01X44235830Y20267600D02*
Y20387600D01*
X44269170D01*
X44279830Y20381600D01*
X44286500Y20373600D01*
X44289170Y20357600D01*
X44286500Y20341600D01*
X44278500Y20331600D01*
X44269170Y20325600D01*
X44235830D01*
G01X44269170D02*
X44289170Y20267600D01*
G01X44357700D02*
Y20387600D01*
X44341700Y20363600D01*
G01Y20267600D02*
X44373700D01*
G01X44427570Y20367600D02*
X44435570Y20379600D01*
X44444900Y20385600D01*
X44455570Y20387600D01*
X44468900Y20383600D01*
X44478230Y20373600D01*
X44480900Y20361600D01*
X44479570Y20349600D01*
X44474230Y20339600D01*
X44447570Y20319600D01*
X44435570Y20305600D01*
X44427570Y20285600D01*
X44424900Y20267600D01*
X44480900D01*
G01X44235830Y20775600D02*
Y20895600D01*
X44269170D01*
X44279830Y20889600D01*
X44286500Y20881600D01*
X44289170Y20865600D01*
X44286500Y20849600D01*
X44278500Y20839600D01*
X44269170Y20833600D01*
X44235830D01*
G01X44269170D02*
X44289170Y20775600D01*
G01X44357700D02*
Y20895600D01*
X44341700Y20871600D01*
G01Y20775600D02*
X44373700D01*
G01X44423570Y20799600D02*
X44431570Y20785600D01*
X44442230Y20777600D01*
X44454230Y20775600D01*
X44464900Y20777600D01*
X44475570Y20787600D01*
X44482230Y20799600D01*
X44483570Y20811600D01*
X44480900Y20825600D01*
X44471570Y20835600D01*
X44462230Y20839600D01*
X44450230D01*
G01X44462230D02*
X44470230Y20845600D01*
X44476900Y20855600D01*
X44479570Y20867600D01*
X44476900Y20879600D01*
X44470230Y20889600D01*
X44458230Y20895600D01*
X44446230Y20893600D01*
X44434230Y20885600D01*
G01X44235830Y21283600D02*
Y21403600D01*
X44269170D01*
X44279830Y21397600D01*
X44286500Y21389600D01*
X44289170Y21373600D01*
X44286500Y21357600D01*
X44278500Y21347600D01*
X44269170Y21341600D01*
X44235830D01*
G01X44269170D02*
X44289170Y21283600D01*
G01X44357700D02*
Y21403600D01*
X44341700Y21379600D01*
G01Y21283600D02*
X44373700D01*
G01X44423570Y21301600D02*
X44431570Y21291600D01*
X44440900Y21285600D01*
X44452900Y21283600D01*
X44464900Y21287600D01*
X44474230Y21295600D01*
X44480900Y21309600D01*
X44482230Y21325600D01*
X44479570Y21341600D01*
X44472900Y21351600D01*
X44463570Y21359600D01*
X44454230Y21361600D01*
X44444900Y21359600D01*
X44432900Y21351600D01*
X44436900Y21403600D01*
X44472900D01*
G01X44984330Y22055100D02*
Y21935100D01*
X44957670D01*
X44947000Y21941100D01*
X44939000Y21949100D01*
X44932330Y21961100D01*
X44927000Y21975100D01*
X44925670Y21995100D01*
X44927000Y22015100D01*
X44932330Y22029100D01*
X44939000Y22041100D01*
X44947000Y22049100D01*
X44957670Y22055100D01*
X44984330D01*
G01X44859800D02*
Y21935100D01*
X44875800Y21959100D01*
G01Y22055100D02*
X44843800D01*
G01X45376130Y21079200D02*
X45382800Y21067200D01*
X45390800Y21059200D01*
X45400130Y21055200D01*
X45410800Y21059200D01*
X45418800Y21067200D01*
X45426800Y21079200D01*
X45429470Y21095200D01*
Y21175200D01*
G01X45468670Y21079200D02*
X45476670Y21065200D01*
X45487330Y21057200D01*
X45499330Y21055200D01*
X45510000Y21057200D01*
X45520670Y21067200D01*
X45527330Y21079200D01*
X45528670Y21091200D01*
X45526000Y21105200D01*
X45516670Y21115200D01*
X45507330Y21119200D01*
X45495330D01*
G01X45507330D02*
X45515330Y21125200D01*
X45522000Y21135200D01*
X45524670Y21147200D01*
X45522000Y21159200D01*
X45515330Y21169200D01*
X45503330Y21175200D01*
X45491330Y21173200D01*
X45479330Y21165200D01*
G01X36316200Y20906730D02*
X36309850Y20903350D01*
X36305620Y20899290D01*
X36303500Y20894550D01*
X36305620Y20889140D01*
X36309850Y20885080D01*
X36316200Y20881020D01*
X36324670Y20879670D01*
X36367000D01*
G01X36356420Y20850260D02*
X36362770Y20846200D01*
X36365940Y20841460D01*
X36367000Y20836050D01*
X36364880Y20829280D01*
X36359590Y20824540D01*
X36353240Y20823190D01*
X36346890Y20823870D01*
X36341600Y20826570D01*
X36331020Y20840110D01*
X36323610Y20846200D01*
X36313020Y20850260D01*
X36303500Y20851610D01*
Y20823190D01*
G54D11*
G01X36290200Y22352000D02*
G02I-285700J0D01*
G01X36576000Y19685000D02*
X36512500D01*
G01X36576000Y19558000D02*
Y19685000D01*
G01D02*
Y19812000D01*
G01D02*
X37211000D01*
G01Y19558000D02*
X36576000D01*
G01Y20129500D02*
X36512500D01*
G01X36576000Y20002500D02*
Y20129500D01*
G01D02*
Y20256500D01*
G01D02*
X37211000D01*
G01Y20002500D02*
X36576000D01*
G01Y20510500D02*
X36512500D01*
G01X36576000Y20383500D02*
Y20510500D01*
G01D02*
Y20637500D01*
G01X37211000Y20383500D02*
X36576000D01*
G01X37211000Y21336000D02*
X36576000D01*
G01D02*
Y21463000D01*
G01Y20637500D02*
X37211000D01*
G01X36576000Y21018500D02*
X36512500D01*
G01X36576000Y20891500D02*
Y21018500D01*
G01D02*
Y21145500D01*
G01D02*
X37211000D01*
G01Y20891500D02*
X36576000D01*
G01Y21463000D02*
X36512500D01*
G01X36576000D02*
Y21590000D01*
G01D02*
X37211000D01*
G01Y19685000D02*
X37274500D01*
G01X37211000Y19812000D02*
Y19685000D01*
G01D02*
Y19558000D01*
G01Y20129500D02*
X37274500D01*
G01X37211000Y20256500D02*
Y20129500D01*
G01D02*
Y20002500D01*
G01Y20510500D02*
X37274500D01*
G01X37211000Y20637500D02*
Y20510500D01*
G01D02*
Y20383500D01*
G01Y21463000D02*
Y21336000D01*
G01Y21018500D02*
X37274500D01*
G01X37211000Y21145500D02*
Y21018500D01*
G01D02*
Y20891500D01*
G01X37306200Y22352000D02*
G02I-285700J0D01*
G01X37211000Y21463000D02*
X37274500D01*
G01X37211000Y21590000D02*
Y21463000D01*
G01X37941200Y19177000D02*
G02I-285700J0D01*
G01X38385700Y22352000D02*
G02I-285700J0D01*
G01X38893700Y19177000D02*
G02I-285700J0D01*
G01X39147700Y22352000D02*
G02I-285700J0D01*
G01X39909700Y19177000D02*
G02I-285700J0D01*
G01X39687500Y20066000D02*
X39624000D01*
G01X39687500Y20574000D02*
X39624000D01*
G01X39687500Y21082000D02*
X39624000D01*
G01X39687500Y21590000D02*
X39624000D01*
G01X40576500Y22098000D02*
X39433500D01*
G01D02*
Y22606000D01*
G01D02*
X40576500D01*
G01X40925700Y19177000D02*
G02I-285700J0D01*
G01X40322500Y20066000D02*
X40386000D01*
G01X39687500Y19939000D02*
Y20066000D01*
G01D02*
Y20193000D01*
G01D02*
X40322500D01*
G01D02*
Y20066000D01*
G01D02*
Y19939000D01*
G01D02*
X39687500D01*
G01X40322500Y20574000D02*
X40386000D01*
G01X39687500Y20447000D02*
Y20574000D01*
G01D02*
Y20701000D01*
G01X40322500D02*
Y20574000D01*
G01D02*
Y20447000D01*
G01D02*
X39687500D01*
G01X40322500Y21082000D02*
X40386000D01*
G01X39687500Y20955000D02*
Y21082000D01*
G01D02*
Y21209000D01*
G01D02*
X40322500D01*
G01D02*
Y21082000D01*
G01D02*
Y20955000D01*
G01D02*
X39687500D01*
G01Y20701000D02*
X40322500D01*
G01Y21590000D02*
X40386000D01*
G01X39687500Y21463000D02*
Y21590000D01*
G01D02*
Y21717000D01*
G01D02*
X40322500D01*
G01D02*
Y21590000D01*
G01D02*
Y21463000D01*
G01D02*
X39687500D01*
G01X41560700Y20066000D02*
G02I-285700J0D01*
G01X41021000Y20688300D02*
Y21983700D01*
G01X41275000Y20688300D02*
X41021000D01*
G01Y21983700D02*
X41275000D01*
G01X40576500Y22606000D02*
Y22098000D01*
G01X41275000Y20828000D02*
Y20688300D01*
G01Y21082000D02*
Y20828000D01*
G01Y21336000D02*
Y21082000D01*
G01Y21590000D02*
Y21336000D01*
G01Y21844000D02*
Y21590000D01*
G01Y21983700D02*
Y21844000D01*
G01X42068700Y21907500D02*
G02I-285700J0D01*
G01X43243500Y19050000D02*
X42100500D01*
G01D02*
Y19558000D01*
G01D02*
X43243500D01*
G01X42214800Y22225000D02*
Y22479000D01*
G01X43510200Y22225000D02*
X42214800D01*
G01X42608500Y22479000D02*
X42862500D01*
G01X42354500D02*
X42608500D01*
G01X42214800D02*
X42354500D01*
G01X43243500Y19558000D02*
Y19050000D01*
G01X43370500Y22479000D02*
X43510200D01*
G01X43116500D02*
X43370500D01*
G01X42862500D02*
X43116500D01*
G01X44132500Y19050000D02*
Y19177000D01*
G01X44767500Y19050000D02*
X44132500D01*
G01Y19621500D02*
X44069000D01*
G01X44132500Y19494500D02*
Y19621500D01*
G01D02*
Y19748500D01*
G01D02*
X44767500D01*
G01Y19494500D02*
X44132500D01*
G01Y19177000D02*
X44069000D01*
G01X44132500D02*
Y19304000D01*
G01D02*
X44767500D01*
G01X44132500Y20510500D02*
Y20637500D01*
G01X44767500Y20510500D02*
X44132500D01*
G01Y20129500D02*
X44069000D01*
G01X44132500Y20002500D02*
Y20129500D01*
G01D02*
Y20256500D01*
G01D02*
X44767500D01*
G01Y20002500D02*
X44132500D01*
G01Y20637500D02*
X44069000D01*
G01X44132500D02*
Y20764500D01*
G01D02*
X44767500D01*
G01X44132500Y21145500D02*
X44069000D01*
G01X44132500Y21018500D02*
Y21145500D01*
G01D02*
Y21272500D01*
G01D02*
X44767500D01*
G01Y21018500D02*
X44132500D01*
G01Y21653500D02*
X44069000D01*
G01X44767500Y21526500D02*
X44132500D01*
G01D02*
Y21653500D01*
G01D02*
Y21780500D01*
G01D02*
X44767500D01*
G01X43510200Y22479000D02*
Y22225000D01*
G01X44767500Y19177000D02*
Y19050000D01*
G01Y19621500D02*
X44831000D01*
G01X44767500Y19748500D02*
Y19621500D01*
G01D02*
Y19494500D01*
G01Y19177000D02*
X44831000D01*
G01X44767500Y19304000D02*
Y19177000D01*
G01Y20637500D02*
Y20510500D01*
G01Y20129500D02*
X44831000D01*
G01X44767500Y20256500D02*
Y20129500D01*
G01D02*
Y20002500D01*
G01Y20637500D02*
X44831000D01*
G01X44767500Y20764500D02*
Y20637500D01*
G01Y21145500D02*
X44831000D01*
G01X44767500Y21272500D02*
Y21145500D01*
G01D02*
Y21018500D01*
G01X45116700Y22352000D02*
G02X44799300Y22034500I-317400J-100D01*
G02Y22669500I0J317500D01*
G02X45116700Y22352000I0J-317400D01*
G01X44767500Y21653500D02*
X44831000D01*
G01X44767500Y21780500D02*
Y21653500D01*
G01D02*
Y21526500D01*
G01X45593000Y19735800D02*
X45339000D01*
G01X45593000Y21031200D02*
Y19735800D01*
G01X45339000D02*
Y19875500D01*
G01Y20383500D02*
Y20637500D01*
G01Y20129500D02*
Y20383500D01*
G01Y19875500D02*
Y20129500D01*
G01Y21031200D02*
X45593000D01*
G01X45339000Y20891500D02*
Y21031200D01*
G01Y20637500D02*
Y20891500D01*
G54D12*
G01X37969200Y21278300D02*
X38111900D01*
G01X42285200Y20189200D02*
Y20331900D01*
M02*
