G04 ================== begin FILE IDENTIFICATION RECORD ==================*
G04 Layout Name:  C:/Users/user/Desktop/work/avrusb500/allegro/AVRUSB500_2.brd*
G04 Film Name:    Silktop*
G04 File Format:  Gerber RS274X*
G04 File Origin:  Cadence Allegro 17.2-P019*
G04 Origin Date:  Mon Jul 29 15:50:18 2019*
G04 *
G04 Layer:  MANUFACTURING/AUTOSILK_TOP*
G04 *
G04 Offset:    (0.0000 0.0000)*
G04 Mirror:    No*
G04 Mode:      Positive*
G04 Rotation:  0*
G04 FullContactRelief:  No*
G04 UndefLineWidth:     0.0000*
G04 ================== end FILE IDENTIFICATION RECORD ====================*
%FSLAX55Y55*MOMM*%
%IR0*IPPOS*OFA0.00000B0.00000*MIA0B0*SFA1.00000B1.00000*%
%ADD10C,.2*%
%ADD11C,.203*%
%ADD12C,.254*%
%ADD13C,.1524*%
G75*
%LPD*%
G75*
G54D10*
G01X36289800Y20868130D02*
X36296470Y20856130D01*
X36304470Y20848130D01*
X36313800Y20844130D01*
X36324470Y20848130D01*
X36332470Y20856130D01*
X36340470Y20868130D01*
X36343140Y20884130D01*
Y20964130D01*
G01X36382340Y20862130D02*
X36390340Y20852130D01*
X36399670Y20846130D01*
X36411670Y20844130D01*
X36423670Y20848130D01*
X36433000Y20856130D01*
X36439670Y20870130D01*
X36441000Y20886130D01*
X36438340Y20902130D01*
X36431670Y20912130D01*
X36422340Y20920130D01*
X36413000Y20922130D01*
X36403670Y20920130D01*
X36391670Y20912130D01*
X36395670Y20964130D01*
X36431670D01*
G01X37959170Y21847400D02*
Y21761400D01*
X37964500Y21743400D01*
X37975170Y21731400D01*
X37988500Y21727400D01*
X38001830Y21731400D01*
X38012500Y21743400D01*
X38017830Y21761400D01*
Y21847400D01*
G01X38083700Y21727400D02*
Y21847400D01*
X38067700Y21823400D01*
G01Y21727400D02*
X38099700D01*
G01X39015530Y19329700D02*
X39007530Y19335700D01*
X38998200Y19339700D01*
X38987530D01*
X38975530Y19333700D01*
X38966200Y19323700D01*
X38959530Y19311700D01*
X38954200Y19291700D01*
X38952870Y19273700D01*
X38955530Y19255700D01*
X38959530Y19243700D01*
X38967530Y19231700D01*
X38976870Y19223700D01*
X38986200Y19219700D01*
X38995530D01*
X39004870Y19223700D01*
X39012870Y19229700D01*
X39019530Y19237700D01*
G01X39056070Y19269700D02*
X39065400Y19283700D01*
X39073400Y19291700D01*
X39084070Y19295700D01*
X39093400Y19291700D01*
X39100070Y19283700D01*
X39105400Y19271700D01*
X39106730Y19257700D01*
X39105400Y19245700D01*
X39100070Y19233700D01*
X39092070Y19223700D01*
X39082730Y19219700D01*
X39072070Y19223700D01*
X39062730Y19235700D01*
X39057400Y19253700D01*
X39056070Y19273700D01*
X39058730Y19299700D01*
X39062730Y19313700D01*
X39069400Y19327700D01*
X39078730Y19337700D01*
X39088070Y19339700D01*
X39097400Y19335700D01*
X39104070Y19325700D01*
G01X40031530Y19329700D02*
X40023530Y19335700D01*
X40014200Y19339700D01*
X40003530D01*
X39991530Y19333700D01*
X39982200Y19323700D01*
X39975530Y19311700D01*
X39970200Y19291700D01*
X39968870Y19273700D01*
X39971530Y19255700D01*
X39975530Y19243700D01*
X39983530Y19231700D01*
X39992870Y19223700D01*
X40002200Y19219700D01*
X40011530D01*
X40020870Y19223700D01*
X40028870Y19229700D01*
X40035530Y19237700D01*
G01X40068070D02*
X40076070Y19227700D01*
X40085400Y19221700D01*
X40097400Y19219700D01*
X40109400Y19223700D01*
X40118730Y19231700D01*
X40125400Y19245700D01*
X40126730Y19261700D01*
X40124070Y19277700D01*
X40117400Y19287700D01*
X40108070Y19295700D01*
X40098730Y19297700D01*
X40089400Y19295700D01*
X40077400Y19287700D01*
X40081400Y19339700D01*
X40117400D01*
G01X41090330Y19350500D02*
X41082330Y19356500D01*
X41073000Y19360500D01*
X41062330D01*
X41050330Y19354500D01*
X41041000Y19344500D01*
X41034330Y19332500D01*
X41029000Y19312500D01*
X41027670Y19294500D01*
X41030330Y19276500D01*
X41034330Y19264500D01*
X41042330Y19252500D01*
X41051670Y19244500D01*
X41061000Y19240500D01*
X41070330D01*
X41079670Y19244500D01*
X41087670Y19250500D01*
X41094330Y19258500D01*
G01X41133530Y19254500D02*
X41142870Y19244500D01*
X41153530Y19240500D01*
X41164200Y19244500D01*
X41173530Y19256500D01*
X41180200Y19274500D01*
X41182870Y19292500D01*
Y19314500D01*
X41180200Y19332500D01*
X41173530Y19348500D01*
X41165530Y19356500D01*
X41156200Y19360500D01*
X41145530Y19356500D01*
X41137530Y19348500D01*
X41132200Y19336500D01*
X41129530Y19320500D01*
X41132200Y19306500D01*
X41138870Y19292500D01*
X41146870Y19284500D01*
X41156200Y19282500D01*
X41166870Y19286500D01*
X41174870Y19296500D01*
X41182870Y19314500D01*
G01X41000430Y20519400D02*
X41007100Y20507400D01*
X41015100Y20499400D01*
X41024430Y20495400D01*
X41035100Y20499400D01*
X41043100Y20507400D01*
X41051100Y20519400D01*
X41053770Y20535400D01*
Y20615400D01*
G01X41122300Y20495400D02*
Y20615400D01*
X41106300Y20591400D01*
G01Y20495400D02*
X41138300D01*
G01X40680000Y22352000D02*
Y22406000D01*
X40653330Y22472000D01*
G01X40706670D02*
X40680000Y22406000D01*
G01X40749870Y22452000D02*
X40757870Y22464000D01*
X40767200Y22470000D01*
X40777870Y22472000D01*
X40791200Y22468000D01*
X40800530Y22458000D01*
X40803200Y22446000D01*
X40801870Y22434000D01*
X40796530Y22424000D01*
X40769870Y22404000D01*
X40757870Y22390000D01*
X40749870Y22370000D01*
X40747200Y22352000D01*
X40803200D01*
G01X42541700Y19658000D02*
Y19712000D01*
X42515030Y19778000D01*
G01X42568370D02*
X42541700Y19712000D01*
G01X42636900Y19658000D02*
Y19778000D01*
X42620900Y19754000D01*
G01Y19658000D02*
X42652900D01*
G01X42569000Y21964000D02*
X42601000D01*
G01X42585000D02*
Y21844000D01*
G01X42569000D02*
X42601000D01*
G01X42709530Y21954000D02*
X42701530Y21960000D01*
X42692200Y21964000D01*
X42681530D01*
X42669530Y21958000D01*
X42660200Y21948000D01*
X42653530Y21936000D01*
X42648200Y21916000D01*
X42646870Y21898000D01*
X42649530Y21880000D01*
X42653530Y21868000D01*
X42661530Y21856000D01*
X42670870Y21848000D01*
X42680200Y21844000D01*
X42689530D01*
X42698870Y21848000D01*
X42706870Y21854000D01*
X42713530Y21862000D01*
G01X42775400Y21844000D02*
Y21964000D01*
X42759400Y21940000D01*
G01Y21844000D02*
X42791400D01*
G01X43193330Y22630000D02*
X43200000Y22618000D01*
X43208000Y22610000D01*
X43217330Y22606000D01*
X43228000Y22610000D01*
X43236000Y22618000D01*
X43244000Y22630000D01*
X43246670Y22646000D01*
Y22726000D01*
G01X43331200Y22606000D02*
Y22726000D01*
X43281870Y22640000D01*
X43348530D01*
G01X44270170Y22352000D02*
Y22472000D01*
X44296830D01*
X44307500Y22466000D01*
X44315500Y22458000D01*
X44322170Y22446000D01*
X44327500Y22432000D01*
X44328830Y22412000D01*
X44327500Y22392000D01*
X44322170Y22378000D01*
X44315500Y22366000D01*
X44307500Y22358000D01*
X44296830Y22352000D01*
X44270170D01*
G01X44394700D02*
Y22472000D01*
X44378700Y22448000D01*
G01Y22352000D02*
X44410700D01*
G01X45376130Y21079200D02*
X45382800Y21067200D01*
X45390800Y21059200D01*
X45400130Y21055200D01*
X45410800Y21059200D01*
X45418800Y21067200D01*
X45426800Y21079200D01*
X45429470Y21095200D01*
Y21175200D01*
G01X45468670Y21079200D02*
X45476670Y21065200D01*
X45487330Y21057200D01*
X45499330Y21055200D01*
X45510000Y21057200D01*
X45520670Y21067200D01*
X45527330Y21079200D01*
X45528670Y21091200D01*
X45526000Y21105200D01*
X45516670Y21115200D01*
X45507330Y21119200D01*
X45495330D01*
G01X45507330D02*
X45515330Y21125200D01*
X45522000Y21135200D01*
X45524670Y21147200D01*
X45522000Y21159200D01*
X45515330Y21169200D01*
X45503330Y21175200D01*
X45491330Y21173200D01*
X45479330Y21165200D01*
G54D11*
G01X38608000Y18891300D02*
G03X38893700Y19177000I0J285700D01*
G01X38322300D02*
G03X38608000Y18891300I285700J0D01*
G01Y19462700D02*
G03X38322300Y19177000I0J-285700D01*
G01X38893700D02*
G03X38608000Y19462700I-285700J0D01*
G01X39624000Y18891300D02*
G03X39909700Y19177000I0J285700D01*
G01X39338300D02*
G03X39624000Y18891300I285700J0D01*
G01Y19462700D02*
G03X39338300Y19177000I0J-285700D01*
G01X39909700D02*
G03X39624000Y19462700I-285700J0D01*
G01X40576500Y22098000D02*
X39433500D01*
G01D02*
Y22606000D01*
G01D02*
X40576500D01*
G01X40354300Y19177000D02*
G03X40640000Y18891300I285700J0D01*
G01Y19462700D02*
G03X40354300Y19177000I0J-285700D01*
G01X40640000Y18891300D02*
G03X40925700Y19177000I0J285700D01*
G01D02*
G03X40640000Y19462700I-285700J0D01*
G01X41021000Y20688300D02*
Y21983700D01*
G01X41275000Y20688300D02*
X41021000D01*
G01Y21983700D02*
X41275000D01*
G01X40576500Y22606000D02*
Y22098000D01*
G01X41275000Y20828000D02*
Y20688300D01*
G01Y21082000D02*
Y20828000D01*
G01Y21336000D02*
Y21082000D01*
G01Y21590000D02*
Y21336000D01*
G01Y21844000D02*
Y21590000D01*
G01Y21983700D02*
Y21844000D01*
G01X42100500Y19050000D02*
Y19558000D01*
G01X43243500Y19050000D02*
X42100500D01*
G01Y19558000D02*
X43243500D01*
G01X42214800Y22225000D02*
Y22479000D01*
G01X43510200Y22225000D02*
X42214800D01*
G01X42608500Y22479000D02*
X42862500D01*
G01X42354500D02*
X42608500D01*
G01X42214800D02*
X42354500D01*
G01X43243500Y19558000D02*
Y19050000D01*
G01X43370500Y22479000D02*
X43510200D01*
G01X43116500D02*
X43370500D01*
G01X42862500D02*
X43116500D01*
G01X43510200D02*
Y22225000D01*
G01X44799300Y22669500D02*
G03Y22034500I0J-317500D01*
G01D02*
G03X45116700Y22352000I0J317400D01*
G01D02*
G03X44799300Y22669500I-317400J100D01*
G01X45593000Y19735800D02*
X45339000D01*
G01X45593000Y21031200D02*
Y19735800D01*
G01X45339000D02*
Y19875500D01*
G01Y20383500D02*
Y20637500D01*
G01Y20129500D02*
Y20383500D01*
G01Y19875500D02*
Y20129500D01*
G01Y21031200D02*
X45593000D01*
G01X45339000Y20891500D02*
Y21031200D01*
G01Y20637500D02*
Y20891500D01*
G54D12*
G01X37969200Y21278300D02*
X38111900D01*
G01X42285200Y20189200D02*
Y20331900D01*
G54D13*
G01X36568380Y19227800D02*
Y19634200D01*
G01D02*
X37264340D01*
G01Y19227800D02*
X36568380D01*
G01Y19735800D02*
Y20142200D01*
G01X37264340Y19735800D02*
X36568380D01*
G01Y20142200D02*
X37264340D01*
G01X36568380Y20243800D02*
Y20650200D01*
G01X37264340Y20243800D02*
X36568380D01*
G01Y20650200D02*
X37264340D01*
G01X36568380Y20815300D02*
Y21221700D01*
G01D02*
X37264340D01*
G01Y20815300D02*
X36568380D01*
G01X36271200Y21772880D02*
X35864800D01*
G01D02*
Y22468840D01*
G01X36271200D02*
Y21772880D01*
G01X36568380Y22148800D02*
Y22555200D01*
G01D02*
X37264340D01*
G01Y22148800D02*
X36568380D01*
G01X35864800Y22468840D02*
X36271200D01*
G01X37264340Y19634200D02*
Y19227800D01*
G01Y20142200D02*
Y19735800D01*
G01Y20650200D02*
Y20243800D01*
G01Y21221700D02*
Y20815300D01*
G01X37282120Y21793200D02*
Y21386800D01*
G01D02*
X36586160D01*
G01D02*
Y21793200D01*
G01D02*
X37282120D01*
G01X37264340Y22555200D02*
Y22148800D01*
G01X37393880Y19037300D02*
Y19443700D01*
G01X38089840D02*
Y19037300D01*
G01D02*
X37393880D01*
G01Y19443700D02*
X38089840D01*
G01X38361620Y22212300D02*
X37665660D01*
G01D02*
Y22618700D01*
G01D02*
X38361620D01*
G01D02*
Y22212300D01*
G01X38473380Y22275800D02*
Y22682200D01*
G01D02*
X39169340D01*
G01Y22275800D02*
X38473380D01*
G01X39616380Y19735800D02*
Y20142200D01*
G01X40312340Y19735800D02*
X39616380D01*
G01Y20243800D02*
Y20650200D01*
G01X40312340Y20243800D02*
X39616380D01*
G01Y20142200D02*
X40312340D01*
G01X39616380Y20650200D02*
X40312340D01*
G01X39616380Y20751800D02*
Y21158200D01*
G01D02*
X40312340D01*
G01Y20751800D02*
X39616380D01*
G01Y21450300D02*
Y21856700D01*
G01D02*
X40312340D01*
G01Y21450300D02*
X39616380D01*
G01X39169340Y22682200D02*
Y22275800D01*
G01X40312340Y20142200D02*
Y19735800D01*
G01Y20650200D02*
Y20243800D01*
G01Y21158200D02*
Y20751800D01*
G01Y21856700D02*
Y21450300D01*
G01X40949880Y19989800D02*
Y20396200D01*
G01D02*
X41645840D01*
G01Y19989800D02*
X40949880D01*
G01X41645840Y20396200D02*
Y19989800D01*
G01X41394380Y21958300D02*
Y22364700D01*
G01X42090340Y21958300D02*
X41394380D01*
G01Y22364700D02*
X42090340D01*
G01D02*
Y21958300D01*
G01X44061380Y18910300D02*
Y19316700D01*
G01X44757340Y18910300D02*
X44061380D01*
G01Y19418300D02*
Y19824700D01*
G01X44757340Y19418300D02*
X44061380D01*
G01Y19316700D02*
X44757340D01*
G01X44061380Y19824700D02*
X44757340D01*
G01X44061380Y19926300D02*
Y20332700D01*
G01D02*
X44757340D01*
G01Y19926300D02*
X44061380D01*
G01Y20434300D02*
Y20840700D01*
G01X44757340Y20434300D02*
X44061380D01*
G01Y20840700D02*
X44757340D01*
G01X44061380Y21005800D02*
Y21412200D01*
G01X44757340Y21005800D02*
X44061380D01*
G01Y21412200D02*
X44757340D01*
G01X44775120Y21577300D02*
X44079160D01*
G01D02*
Y21983700D01*
G01D02*
X44775120D01*
G01X44757340Y19316700D02*
Y18910300D01*
G01Y19824700D02*
Y19418300D01*
G01Y20332700D02*
Y19926300D01*
G01Y20840700D02*
Y20434300D01*
G01Y21412200D02*
Y21005800D01*
G01X44775120Y21983700D02*
Y21577300D01*
M02*
