G04 ================== begin FILE IDENTIFICATION RECORD ==================*
G04 Layout Name:  C:/Users/user/Desktop/work/avrusb500/allegro/AVRUSB500_1.brd*
G04 Film Name:    solderB*
G04 File Format:  Gerber RS274X*
G04 File Origin:  Cadence Allegro 16.6-S034*
G04 Origin Date:  Fri Jul 19 14:12:42 2019*
G04 *
G04 Layer:  VIA CLASS/SOLDERMASK_BOTTOM*
G04 Layer:  PIN/SOLDERMASK_BOTTOM*
G04 Layer:  PACKAGE GEOMETRY/SOLDERMASK_BOTTOM*
G04 Layer:  BOARD GEOMETRY/SOLDERMASK_BOTTOM*
G04 *
G04 Offset:    (0.0000 0.0000)*
G04 Mirror:    No*
G04 Mode:      Positive*
G04 Rotation:  0*
G04 FullContactRelief:  No*
G04 UndefLineWidth:     0.0000*
G04 ================== end FILE IDENTIFICATION RECORD ====================*
%FSLAX55Y55*MOMM*%
%IR0*IPPOS*OFA0.00000B0.00000*MIA0B0*SFA1.00000B1.00000*%
%ADD10O,1.8999X1.1999*%
%ADD12C,1.3211*%
%ADD13C,1.118*%
%ADD11R,1.3211X1.3211*%
%ADD14C,1.5751*%
%ADD15R,1.5751X1.5751*%
%LPD*%
G75*
G54D10*
X35623500Y19871000D03*
Y20896000D03*
X35993500Y19871000D03*
Y20896000D03*
G54D11*
X35877500Y22352000D03*
X36893500D03*
X37528500Y19177000D03*
X38608000Y19304000D03*
X38735000Y22352000D03*
X38227000D03*
X39624000Y19304000D03*
X40640000D03*
X41148000Y20066000D03*
X41656000Y21907500D03*
X44958000Y22352000D03*
G54D12*
X36385500Y19685000D03*
Y20129500D03*
Y20510500D03*
Y21018500D03*
Y21463000D03*
X36131500Y22352000D03*
X37401500Y19685000D03*
Y20129500D03*
Y20510500D03*
Y21018500D03*
Y21463000D03*
X37147500Y22352000D03*
X37782500Y19177000D03*
X37973000Y22352000D03*
X38608000Y19050000D03*
X39624000D03*
X39497000Y20066000D03*
Y20574000D03*
Y21082000D03*
Y21590000D03*
X38989000Y22352000D03*
X39624000D03*
X40386000D03*
X40640000Y19050000D03*
X40513000Y20066000D03*
Y20574000D03*
Y21082000D03*
Y21590000D03*
X41402000Y20066000D03*
X41910000Y21907500D03*
X42291000Y19304000D03*
X43053000D03*
X43942000Y19621500D03*
Y19177000D03*
Y20637500D03*
Y20129500D03*
Y21145500D03*
Y21653500D03*
X44958000Y19621500D03*
Y19177000D03*
Y20637500D03*
Y20129500D03*
Y21145500D03*
Y21653500D03*
X44640500Y22352000D03*
G54D13*
X36195000Y21945600D03*
X35877500Y22034500D03*
Y22542500D03*
X36893500Y22606000D03*
X37528500Y19939000D03*
X37782500Y21018500D03*
X37528500Y20828000D03*
Y21844000D03*
X37719000Y21590000D03*
X38036500Y21399500D03*
X37909500Y21971000D03*
X38163500Y19685000D03*
X38417500D03*
X38581300Y19785300D03*
X38481000Y20193000D03*
X38181300Y20218400D03*
X38608000Y21844000D03*
X38417500Y21590000D03*
X38163500Y21717000D03*
X38227000Y22644100D03*
X39038500Y20969000D03*
X39494500Y20889000D03*
X39177000D03*
X39306500Y21590000D03*
X41148000Y20157460D03*
X40685700Y21353800D03*
X40894000Y21336000D03*
X41402000Y20447000D03*
Y20828000D03*
X41910000Y21145500D03*
X42604700Y20069800D03*
X42418000Y20066000D03*
X42514500Y20828000D03*
X42608500Y21653500D03*
X42483210Y21399500D03*
X42608500Y22161500D03*
X43370500Y19113500D03*
Y19431000D03*
X42862500Y19812000D03*
X42799000Y20066000D03*
X43307000Y20383500D03*
X43434000Y20510500D03*
X43180000Y20002500D03*
X43434000Y20637500D03*
Y21209000D03*
X42799000Y20637500D03*
X43116500Y21399500D03*
X42989500Y21526500D03*
X43434000Y21653500D03*
X43116500Y22161500D03*
X42862500D03*
X43751500Y19621500D03*
X43624500Y19431000D03*
X43751500Y20193000D03*
Y21399500D03*
G54D14*
X41148000Y21336000D03*
Y21082000D03*
Y21844000D03*
Y21590000D03*
X42354500Y22352000D03*
X42608500D03*
X42862500D03*
X43116500D03*
X45466000Y19875500D03*
Y20129500D03*
Y20383500D03*
Y20637500D03*
G54D15*
X41148000Y20828000D03*
X43370500Y22352000D03*
X45466000Y20891500D03*
M02*
