G04 ================== begin FILE IDENTIFICATION RECORD ==================*
G04 Layout Name:  C:/Users/user/Desktop/work/avrusb500/allegro/AVRUSB500_2.brd*
G04 Film Name:    solderT*
G04 File Format:  Gerber RS274X*
G04 File Origin:  Cadence Allegro 17.2-P019*
G04 Origin Date:  Mon Jul 29 16:02:11 2019*
G04 *
G04 Layer:  VIA CLASS/SOLDERMASK_TOP*
G04 Layer:  PIN/SOLDERMASK_TOP*
G04 Layer:  PACKAGE GEOMETRY/SOLDERMASK_TOP*
G04 Layer:  BOARD GEOMETRY/SOLDERMASK_TOP*
G04 *
G04 Offset:    (0.0000 0.0000)*
G04 Mirror:    No*
G04 Mode:      Positive*
G04 Rotation:  0*
G04 FullContactRelief:  No*
G04 UndefLineWidth:     0.0000*
G04 ================== end FILE IDENTIFICATION RECORD ====================*
%FSLAX55Y55*MOMM*%
%IR0*IPPOS*OFA0.00000B0.00000*MIA0B0*SFA1.00000B1.00000*%
%ADD10O,1.8999X1.1999*%
%ADD12R,1.7201X.4*%
%ADD20O,.4569X1.778*%
%ADD17O,1.778X.4569*%
%ADD21R,.4569X1.778*%
%ADD16R,1.778X.4569*%
%ADD11R,1.7201X1.1001*%
%ADD18C,1.3211*%
%ADD15C,1.118*%
%ADD19R,1.3211X1.3211*%
%ADD22C,1.5751*%
%ADD23R,1.5751X1.5751*%
%ADD14R,1.4986X2.8448*%
%ADD13R,2.8448X1.4986*%
%LPD*%
G75*
G54D10*
X35623500Y19871000D03*
Y20896000D03*
X35993500Y19871000D03*
Y20896000D03*
G54D11*
Y20613500D03*
Y20153500D03*
G54D20*
X38181300Y20504200D03*
X38341300D03*
X38421300D03*
X38501300D03*
X38581300D03*
X38661300D03*
X38741300D03*
Y21353800D03*
X38661300D03*
X38581300D03*
X38501300D03*
X38421300D03*
X38261300D03*
X38181300D03*
X42434500Y20256500D03*
X42514500D03*
X42594500D03*
X42674500D03*
X42594500Y21106100D03*
X42514500D03*
X42434500D03*
X42354500D03*
X42754500Y20256500D03*
X42834600D03*
X42914600D03*
Y21106100D03*
X42834600D03*
X42754500D03*
G54D21*
X38261300Y20504200D03*
X38341300Y21353800D03*
X42354500Y20256500D03*
X42674500Y21106100D03*
G54D12*
X35993500Y20253500D03*
Y20513500D03*
Y20318500D03*
Y20448500D03*
Y20383500D03*
G54D13*
X36068000Y21907500D03*
Y22334220D03*
G54D22*
X41148000Y21336000D03*
Y21082000D03*
Y21844000D03*
Y21590000D03*
X42354500Y22352000D03*
X42608500D03*
X42862500D03*
X43116500D03*
X45466000Y19875500D03*
Y20129500D03*
Y20383500D03*
Y20637500D03*
G54D14*
X37129720Y19431000D03*
X36703000D03*
X37129720Y19939000D03*
X36703000D03*
X37129720Y20447000D03*
X36703000D03*
X37129720Y21018500D03*
X36703000D03*
X36720780Y21590000D03*
X37147500D03*
X36703000Y22352000D03*
X37129720D03*
X37955220Y19240500D03*
X37528500D03*
X37800280Y22415500D03*
X38608000Y22479000D03*
X38227000Y22415500D03*
X39034720Y22479000D03*
X40177720Y19939000D03*
X39751000D03*
X40177720Y20447000D03*
X39751000D03*
X40177720Y20955000D03*
X39751000D03*
X40177720Y21653500D03*
X39751000D03*
X41084500Y20193000D03*
X41511220D03*
X41955720Y22161500D03*
X41529000D03*
X44196000Y19113500D03*
Y19621500D03*
Y20129500D03*
Y20637500D03*
Y21209000D03*
X44213780Y21780500D03*
X44622720Y19113500D03*
Y19621500D03*
Y20129500D03*
Y20637500D03*
Y21209000D03*
X44640500Y21780500D03*
G54D23*
X41148000Y20828000D03*
X43370500Y22352000D03*
X45466000Y20891500D03*
G54D15*
X37209720Y19685000D03*
X37528500Y19939000D03*
X37782500Y21018500D03*
X37528500Y20828000D03*
Y21844000D03*
X37719000Y21590000D03*
X37909500Y21971000D03*
X38163500Y19685000D03*
X38417500D03*
X38581300Y19785300D03*
X38481000Y20193000D03*
X38608000Y21844000D03*
X38417500Y21590000D03*
X39038500Y20969000D03*
X39494500Y20889000D03*
X39177000D03*
X39306500Y21590000D03*
X40195500Y21971000D03*
X40685700Y21353800D03*
X40894000Y21336000D03*
X41910000Y21145500D03*
X42604700Y20069800D03*
X42418000Y20066000D03*
X42514500Y20828000D03*
X42608500Y21653500D03*
Y22161500D03*
X43370500Y19113500D03*
Y19431000D03*
X42862500Y19812000D03*
X42799000Y20066000D03*
X43307000Y20383500D03*
X43434000Y20510500D03*
X43180000Y20002500D03*
X42799000Y20637500D03*
X43434000D03*
Y21209000D03*
X43116500Y21399500D03*
X42989500Y21526500D03*
X43434000Y21653500D03*
X43116500Y22161500D03*
X42862500D03*
X43942000Y19177000D03*
X43751500Y19621500D03*
X43624500Y19431000D03*
X43751500Y20193000D03*
Y21399500D03*
G54D16*
X38036500Y21209000D03*
X38886100Y20889000D03*
X42209700Y20561300D03*
X43059300Y20481300D03*
G54D17*
X38036500Y21129000D03*
Y21049000D03*
Y20969000D03*
Y20889000D03*
Y20809000D03*
Y20728900D03*
Y20648900D03*
X38886100D03*
Y20728900D03*
Y20809000D03*
Y20969000D03*
Y21049000D03*
Y21129000D03*
Y21209000D03*
X42209700Y20481300D03*
Y20401300D03*
Y20961300D03*
Y20881300D03*
Y20801300D03*
Y20721300D03*
Y20641300D03*
X43059300Y20401300D03*
Y20561300D03*
Y20641300D03*
Y20721300D03*
Y20801300D03*
Y20881300D03*
Y20961300D03*
G54D18*
X38608000Y19050000D03*
X39624000D03*
Y22352000D03*
X40386000D03*
X40640000Y19050000D03*
X42291000Y19304000D03*
X43053000D03*
X44640500Y22352000D03*
G54D19*
X38608000Y19304000D03*
X39624000D03*
X40640000D03*
X44958000Y22352000D03*
M02*
