G04 ================== begin FILE IDENTIFICATION RECORD ==================*
G04 Layout Name:  C:/Users/user/Desktop/work/avrusb500/allegro/AVRUSB500_1.brd*
G04 Film Name:    TOP*
G04 File Format:  Gerber RS274X*
G04 File Origin:  Cadence Allegro 16.6-S034*
G04 Origin Date:  Fri Jul 19 14:13:03 2019*
G04 *
G04 Layer:  ETCH/TOP*
G04 Layer:  PIN/TOP*
G04 Layer:  VIA CLASS/TOP*
G04 *
G04 Offset:    (0.0000 0.0000)*
G04 Mirror:    No*
G04 Mode:      Positive*
G04 Rotation:  0*
G04 FullContactRelief:  No*
G04 UndefLineWidth:     0.0000*
G04 ================== end FILE IDENTIFICATION RECORD ====================*
%FSLAX55Y55*MOMM*%
%IR0*IPPOS*OFA0.00000B0.00000*MIA0B0*SFA1.00000B1.00000*%
%ADD10O,1.8999X1.1999*%
%ADD14R,1.7201X.4*%
%ADD15C,.61*%
%ADD18O,.4569X1.778*%
%ADD17O,1.778X.4569*%
%ADD19R,.4569X1.778*%
%ADD16R,1.778X.4569*%
%ADD13R,1.7201X1.1001*%
%ADD12C,1.3211*%
%ADD11R,1.3211X1.3211*%
%ADD20C,1.5751*%
%ADD21R,1.5751X1.5751*%
%ADD22C,.254*%
%ADD23C,.381*%
%ADD24C,.382*%
%ADD30R,.6572X1.9784*%
%ADD26R,1.9784X.6572*%
%ADD31O,2.1004X1.4004*%
%ADD29C,1.5756*%
%ADD25C,1.8296*%
%ADD27R,1.5756X1.5756*%
%ADD28R,1.8296X1.8296*%
G75*
%LPD*%
G75*
G36*
G01X45751990Y18842010D02*
X35352010D01*
Y22741990D01*
X45751990D01*
Y18842010D01*
G37*
%LPC*%
G75*
G36*
G01X45041160Y19138880D02*
G02Y19215120I-83160J38120D01*
G01X45551810D01*
X45618380Y19281690D01*
Y20850310D01*
X45615310Y20853380D01*
X45570180D01*
Y20787320D01*
X45361820D01*
Y20853380D01*
X45196210D01*
X44989890Y21059700D01*
X44986910Y21058710D01*
G02X45041160Y21183620I-28910J86792D01*
G01X45170810D01*
X45237380Y21250190D01*
Y22564810D01*
X45234310Y22567880D01*
X43449790D01*
X43408620Y22526710D01*
Y22456180D01*
X43474680D01*
Y22247820D01*
X43408620D01*
Y22082210D01*
X43322790Y21996380D01*
X42433790D01*
X42265620Y21828210D01*
Y21383710D01*
X42075120Y21193210D01*
Y20170690D01*
X42078190Y20167620D01*
X42313310D01*
X42316380Y20170690D01*
Y20256500D01*
G02X42321640Y20275810I38117J-12D01*
G01Y20355420D01*
X42387360D01*
Y20275810D01*
G02X42391610Y20265220I-32851J-19332D01*
G01X42392530Y20261300D01*
X42401640D01*
Y20322560D01*
G02X42467360I32860J-5D01*
G01Y20190440D01*
G02X42457220Y20166700I-32863J1D01*
G01Y20128990D01*
X42440720Y20112490D01*
Y20099550D01*
G02X42395280I-22720J-33550D01*
G01Y20117240D01*
G03X42377940Y20124430I-10160J2D01*
G01X42344890Y20091380D01*
X42046610D01*
X41998880Y20139110D01*
Y21224790D01*
X42189380Y21415290D01*
Y21859790D01*
X42402210Y22072620D01*
X43291210D01*
X43332380Y22113790D01*
Y22247820D01*
X43266320D01*
Y22456180D01*
X43332380D01*
Y22558290D01*
X43418210Y22644120D01*
X45265890D01*
X45313620Y22596390D01*
Y21218610D01*
X45202390Y21107380D01*
X45074560D01*
G03X45067370Y21090040I-2J-10160D01*
G01X45227790Y20929620D01*
X45361820D01*
Y20995680D01*
X45570180D01*
Y20929620D01*
X45646890D01*
X45694620Y20881890D01*
Y19250110D01*
X45583390Y19138880D01*
X45041160D01*
G37*
G36*
G01X36537920Y19342080D02*
X35407580D01*
Y21170920D01*
X36361490D01*
G03X36368680Y21188260I2J10160D01*
G01X36340980Y21215960D01*
Y21383080D01*
G02X36430020I44520J79920D01*
G01Y21253520D01*
X37774240D01*
X37934240Y21093520D01*
X37947740D01*
X37950780Y21102670D01*
G02X37970440Y21161860I19668J26327D01*
G01X38102560D01*
G02Y21096140I-5J-32860D01*
G01X38062800D01*
X38060100Y21086750D01*
G02X38066530Y21081860I-23622J-37733D01*
G01X38102560D01*
G02X38116790Y21078620I1J-32863D01*
G01X38117830Y21078120D01*
X38626440D01*
X38642380Y21094060D01*
Y21217240D01*
X38632180Y21227440D01*
Y21272470D01*
X38631680Y21273510D01*
G02X38628440Y21287740I29623J14229D01*
G01Y21349000D01*
X38619330D01*
X38618410Y21345080D01*
G02X38614160Y21334490I-37102J8742D01*
G01Y21287740D01*
G02X38548440I-32860J5D01*
G01Y21334490D01*
G02X38546000Y21339400I32828J19375D01*
G03X38536600I-4700J-1916D01*
G02X38534160Y21334490I-35268J14465D01*
G01Y21287740D01*
G02X38468440I-32860J5D01*
G01Y21334490D01*
G02X38466570Y21338080I32824J19380D01*
G01X38465220Y21341060D01*
X38456860D01*
Y21287740D01*
G02X38385740I-35560J5D01*
G01Y21419860D01*
G02X38445970Y21445470I35563J-7D01*
G03X38463180Y21452790I7050J7317D01*
G01Y21553850D01*
G03X38445900Y21561100I-10160J2D01*
G02X38412260Y21549820I-28402J28900D01*
G01X38409780Y21550140D01*
X38364020Y21504390D01*
Y21452720D01*
X38374160D01*
Y21254880D01*
X38308440D01*
Y21452720D01*
X38318580D01*
Y21523210D01*
X38377640Y21582280D01*
X38377320Y21584760D01*
G02X38445900Y21618900I40180J5239D01*
G03X38463180Y21626150I7120J7248D01*
G01Y22197590D01*
X38528710Y22263120D01*
X38656220D01*
Y22430780D01*
X38813780D01*
Y22263120D01*
X38924710D01*
G03X38931130Y22281150I-4J10160D01*
G02X38950880Y22435160I57870J70850D01*
G01Y22494790D01*
X39036710Y22580620D01*
X40338290D01*
X40424120Y22494790D01*
Y22435160D01*
G02X40347880I-38120J-83160D01*
G01Y22463210D01*
X40306710Y22504380D01*
X39068290D01*
X39027120Y22463210D01*
Y22435160D01*
G02Y22268840I-38120J-83160D01*
G01Y22234610D01*
X38979390Y22186880D01*
X38560290D01*
X38539420Y22166010D01*
Y21797960D01*
G03X38556760Y21790770I10160J-2D01*
G01X38569320Y21803330D01*
X38566150Y21806910D01*
G02X38648910Y21882120I41849J37089D01*
G01X39201810D01*
X39204880Y21885190D01*
Y22304290D01*
X39290710Y22390120D01*
X39540840D01*
G02Y22313880I83160J-38120D01*
G01X39322290D01*
X39281120Y22272710D01*
Y21853610D01*
X39233390Y21805880D01*
X38648910D01*
G02X38646120Y21803090I-40910J38120D01*
G01Y21772310D01*
X38619420Y21745610D01*
Y21448920D01*
G03X38637070Y21442060I10159J3D01*
G02X38694160Y21419860I24226J-22206D01*
G01Y21358600D01*
X38703270D01*
X38704190Y21362520D01*
G02X38708440Y21373110I37102J-8742D01*
G01Y21419860D01*
G02X38774160I32860J-5D01*
G01Y21391920D01*
X40644790D01*
G02X40734140Y21325860I40909J-38124D01*
G03X40742940Y21310620I8798J-5080D01*
G01X40751210D01*
X40814710Y21374120D01*
X40853090D01*
G02X40854520Y21296400I40911J-38120D01*
G01X40853030Y21297880D01*
X40846290D01*
X40782790Y21234380D01*
X39385790D01*
X39322290Y21170880D01*
X38981220D01*
G03X38974360Y21153230I3J-10159D01*
G02X38952160Y21096140I-22206J-24226D01*
G01X38820040D01*
G02Y21161860I5J32860D01*
G01X38881300D01*
Y21170970D01*
X38877380Y21171890D01*
G02X38866790Y21176140I8742J37102D01*
G01X38820040D01*
G02Y21241860I5J32860D01*
G01X38866790D01*
G02X38886100Y21247120I19322J-32857D01*
G01X39290710D01*
X39341930Y21298340D01*
G03X39334740Y21315680I-7188J7180D01*
G01X38774160D01*
Y21287740D01*
G02X38708440I-32860J5D01*
G01Y21334490D01*
G02X38704190Y21345080I32852J19332D01*
G01X38703270Y21349000D01*
X38694160D01*
Y21287740D01*
G02X38690920Y21273510I-32863J-1D01*
G01X38690420Y21272470D01*
Y21251560D01*
X38700620Y21241360D01*
Y21069940D01*
X38650560Y21019880D01*
X38117830D01*
X38116790Y21019380D01*
G02X38102560Y21016140I-14229J29623D01*
G01X38066530D01*
G02X38065620Y21015320I-30253J32659D01*
G01Y21002680D01*
G02X38066530Y21001860I-29343J-33479D01*
G01X38102560D01*
G02Y20936140I-5J-32860D01*
G01X38066530D01*
G02X38060100Y20931250I-30052J32843D01*
G01X38062800Y20921860D01*
X38102560D01*
G02Y20856140I-5J-32860D01*
G01X38055810D01*
G02X38050900Y20853700I-19375J32828D01*
G03Y20844300I1916J-4700D01*
G02X38055810Y20841860I-14465J-35268D01*
G01X38102560D01*
G02Y20776140I-5J-32860D01*
G01X38055810D01*
G02X38050790Y20773660I-19348J32843D01*
G03Y20764240I1903J-4710D01*
G02X38055810Y20761760I-14328J-35323D01*
G01X38102560D01*
G02Y20696040I-5J-32860D01*
G01X38055810D01*
G02X38050900Y20693600I-19375J32828D01*
G03Y20684200I1916J-4700D01*
G02X38055810Y20681760I-14465J-35268D01*
G01X38102560D01*
G02Y20616040I-5J-32860D01*
G01X38055810D01*
G02X38036500Y20610780I-19322J32857D01*
G01X37874490D01*
X37863090Y20599380D01*
X37861790D01*
X37820620Y20558210D01*
Y20210730D01*
X37815520Y20205630D01*
Y20172110D01*
X37734790Y20091380D01*
X37484660D01*
G02Y20167620I-83160J38120D01*
G01X37703210D01*
X37739280Y20203690D01*
Y20237210D01*
X37744380Y20242310D01*
Y20589790D01*
X37830210Y20675620D01*
X37831510D01*
X37838000Y20682110D01*
G03X37834410Y20690780I-3594J3590D01*
G01X37724590D01*
X37693620Y20659810D01*
Y20558210D01*
X37607790Y20472380D01*
X37484660D01*
G02X37363380Y20593660I-83160J38120D01*
G01Y20685210D01*
X37322210Y20726380D01*
X36537920D01*
Y19342080D01*
G37*
G36*
G01X39413840Y20104120D02*
G02Y20027880I83160J-38120D01*
G01X39290710D01*
X39204880Y20113710D01*
Y20621710D01*
X39135810Y20690780D01*
X38985090D01*
G03X38977770Y20673570I-3J-10160D01*
G02X38952160Y20613340I-25617J-24667D01*
G01X38820040D01*
G02Y20684460I5J35560D01*
G01X38873360D01*
Y20692820D01*
X38870380Y20694170D01*
G02X38866790Y20696040I15790J34694D01*
G01X38820040D01*
G02Y20761760I5J32860D01*
G01X38866790D01*
G02X38871810Y20764240I19348J-32843D01*
G03Y20773660I-1903J4710D01*
G02X38866790Y20776140I14328J35323D01*
G01X38820040D01*
G02Y20841860I5J32860D01*
G01X38866790D01*
G02X38871700Y20844300I19375J-32828D01*
G03Y20853700I-1916J4700D01*
G02X38866790Y20856140I14465J35268D01*
G01X38787180D01*
Y20921860D01*
X38866790D01*
G02X38877380Y20926110I19332J-32851D01*
G01X38881300Y20927030D01*
Y20936140D01*
X38820040D01*
G02Y21001860I5J32860D01*
G01X38952160D01*
G02X38975900Y20991720I-1J-32863D01*
G01X39004950D01*
G02X39070100Y20943640I33557J-22709D01*
G03X39078030Y20927120I7924J-6360D01*
G01X39136090D01*
G02X39226060Y20862160I40911J-38122D01*
G03X39234970Y20847120I8910J-4881D01*
G01X39277790D01*
X39344620Y20780290D01*
Y20615190D01*
X39347690Y20612120D01*
X39413840D01*
G02Y20535880I83160J-38120D01*
G01X39316110D01*
X39298460Y20553530D01*
G03X39281120Y20546340I-7180J-7188D01*
G01Y20145290D01*
X39322290Y20104120D01*
X39413840D01*
G37*
G36*
G01X42839560Y20065380D02*
X42839440Y20063460D01*
G02X42796460Y20106440I-40440J2540D01*
G01X42798380Y20106560D01*
X42805480Y20113660D01*
Y20175170D01*
X42804980Y20176210D01*
G02X42801740Y20190440I29623J14229D01*
G01Y20322560D01*
G02X42804980Y20336790I32863J1D01*
G01X42805480Y20337830D01*
Y20376440D01*
X42761540Y20420380D01*
X42700640D01*
X42645380Y20475640D01*
Y21007180D01*
X42641640D01*
Y21076070D01*
G02X42636750Y21082500I32843J30052D01*
G01X42627360Y21079800D01*
Y21040040D01*
G02X42561640I-32860J5D01*
G01Y21172160D01*
G02X42613840Y21198730I32864J-4D01*
G03X42629980Y21206940I5981J8212D01*
G01Y21469860D01*
X42617860Y21481980D01*
X42505620D01*
X42495840Y21491760D01*
X42491480D01*
X42436980Y21546260D01*
Y21697240D01*
X42564760Y21825020D01*
X43515940D01*
X43642940Y21698020D01*
X43862080D01*
G02Y21608980I79920J-44520D01*
G01X43606060D01*
X43479060Y21735980D01*
X42601640D01*
X42591720Y21726060D01*
G03X42600380Y21708830I7189J-7178D01*
G02X42649410Y21691620I8115J-55328D01*
G01X43393090D01*
G02Y21615380I40910J-38120D01*
G01X42792620D01*
Y21320360D01*
G03X42809960Y21313170I10160J-2D01*
G01X42951380Y21454590D01*
Y21485590D01*
G02X43030410Y21564620I38120J40910D01*
G01X43741890D01*
X43789620Y21516890D01*
Y21440410D01*
G02X43713380I-38120J-40910D01*
G01Y21485310D01*
X43710310Y21488380D01*
X43030410D01*
G02X43027620Y21485590I-40910J38120D01*
G01Y21440290D01*
G03X43036290Y21436700I5080J4D01*
G01X43037210Y21437620D01*
X43075590D01*
G02X43157410I40910J-38120D01*
G01X43424390D01*
X43472120Y21389890D01*
Y21222760D01*
X43472390Y21221970D01*
G02X43395610I-38390J-12970D01*
G01X43395880Y21222760D01*
Y21358310D01*
X43392810Y21361380D01*
X43157410D01*
G02X43077020Y21359900I-40910J38121D01*
G01X43075530Y21361380D01*
X43068790D01*
X42964120Y21256710D01*
Y21216010D01*
X42952720Y21204610D01*
Y21106100D01*
G02X42947460Y21086790I-38117J12D01*
G01Y21040040D01*
G02X42881740I-32860J5D01*
G01Y21086790D01*
G02X42879300Y21091700I32828J19375D01*
G03X42869900I-4700J-1916D01*
G02X42867460Y21086790I-35268J14465D01*
G01Y21040040D01*
G02X42801740I-32860J5D01*
G01Y21086790D01*
G02X42799260Y21091810I32842J19347D01*
G03X42789840I-4710J-1903D01*
G02X42787360Y21086790I-35322J14327D01*
G01Y21040040D01*
G02X42721640I-32860J5D01*
G01Y21079800D01*
X42712250Y21082500D01*
G02X42707360Y21076070I-37733J23622D01*
G01Y21007180D01*
X42703620D01*
Y20499760D01*
X42724760Y20478620D01*
X42785660D01*
X42863720Y20400560D01*
Y20337830D01*
X42864220Y20336790D01*
G02X42867460Y20322560I-29623J-14229D01*
G01Y20190440D01*
G02X42864220Y20176210I-32863J-1D01*
G01X42863720Y20175170D01*
Y20089540D01*
X42839560Y20065380D01*
G37*
G36*
G01X42596980Y20109660D02*
X42599460Y20109980D01*
G02X42564520Y20075040I5240J-40180D01*
G01X42564840Y20077520D01*
X42522280Y20120090D01*
Y20144340D01*
X42508520Y20158100D01*
X42507100Y20158420D01*
G02X42481640Y20190440I7405J32020D01*
G01Y20322560D01*
G02X42547360I32860J-5D01*
G01Y20190440D01*
G02X42547130Y20186500I-32864J-58D01*
G01X42546830Y20184050D01*
X42558000Y20172880D01*
X42563710Y20178580D01*
X42562890Y20181450D01*
G02X42561640Y20190440I31613J8978D01*
G01Y20322560D01*
G02X42627360I32860J-5D01*
G01Y20190440D01*
G02X42581800Y20160130I-32864J3D01*
G03X42567720Y20150760I-3921J-9371D01*
G01Y20138910D01*
X42596980Y20109660D01*
G37*
G36*
G01X38525520Y20226840D02*
G02X38436480I-44520J-33840D01*
G01Y20381640D01*
X38456780Y20401940D01*
Y20415440D01*
X38447630Y20418480D01*
G02X38388440Y20438140I-26327J19668D01*
G01Y20570260D01*
G02X38454160I32860J-5D01*
G01Y20530500D01*
X38463550Y20527800D01*
G02X38468440Y20534230I37734J-23622D01*
G01Y20570260D01*
G02X38534160I32860J-5D01*
G01Y20534230D01*
G02X38536620Y20531300I-32833J-30064D01*
G03X38545740Y20534390I4038J3086D01*
G01Y20570260D01*
G02X38616860I35560J-5D01*
G01Y20438140D01*
G02X38561610Y20408530I-35563J6D01*
G03X38545820Y20400070I-5630J-8458D01*
G01Y20365060D01*
X38525520Y20344760D01*
Y20226840D01*
G37*
G36*
G01X43125360Y20848440D02*
X42993240D01*
G02Y20914160I5J32860D01*
G01X43054500D01*
Y20923270D01*
X43050580Y20924190D01*
G02X43039990Y20928440I8742J37101D01*
G01X42993240D01*
G02Y20994160I5J32860D01*
G01X43039990D01*
G02X43059300Y20999420I19322J-32857D01*
G01X43551510D01*
X43735710Y21183620D01*
X43858840D01*
G02Y21107380I83160J-38120D01*
G01X43767290D01*
X43583090Y20923180D01*
X43154420D01*
G03X43147560Y20905530I3J-10159D01*
G02X43125360Y20848440I-22206J-24226D01*
G37*
G36*
G01X42550060Y21040040D02*
G02X42478940I-35560J5D01*
G01Y21093360D01*
X42470580D01*
X42469230Y21090380D01*
G02X42467360Y21086790I-34694J15790D01*
G01Y21040040D01*
G02X42401640I-32860J5D01*
G01Y21086790D01*
G02X42397390Y21097380I32851J19332D01*
G01X42396470Y21101300D01*
X42387360D01*
Y21040040D01*
G02X42321640I-32860J5D01*
G01Y21172160D01*
G02X42378730Y21194360I32864J-6D01*
G03X42396380Y21201220I7491J6863D01*
G01Y21212760D01*
X42316380Y21292760D01*
Y21859790D01*
X42402210Y21945620D01*
X43354710D01*
X43522880Y22113790D01*
Y22367790D01*
X43608710Y22453620D01*
X44501330D01*
X44550800Y22404150D01*
G03X44566230Y22405410I7179J7188D01*
G02X44557340Y22313880I74270J-53410D01*
G01X44533250D01*
X44469750Y22377380D01*
X43640290D01*
X43599120Y22336210D01*
Y22082210D01*
X43386290Y21869380D01*
X42433790D01*
X42392620Y21828210D01*
Y21324340D01*
X42472620Y21244340D01*
Y21205090D01*
G03X42489830Y21197770I10160J-3D01*
G02X42550060Y21172160I24667J-25617D01*
G01Y21040040D01*
G37*
G36*
G01X43414970Y19397100D02*
Y19147400D01*
G02X43326030I-44470J-33900D01*
G01Y19397100D01*
G02X43414970I44470J33900D01*
G37*
G36*
G01X37553880Y19859710D02*
X37530510Y19883080D01*
X37528410D01*
G02X37584420Y19939090I90J55920D01*
G01Y19936990D01*
X37630120Y19891290D01*
Y19542210D01*
X37566620Y19478710D01*
Y19268480D01*
X37619980D01*
Y19085520D01*
X37437020D01*
Y19268480D01*
X37490380D01*
Y19510290D01*
X37553880Y19573790D01*
Y19859710D01*
G37*
G36*
G01X41665610Y19646880D02*
X41363880Y19948610D01*
Y19982840D01*
G02X41449930Y19988080I38121J83160D01*
G03X41448070Y19972240I5321J-8654D01*
G01X41697190Y19723120D01*
X42465710D01*
X42592710Y19850120D01*
X42821590D01*
G02X42901980Y19851600I40910J-38121D01*
G01X42903470Y19850120D01*
X42910210D01*
X43100710Y20040620D01*
X43139090D01*
G02X43140520Y19962900I40911J-38120D01*
G01X43139030Y19964380D01*
X43132290D01*
X42941790Y19773880D01*
X42903410D01*
G02X42821590I-40910J38120D01*
G01X42624290D01*
X42497290Y19646880D01*
X42329120D01*
Y19387160D01*
G02X42252880I-38120J-83160D01*
G01Y19646880D01*
X41665610D01*
G37*
G36*
G01X43345120Y19891290D02*
X43662620Y19573790D01*
Y19471910D01*
G02X43586380I-38120J-40910D01*
G01Y19542210D01*
X43268880Y19859710D01*
Y20360780D01*
X43181990D01*
X43164190Y20378580D01*
X43149100D01*
G02X43125360Y20368440I-23741J22723D01*
G01X42993240D01*
G02Y20434160I5J32860D01*
G01X43125360D01*
G02X43149100Y20424020I-1J-32863D01*
G01X43183010D01*
X43200810Y20406220D01*
X43273450D01*
G02X43345390Y20370530I33552J-22720D01*
G01X43345120Y20369740D01*
Y19891290D01*
G37*
G36*
G01X43792410Y19659620D02*
X43858840D01*
G02Y19583380I83160J-38120D01*
G01X43792410D01*
G02Y19659620I-40910J38120D01*
G37*
G36*
G01X45424360Y20033950D02*
X45377120Y19986710D01*
Y19939790D01*
G03X45395150Y19933370I10160J4D01*
G02Y19817630I70850J-57870D01*
G03X45377120Y19811210I-7870J-6424D01*
G01Y19631110D01*
X45329390Y19583380D01*
X45041160D01*
G02Y19659620I-83160J38120D01*
G01X45297810D01*
X45300880Y19662690D01*
Y20018290D01*
X45370450Y20087860D01*
X45369210Y20090960D01*
G02X45427460Y20032710I96790J38540D01*
G01X45424360Y20033950D01*
G37*
G36*
G01X38383600Y19640530D02*
X38197400D01*
G02Y19729470I-33900J44470D01*
G01X38383600D01*
G02Y19640530I33900J-44470D01*
G37*
G36*
G01X40751210Y20104120D02*
X40855880Y20208790D01*
Y20647940D01*
G03X40838540Y20655130I-10160J2D01*
G01X40719290Y20535880D01*
X40596160D01*
G02Y20612120I-83160J38120D01*
G01X40687710D01*
X40792380Y20716790D01*
Y21072390D01*
X40840110Y21120120D01*
X41051040D01*
G02Y21043880I96960J-38120D01*
G01X40871690D01*
X40868620Y21040810D01*
Y20817560D01*
G03X40885960Y20810370I10160J-2D01*
G01X40941710Y20866120D01*
X41043820D01*
Y20932180D01*
X41252180D01*
Y20723820D01*
X41043820D01*
Y20789880D01*
X40973290D01*
X40932120Y20748710D01*
Y20177210D01*
X40782790Y20027880D01*
X40596160D01*
G02Y20104120I-83160J38120D01*
G01X40751210D01*
G37*
G36*
G01X43789620Y20145290D02*
X43830790Y20104120D01*
X43841510D01*
G03X43851550Y20115800I-5J10159D01*
G02X43913090Y20042710I90448J13702D01*
G01X43910110Y20043700D01*
X43894290Y20027880D01*
X43799210D01*
X43713380Y20113710D01*
Y20152090D01*
G02X43791100Y20153520I38120J40911D01*
G01X43789620Y20152030D01*
Y20145290D01*
G37*
G36*
G01X45196210Y20167620D02*
X45370450Y20341860D01*
X45369210Y20344960D01*
G02X45427460Y20286710I96790J38540D01*
G01X45424360Y20287950D01*
X45227790Y20091380D01*
X45041160D01*
G02Y20167620I-83160J38120D01*
G01X45196210D01*
G37*
G36*
G01X43158220Y20458580D02*
Y20448440D01*
X42960380D01*
Y20514160D01*
X43158220D01*
Y20510310D01*
G03X43166890Y20506720I5080J4D01*
G01X43193390Y20533220D01*
X43400450D01*
G02Y20487780I33550J-22720D01*
G01X43212210D01*
X43183010Y20458580D01*
X43158220D01*
G37*
G36*
G01X45041160Y20675620D02*
X45369040D01*
G02Y20599380I96960J-38120D01*
G01X45041160D01*
G02Y20675620I-83160J38120D01*
G37*
G36*
G01X43447760D02*
X43858840D01*
G02Y20599380I83160J-38120D01*
G01X43447760D01*
X43446970Y20599110D01*
G02Y20675890I-12970J38390D01*
G01X43447760Y20675620D01*
G37*
G36*
G01X39532620Y20972250D02*
Y20929910D01*
G02X39456380I-38120J-40910D01*
G01Y21000030D01*
G02X39535120Y20998840I40618J81969D01*
G01Y20974750D01*
X39532620Y20972250D01*
G37*
G36*
G01X40719290Y21043880D02*
X40596160D01*
G02Y21120120I-83160J38120D01*
G01X40687710D01*
X40827410Y21259820D01*
X41017910D01*
X41052490Y21294400D01*
G02X41109460Y21239210I95515J41596D01*
G01X41106360Y21240450D01*
X41049490Y21183580D01*
X40858990D01*
X40719290Y21043880D01*
G37*
G36*
G01X41948120Y21824340D02*
Y21159260D01*
X41948390Y21158470D01*
G02X41871610I-38390J-12970D01*
G01X41871880Y21159260D01*
Y21824340D01*
G02X41948120I38120J83160D01*
G37*
G36*
G01X37721010Y21645920D02*
X37957210Y21882120D01*
X38058810D01*
X38061880Y21885190D01*
Y22209210D01*
X38004890Y22266200D01*
X38001910Y22265210D01*
G02X38059790Y22323090I-28910J86790D01*
G01X38058800Y22320110D01*
X38138120Y22240790D01*
Y21853610D01*
X38090390Y21805880D01*
X37988790D01*
X37774920Y21592010D01*
Y21589910D01*
G02X37719090Y21534080I-55920J90D01*
G01X37716990D01*
X37607790Y21424880D01*
X37484660D01*
G02Y21501120I-83160J38120D01*
G01X37576210D01*
X37663080Y21587990D01*
Y21590090D01*
G02X37718910Y21645920I55920J-90D01*
G01X37721010D01*
G37*
G36*
G01X40596160Y21628120D02*
X41051040D01*
G02Y21551880I96960J-38120D01*
G01X40596160D01*
G02Y21628120I-83160J38120D01*
G37*
G36*
G01X39347410D02*
X39413840D01*
G02Y21551880I83160J-38120D01*
G01X39347410D01*
G02Y21628120I-40910J38120D01*
G37*
G36*
G01X44996120Y22260520D02*
Y21736660D01*
G02X44919880I-38120J-83160D01*
G01Y22260520D01*
X44866520D01*
Y22443480D01*
X45049480D01*
Y22260520D01*
X44996120D01*
G37*
G36*
G01X36782290Y21882120D02*
X37487590D01*
G02Y21805880I40910J-38120D01*
G01X36750710D01*
X36242710Y22313880D01*
X36214660D01*
G02Y22390120I-83160J38120D01*
G01X36274290D01*
X36782290Y21882120D01*
G37*
G36*
G01X37544290Y22390120D02*
X37907490Y22026920D01*
X37909590D01*
G02X37853580Y21970910I-90J-55920D01*
G01Y21973010D01*
X37512710Y22313880D01*
X37230660D01*
G02Y22390120I-83160J38120D01*
G01X37544290D01*
G37*
G36*
G01X42646620Y22255040D02*
Y22202410D01*
G02X42570380I-38120J-40910D01*
G01Y22255040D01*
G02X42646620I38120J96960D01*
G37*
G36*
G01X42900620D02*
Y22202410D01*
G02X42824380I-38120J-40910D01*
G01Y22255040D01*
G02X42900620I38120J96960D01*
G37*
G36*
G01X43154620D02*
Y22202410D01*
G02X43078380I-38120J-40910D01*
G01Y22255040D01*
G02X43154620I38120J96960D01*
G37*
G36*
G01X38774160Y20438140D02*
G02X38708440I-32860J5D01*
G01Y20570260D01*
G02X38774160I32860J-5D01*
G01Y20438140D01*
G37*
G36*
G01X38694160D02*
G02X38628440I-32860J5D01*
G01Y20570260D01*
G02X38694160I32860J-5D01*
G01Y20438140D01*
G37*
G36*
G01X38374160D02*
G02X38308440I-32860J5D01*
G01Y20570260D01*
G02X38374160I32860J-5D01*
G01Y20438140D01*
G37*
G36*
G01X38216860D02*
G02X38145740I-35560J5D01*
G01Y20570260D01*
G02X38216860I35560J-5D01*
G01Y20438140D01*
G37*
G36*
G01X38214160Y21287740D02*
G02X38148440I-32860J5D01*
G01Y21419860D01*
G02X38214160I32860J-5D01*
G01Y21287740D01*
G37*
G36*
G01X38296860D02*
G02X38225740I-35560J5D01*
G01Y21419860D01*
G02X38296860I35560J-5D01*
G01Y21287740D01*
G37*
G36*
G01X38820040Y21016140D02*
G02Y21081860I5J32860D01*
G01X38952160D01*
G02Y21016140I-5J-32860D01*
G01X38820040D01*
G37*
G36*
G01X42707360Y20190440D02*
G02X42641640I-32860J5D01*
G01Y20322560D01*
G02X42707360I32860J-5D01*
G01Y20190440D01*
G37*
G36*
G01X42143640Y20448440D02*
G02Y20514160I5J32860D01*
G01X42275760D01*
G02Y20448440I-5J-32860D01*
G01X42143640D01*
G37*
G36*
G01Y20368440D02*
G02Y20434160I5J32860D01*
G01X42275760D01*
G02Y20368440I-5J-32860D01*
G01X42143640D01*
G37*
G36*
G01Y20928440D02*
G02Y20994160I5J32860D01*
G01X42275760D01*
G02Y20928440I-5J-32860D01*
G01X42143640D01*
G37*
G36*
G01Y20848440D02*
G02Y20914160I5J32860D01*
G01X42275760D01*
G02Y20848440I-5J-32860D01*
G01X42143640D01*
G37*
G36*
G01Y20768440D02*
G02Y20834160I5J32860D01*
G01X42275760D01*
G02Y20768440I-5J-32860D01*
G01X42143640D01*
G37*
G36*
G01Y20688440D02*
G02Y20754160I5J32860D01*
G01X42275760D01*
G02Y20688440I-5J-32860D01*
G01X42143640D01*
G37*
G36*
G01Y20608440D02*
G02Y20674160I5J32860D01*
G01X42275760D01*
G02Y20608440I-5J-32860D01*
G01X42143640D01*
G37*
G36*
G01X42787360Y20190440D02*
G02X42721640I-32860J5D01*
G01Y20322560D01*
G02X42787360I32860J-5D01*
G01Y20190440D01*
G37*
G36*
G01X42950160D02*
G02X42879040I-35560J5D01*
G01Y20322560D01*
G02X42950160I35560J-5D01*
G01Y20190440D01*
G37*
G36*
G01X42993240Y20528440D02*
G02Y20594160I5J32860D01*
G01X43125360D01*
G02Y20528440I-5J-32860D01*
G01X42993240D01*
G37*
G36*
G01Y20608440D02*
G02Y20674160I5J32860D01*
G01X43125360D01*
G02Y20608440I-5J-32860D01*
G01X42993240D01*
G37*
G36*
G01Y20688440D02*
G02Y20754160I5J32860D01*
G01X43125360D01*
G02Y20688440I-5J-32860D01*
G01X42993240D01*
G37*
G36*
G01Y20768440D02*
G02Y20834160I5J32860D01*
G01X43125360D01*
G02Y20768440I-5J-32860D01*
G01X42993240D01*
G37*
G54D30*
X38261300Y20504200D03*
G54D26*
X42209700Y20561300D03*
X38036500Y21209000D03*
G54D29*
X40640000Y19050000D03*
X39624000D03*
X38608000D03*
X37782500Y19177000D03*
G54D25*
X43942000D03*
X43053000Y19304000D03*
X42354500Y22352000D03*
X41148000Y21844000D03*
X37401500Y19685000D03*
G54D27*
X41656000Y21907500D03*
X41148000Y20066000D03*
X38227000Y22352000D03*
X36893500D03*
X35877500D03*
G54D28*
X40640000Y19304000D03*
X39624000D03*
X38608000D03*
%LPD*%
G75*
G36*
G01X36256860Y20527230D02*
G02X36239520Y20534420I-7180J7188D01*
G01Y21145500D01*
X36512500D01*
Y20802620D01*
X36464790D01*
X36423620Y20843790D01*
Y20935340D01*
G03X36347380I-38120J83160D01*
G01Y20812210D01*
X36433210Y20726380D01*
X36512500D01*
Y19367500D01*
X35433000D01*
Y21145500D01*
X36150480D01*
Y20558020D01*
X36089520D01*
Y20678520D01*
X35897480D01*
Y20351220D01*
X35894780D01*
Y20285780D01*
X35897480D01*
Y20088480D01*
X36089520D01*
Y20285780D01*
X36092220D01*
Y20345380D01*
X36198150D01*
Y20262940D01*
X36299700Y20161390D01*
X36298710Y20158410D01*
G03X36356590Y20216290I86790J-28910D01*
G01X36353610Y20215300D01*
X36274390Y20294520D01*
Y20410380D01*
X36278130D01*
Y20440680D01*
X36295800Y20458350D01*
G02X36311230Y20457090I7179J-7188D01*
G03X36302340Y20548620I74270J53410D01*
G01X36278250D01*
X36256860Y20527230D01*
G37*
%LPC*%
G75*
G54D31*
X35993500Y20896000D03*
Y19871000D03*
X35623500Y20896000D03*
Y19871000D03*
G54D29*
X36385500Y19685000D03*
%LPD*%
G75*
G54D10*
X35623500Y19871000D03*
Y20896000D03*
X35993500Y19871000D03*
Y20896000D03*
G54D20*
X41148000Y21336000D03*
Y21082000D03*
Y21844000D03*
Y21590000D03*
X42354500Y22352000D03*
X42608500D03*
X42862500D03*
X43116500D03*
X45466000Y19875500D03*
Y20129500D03*
Y20383500D03*
Y20637500D03*
G54D11*
X35877500Y22352000D03*
X36893500D03*
X37528500Y19177000D03*
X38608000Y19304000D03*
X38735000Y22352000D03*
X38227000D03*
X39624000Y19304000D03*
X40640000D03*
X41148000Y20066000D03*
X41656000Y21907500D03*
X44958000Y22352000D03*
G54D21*
X41148000Y20828000D03*
X43370500Y22352000D03*
X45466000Y20891500D03*
G54D12*
X36385500Y19685000D03*
Y20129500D03*
Y20510500D03*
Y21018500D03*
Y21463000D03*
X36131500Y22352000D03*
X37401500Y19685000D03*
Y20129500D03*
Y20510500D03*
Y21018500D03*
Y21463000D03*
X37147500Y22352000D03*
X37782500Y19177000D03*
X37973000Y22352000D03*
X38608000Y19050000D03*
X39624000D03*
X39497000Y20066000D03*
Y20574000D03*
Y21082000D03*
Y21590000D03*
X38989000Y22352000D03*
X39624000D03*
X40386000D03*
X40640000Y19050000D03*
X40513000Y20066000D03*
Y20574000D03*
Y21082000D03*
Y21590000D03*
X41402000Y20066000D03*
X41910000Y21907500D03*
X42291000Y19304000D03*
X43053000D03*
X43942000Y19621500D03*
Y19177000D03*
Y20637500D03*
Y20129500D03*
Y21145500D03*
Y21653500D03*
X44958000Y19621500D03*
Y19177000D03*
Y20637500D03*
Y20129500D03*
Y21145500D03*
Y21653500D03*
X44640500Y22352000D03*
G54D22*
G01X36385500Y19685000D02*
X36195000D01*
G01X36385500Y19601140D02*
Y19685000D01*
G01D02*
Y19768860D01*
G01Y19685000D02*
X36469360D01*
G01X36195000D02*
X36131500Y19748500D01*
Y20291910D01*
X36104910Y20318500D01*
G01X36385500Y20129500D02*
X36236270Y20278730D01*
Y20383500D01*
X35993500D01*
G01X36385500Y20510500D02*
X36294040D01*
X36240010Y20456470D01*
Y20448500D01*
X35993500D01*
G01X36104910Y20318500D02*
X35993500D01*
G01X37401500Y20510500D02*
Y20701000D01*
X37338000Y20764500D01*
X36449000D01*
X36385500Y20828000D01*
Y21018500D01*
G01X37528500Y21844000D02*
X36766500D01*
X36258500Y22352000D01*
X36131500D01*
G01X37147500D02*
X37528500D01*
X37909500Y21971000D01*
G01X37528500Y19939000D02*
X37592000Y19875500D01*
Y19558000D01*
X37528500Y19494500D01*
Y19177000D01*
G01X38036500Y20728900D02*
X37708800D01*
X37655500Y20675600D01*
Y20574000D01*
X37592000Y20510500D01*
X37401500D01*
G01Y20129500D02*
X37719000D01*
X37777400Y20187900D01*
Y20221420D01*
X37782500Y20226520D01*
Y20574000D01*
X37846000Y20637500D01*
X37847300D01*
X37858700Y20648900D01*
X38036500D01*
G01X37528500Y20828000D02*
X37839700D01*
X37858700Y20809000D01*
X38036500D01*
G01X37401500Y21018500D02*
X37466180Y20953820D01*
X37735380D01*
X37800200Y20889000D01*
X38036500D01*
G01X37719000Y21590000D02*
X37973000Y21844000D01*
X38074600D01*
X38100000Y21869400D01*
Y22225000D01*
X37973000Y22352000D01*
G01X37401500Y21463000D02*
X37592000D01*
X37719000Y21590000D01*
G01X38163500Y21717000D02*
X38061900D01*
X38036500Y21691600D01*
Y21399500D01*
G01X38421300Y21353800D02*
Y21239500D01*
G01D02*
X38417500Y21235700D01*
Y21234400D01*
X38392100Y21209000D01*
X38290500D01*
X38261300Y21238200D01*
G01D02*
Y21353800D01*
G01X38741300D02*
X40685700D01*
G01X38989000Y22352000D02*
Y22250400D01*
X38963600Y22225000D01*
X38544500D01*
X38501300Y22181800D01*
Y21353800D01*
G01X38608000Y21844000D02*
X39217600D01*
X39243000Y21869400D01*
Y22288500D01*
X39306500Y22352000D01*
X39624000D01*
G01X38581300Y21353800D02*
Y21761400D01*
X38608000Y21788100D01*
Y21844000D01*
G01X38417500Y21590000D02*
X38341300Y21513800D01*
Y21353800D01*
G01X38163500Y21717000D02*
X38328600D01*
X38417500Y21805900D01*
Y22606000D01*
X38379400Y22644100D01*
X38227000D01*
G01X39497000Y20574000D02*
X39331900D01*
X39306500Y20599400D01*
Y20764500D01*
X39262000Y20809000D01*
X38886100D01*
G01X39497000Y20066000D02*
X39306500D01*
X39243000Y20129500D01*
Y20637500D01*
X39151600Y20728900D01*
X38886100D01*
G01X40894000Y21336000D02*
X40830500D01*
X40767000Y21272500D01*
X39370000D01*
X39306500Y21209000D01*
X38886100D01*
G01Y20608250D02*
Y20648900D01*
G01D02*
X38992800D01*
G01X38886100Y20969000D02*
X39038500D01*
G01X39494500Y20889000D02*
Y20988040D01*
X39497000Y20990540D01*
Y21082000D01*
G01X38886100Y20889000D02*
X39177000D01*
G01X39306500Y21590000D02*
X39497000D01*
G01X38989000Y22352000D02*
Y22479000D01*
X39052500Y22542500D01*
X40322500D01*
X40386000Y22479000D01*
Y22352000D01*
G01X41148000Y20828000D02*
X40957500D01*
X40894000Y20764500D01*
Y20193000D01*
X40767000Y20066000D01*
X40513000D01*
G01X41148000Y21082000D02*
X40855900D01*
X40830500Y21056600D01*
Y20701000D01*
X40703500Y20574000D01*
X40513000D01*
G01X41148000Y21336000D02*
X41033700Y21221700D01*
X40843200D01*
X40703500Y21082000D01*
X40513000D01*
G01Y21590000D02*
X41148000D01*
G01X42291000Y19685000D02*
X41681400D01*
X41402000Y19964400D01*
Y20066000D01*
G01X41910000Y21907500D02*
Y21145500D01*
G01X42862500Y19812000D02*
X42608500D01*
X42481500Y19685000D01*
X42291000D01*
G01D02*
Y19304000D01*
G01X42604700Y20069800D02*
X42545000Y20129500D01*
Y20153750D01*
X42514500Y20184250D01*
Y20256500D01*
G01X42418000Y20066000D02*
Y20121900D01*
X42434500Y20138400D01*
Y20256500D01*
G01X43370500Y22352000D02*
Y22098000D01*
X43307000Y22034500D01*
X42418000D01*
X42227500Y21844000D01*
Y21399500D01*
X42037000Y21209000D01*
Y20154900D01*
X42062400Y20129500D01*
X42329100D01*
X42354500Y20154900D01*
Y20256500D01*
G01X42481500Y21335530D02*
Y21253400D01*
X42514500Y21220400D01*
G01X42434500Y21106100D02*
Y21228550D01*
X42354500Y21308550D01*
Y21844000D01*
X42418000Y21907500D01*
X43370500D01*
X43561000Y22098000D01*
Y22352000D01*
X43624500Y22415500D01*
X44485540D01*
X44549040Y22352000D01*
X44640500D01*
G01X42735500Y21653500D02*
X42608500D01*
G01Y22352000D02*
Y22161500D01*
G01X43624500Y19431000D02*
Y19558000D01*
X43307000Y19875500D01*
Y20383500D01*
G01X43180000Y20002500D02*
X43116500D01*
X42926000Y19812000D01*
X42862500D01*
G01X42914600Y20149800D02*
Y20256500D01*
G01D02*
X42955250D01*
G01X43307000Y20383500D02*
X43191400D01*
X43173600Y20401300D01*
X43059300D01*
G01X43434000Y20510500D02*
X43202800D01*
X43173600Y20481300D01*
X43059300D01*
G01X43434000Y21209000D02*
Y21374100D01*
X43408600Y21399500D01*
X43116500D01*
G01X43434000Y20637500D02*
X43942000D01*
G01X43116500Y21399500D02*
X43053000D01*
X42926000Y21272500D01*
Y21231800D01*
X42914600Y21220400D01*
Y21106100D01*
G01X42989500Y21526500D02*
Y21438800D01*
X42834600Y21283900D01*
Y21106100D01*
G01X42735500Y21653500D02*
X42754500Y21634500D01*
Y21106100D01*
G01X43942000Y21145500D02*
X43751500D01*
X43567300Y20961300D01*
X43059300D01*
G01X42989500Y21526500D02*
X43726100D01*
X43751500Y21501100D01*
Y21399500D01*
G01X43434000Y21653500D02*
X42735500D01*
G01X43116500Y22352000D02*
Y22161500D01*
G01X42862500Y22352000D02*
Y22161500D01*
G01X43370500Y22352000D02*
Y22542500D01*
X43434000Y22606000D01*
X45250100D01*
X45275500Y22580600D01*
Y21234400D01*
X45186600Y21145500D01*
X44958000D01*
G01X43751500Y19621500D02*
X43942000D01*
G01X43751500Y20193000D02*
Y20129500D01*
X43815000Y20066000D01*
X43878500D01*
X43942000Y20129500D01*
G01X44958000Y19177000D02*
X45567600D01*
X45656500Y19265900D01*
Y20866100D01*
X45631100Y20891500D01*
X45466000D01*
G01Y20129500D02*
X45339000Y20002500D01*
Y19646900D01*
X45313600Y19621500D01*
X44958000D01*
G01Y20129500D02*
X45212000D01*
X45466000Y20383500D01*
G01Y20891500D02*
X45212000D01*
X44958000Y21145500D01*
G01Y20637500D02*
X45466000D01*
G01X44958000Y22352000D02*
Y21653500D01*
G54D13*
X35993500Y20613500D03*
Y20153500D03*
G54D23*
G01X35793640Y22352000D02*
X35877500D01*
G01Y22268140D02*
Y22352000D01*
G01D02*
Y22435860D01*
G01Y22352000D02*
X35961360D01*
G01X36893500Y22268140D02*
Y22352000D01*
G01D02*
Y22435860D01*
G01X36809640Y22352000D02*
X36893500D01*
G01D02*
X36977360D01*
G01X37782500Y19177000D02*
X38100000D01*
G01D02*
X38227000Y19050000D01*
G01X37782500Y19093140D02*
Y19177000D01*
G01D02*
Y19260860D01*
G01X37698640Y19177000D02*
X37782500D01*
G01X38608000Y19050000D02*
X39624000D01*
G01X38227000D02*
X38608000D01*
G01Y18966140D02*
Y19050000D01*
G01D02*
Y19133860D01*
G01X38163500Y19685000D02*
X38417500D01*
G01X38735000Y22352000D02*
Y22435860D01*
G01X38651140Y22352000D02*
X38735000D01*
G01D02*
X38818860D01*
G01X38227000Y22268140D02*
Y22352000D01*
G01D02*
Y22435860D01*
G01X38143140Y22352000D02*
X38227000D01*
G01D02*
X38310860D01*
G01X39624000Y19050000D02*
X40640000D01*
G01X39624000Y18966140D02*
Y19050000D01*
G01D02*
Y19133860D01*
G01X40640000Y19050000D02*
X41109900D01*
G01D02*
X41148000Y19088100D01*
G01X40640000Y18966140D02*
Y19050000D01*
G01D02*
Y19133860D01*
G01X41148000Y19088100D02*
Y20066000D01*
G01D02*
Y20149860D01*
G01X41064140Y20066000D02*
X41148000D01*
G01D02*
X41231860D01*
G01X41148000Y21747440D02*
Y21844000D01*
G01D02*
Y21940560D01*
G01X41051440Y21844000D02*
X41148000D01*
G01D02*
X41244560D01*
G01X41402000Y20828000D02*
Y20447000D01*
G01X41656000Y21823640D02*
Y21907500D01*
G01D02*
Y21991360D01*
G01X41572140Y21907500D02*
X41656000D01*
G01D02*
X41739860D01*
G01X42483210Y21399500D02*
Y21337240D01*
X42481500Y21335530D01*
G01X42354500Y22255440D02*
Y22352000D01*
G01D02*
Y22448560D01*
G01X42257940Y22352000D02*
X42354500D01*
G01D02*
X42451060D01*
G01X43370500Y19431000D02*
Y19113500D01*
G01X45466000Y19778940D02*
Y19875500D01*
G01D02*
Y19972060D01*
G01Y19875500D02*
X45562560D01*
G54D14*
X35993500Y20253500D03*
Y20513500D03*
Y20318500D03*
Y20448500D03*
Y20383500D03*
G54D24*
G01X36195000Y21945600D02*
Y20538900D01*
X36169600Y20513500D01*
X35993500D01*
G01X38036500Y21049000D02*
X37915800D01*
X37755800Y21209000D01*
X36410900D01*
X36385500Y21234400D01*
Y21463000D01*
G01X37782500Y21018500D02*
X37846000D01*
X37895500Y20969000D01*
X38036500D01*
G01Y21049000D02*
Y20969000D01*
G01X38661300Y21353800D02*
Y21239500D01*
X38671500Y21229300D01*
Y21082000D01*
X38638500Y21049000D01*
X38036500D01*
G01X38581300Y20504200D02*
Y19785300D01*
G01X38481000Y20193000D02*
Y20363200D01*
X38501300Y20383500D01*
Y20504200D01*
G01X38181300Y20218400D02*
Y20504200D01*
G01X38581300D02*
Y20632460D01*
G01X38219500Y20639360D02*
X38181300Y20601160D01*
Y20504200D01*
G01X38886100Y20648900D02*
X38820050D01*
X38767940Y20701010D01*
G01X38574400Y20639360D02*
X38219500D01*
G01X38581300Y20632460D02*
X38574400Y20639360D01*
G01X38767940Y20701010D02*
X38617470D01*
X38574400Y20657940D01*
Y20639360D01*
G01X38261300Y21493400D02*
Y21353800D01*
G01X38163500Y21717000D02*
Y21591200D01*
X38261300Y21493400D01*
G01X42674500Y21106100D02*
Y20487700D01*
X42712700Y20449500D01*
X42773600D01*
X42834600Y20388500D01*
Y20256500D01*
G01X43942000Y21653500D02*
X43624500D01*
X43497500Y21780500D01*
X42583200D01*
X42481500Y21678800D01*
Y21564700D01*
X42509920Y21536280D01*
X42514280D01*
X42524060Y21526500D01*
X42636300D01*
X42674500Y21488300D01*
Y21106100D01*
G01X42514500Y20828000D02*
Y21106100D01*
G01Y21220400D02*
Y21106100D01*
G01X42799000Y20066000D02*
X42834600Y20101600D01*
Y20256500D01*
G01X42799000Y20637500D02*
X42914600Y20521900D01*
G01D02*
Y20256500D01*
G54D15*
X36195000Y21945600D03*
X35877500Y22034500D03*
Y22542500D03*
X36893500Y22606000D03*
X37528500Y19939000D03*
X37782500Y21018500D03*
X37528500Y20828000D03*
Y21844000D03*
X37719000Y21590000D03*
X38036500Y21399500D03*
X37909500Y21971000D03*
X38163500Y19685000D03*
X38417500D03*
X38581300Y19785300D03*
X38481000Y20193000D03*
X38181300Y20218400D03*
X38608000Y21844000D03*
X38417500Y21590000D03*
X38163500Y21717000D03*
X38227000Y22644100D03*
X39038500Y20969000D03*
X39494500Y20889000D03*
X39177000D03*
X39306500Y21590000D03*
X41148000Y20157460D03*
X40685700Y21353800D03*
X40894000Y21336000D03*
X41402000Y20447000D03*
Y20828000D03*
X41910000Y21145500D03*
X42604700Y20069800D03*
X42418000Y20066000D03*
X42514500Y20828000D03*
X42608500Y21653500D03*
X42483210Y21399500D03*
X42608500Y22161500D03*
X43370500Y19113500D03*
Y19431000D03*
X42862500Y19812000D03*
X42799000Y20066000D03*
X43307000Y20383500D03*
X43434000Y20510500D03*
X43180000Y20002500D03*
X43434000Y20637500D03*
Y21209000D03*
X42799000Y20637500D03*
X43116500Y21399500D03*
X42989500Y21526500D03*
X43434000Y21653500D03*
X43116500Y22161500D03*
X42862500D03*
X43751500Y19621500D03*
X43624500Y19431000D03*
X43751500Y20193000D03*
Y21399500D03*
G54D16*
X38036500Y21209000D03*
X38886100Y20889000D03*
X42209700Y20561300D03*
X43059300Y20481300D03*
G54D17*
X38036500Y21129000D03*
Y21049000D03*
Y20969000D03*
Y20889000D03*
Y20809000D03*
Y20728900D03*
Y20648900D03*
X38886100D03*
Y20728900D03*
Y20809000D03*
Y20969000D03*
Y21049000D03*
Y21129000D03*
Y21209000D03*
X42209700Y20481300D03*
Y20401300D03*
Y20961300D03*
Y20881300D03*
Y20801300D03*
Y20721300D03*
Y20641300D03*
X43059300Y20401300D03*
Y20561300D03*
Y20641300D03*
Y20721300D03*
Y20801300D03*
Y20881300D03*
Y20961300D03*
G54D18*
X38181300Y20504200D03*
X38341300D03*
X38421300D03*
X38501300D03*
X38581300D03*
X38661300D03*
X38741300D03*
Y21353800D03*
X38661300D03*
X38581300D03*
X38501300D03*
X38421300D03*
X38261300D03*
X38181300D03*
X42434500Y20256500D03*
X42514500D03*
X42594500D03*
X42674500D03*
X42594500Y21106100D03*
X42514500D03*
X42434500D03*
X42354500D03*
X42754500Y20256500D03*
X42834600D03*
X42914600D03*
Y21106100D03*
X42834600D03*
X42754500D03*
G54D19*
X38261300Y20504200D03*
X38341300Y21353800D03*
X42354500Y20256500D03*
X42674500Y21106100D03*
M02*
